<svg width="309" height="297" viewBox="0 0 309 297" fill="none" xmlns="http://www.w3.org/2000/svg">
<path d="M50.1538 160.973C73.2395 144.208 111.752 167.272 130.978 146.171C150.074 125.227 140.376 81.5191 144.222 47.8458C146.336 29.3778 171.611 1.75105 201.899 0.998651C243.671 -0.0478686 288.649 28.9606 300.632 63.6599C314.995 105.295 272.411 178.633 252.046 211.862C231.784 244.92 174.564 288.108 136.631 295.721C106.289 301.808 67.7494 281.452 47.0098 252.211C24.497 220.501 29.5915 175.884 50.1538 160.973Z" fill="#F6C647"/>
<path opacity="0.7" d="M50.1538 160.973C73.2395 144.208 111.752 167.272 130.978 146.171C150.074 125.227 140.376 81.5191 144.222 47.8458C146.336 29.3778 171.611 1.75105 201.899 0.998651C243.671 -0.0478686 288.649 28.9606 300.632 63.6599C314.995 105.295 272.411 178.633 252.046 211.862C231.784 244.92 174.564 288.108 136.631 295.721C106.289 301.808 67.7494 281.452 47.0098 252.211C24.497 220.501 29.5915 175.884 50.1538 160.973Z" fill="white"/>
<path d="M0.702148 279.298H307.957" stroke="#263238" stroke-linecap="round" stroke-linejoin="round"/>
<path d="M186.397 263.525C186.397 263.525 187.509 267.519 187.461 268.887C187.427 269.838 186.663 271.801 185.899 272.369C184.474 273.422 181.582 272.909 180.887 277.383C180.854 277.597 180.868 277.815 180.928 278.023C180.987 278.231 181.091 278.424 181.231 278.588C181.372 278.752 181.546 278.884 181.742 278.975C181.938 279.065 182.151 279.113 182.367 279.113H198.475C198.698 279.115 198.919 279.07 199.123 278.981C199.328 278.892 199.511 278.762 199.662 278.597C199.813 278.433 199.928 278.239 200 278.027C200.071 277.816 200.098 277.591 200.078 277.369C200.014 275.655 199.713 273.959 199.185 272.328C198.721 271.179 197.459 269.01 197.05 267.841C196.552 266.439 195.686 262.061 195.686 262.061L186.397 263.525Z" fill="white" stroke="#263238" stroke-linecap="round" stroke-linejoin="round"/>
<path d="M200.078 277.369C200.014 275.656 199.713 273.959 199.185 272.328C198.885 271.583 198.257 270.427 197.739 269.38C196.961 270.098 196.375 271.193 195.427 271.323C193.92 271.528 192.699 268.771 189.909 268.771C189.031 268.756 188.164 268.97 187.393 269.394C187.188 270.42 186.547 271.89 185.899 272.369C184.474 273.422 181.582 272.909 180.887 277.383C180.854 277.597 180.868 277.815 180.928 278.023C180.987 278.231 181.091 278.424 181.231 278.588C181.372 278.753 181.546 278.884 181.742 278.975C181.938 279.066 182.151 279.113 182.367 279.113H198.475C198.698 279.115 198.919 279.07 199.123 278.981C199.328 278.893 199.511 278.762 199.662 278.598C199.813 278.433 199.928 278.239 200 278.027C200.071 277.816 200.098 277.592 200.078 277.369Z" fill="#BFBFBF" stroke="#263238" stroke-linecap="round" stroke-linejoin="round"/>
<path d="M142.224 263.525C142.224 263.525 142.708 268.128 141.965 269.393C141.153 270.761 137.832 271.965 136.284 272.41C134.238 273.005 129.096 272.923 129.096 277.109V277.971C129.096 278.121 129.125 278.269 129.182 278.408C129.24 278.547 129.324 278.672 129.429 278.779C129.535 278.885 129.661 278.969 129.799 279.026C129.937 279.084 130.085 279.113 130.235 279.113H153.498C153.729 279.114 153.957 279.065 154.167 278.968C154.377 278.871 154.563 278.73 154.713 278.553C154.862 278.376 154.971 278.169 155.033 277.946C155.094 277.722 155.105 277.488 155.066 277.259C154.684 275.112 153.102 271.972 152.338 269.393C151.915 267.984 152.502 263.525 152.502 263.525H142.224Z" fill="white" stroke="#263238" stroke-linecap="round" stroke-linejoin="round"/>
<path d="M155.039 277.26C154.671 275.208 153.191 272.198 152.393 269.667C151.711 270.098 151.254 270.85 150.674 271.322C150.248 271.687 149.732 271.929 149.179 272.025C148.627 272.12 148.06 272.064 147.537 271.863C146.173 271.487 147.414 269.223 145.157 268.846C144.131 268.713 143.09 268.776 142.088 269.031C142.053 269.158 142.002 269.279 141.938 269.394C141.126 270.762 137.805 271.965 136.257 272.41C134.211 273.005 129.068 272.923 129.068 277.109V277.971C129.068 278.274 129.188 278.564 129.402 278.779C129.616 278.993 129.905 279.113 130.207 279.113H153.47C153.701 279.114 153.93 279.065 154.14 278.968C154.35 278.871 154.536 278.73 154.686 278.553C154.835 278.376 154.944 278.169 155.005 277.946C155.066 277.722 155.078 277.488 155.039 277.26Z" fill="#BFBFBF" stroke="#263238" stroke-linecap="round" stroke-linejoin="round"/>
<path d="M147.557 134.262C145.079 148.458 143.336 162.773 142.333 177.149C140.758 200.405 140.771 202.375 140.771 202.375L141.576 265.303C141.576 265.303 147.776 267.813 153.457 264.865C153.457 264.865 159.261 223.873 157.685 205.809C157.685 205.809 163.332 179.31 164.3 167.409C164.3 167.409 172.907 159.734 173.037 152.99C173.166 146.246 172.423 133.455 172.423 133.455L147.557 134.262Z" fill="#263238" stroke="#263238" stroke-linecap="round" stroke-linejoin="round"/>
<path d="M158.524 135.405C158.524 135.405 159.772 162.026 164.041 164.659C164.041 164.659 166.19 196.281 170.043 207.478C173.896 218.675 185.818 265.153 185.818 265.153C185.818 265.153 193.626 266.124 197.05 263.244C197.05 263.244 193.388 226.582 188.014 206.123L186.22 155.583C186.22 155.583 189.248 147.265 185.818 130.015L158.524 135.405Z" fill="#263238" stroke="#263238" stroke-linecap="round" stroke-linejoin="round"/>
<path d="M146.316 134.112L145.143 137.942C145.143 137.942 149.024 140.76 150.517 141.287C152.352 141.937 158.237 142.258 158.237 142.258L158.919 139.235L162.493 142.258C162.493 142.258 173.405 140.76 176.992 139.905C179.72 139.221 187.734 136.485 187.734 136.485L186.165 131.759L146.316 134.112Z" fill="white" stroke="#263238" stroke-linecap="round" stroke-linejoin="round"/>
<path d="M186.288 133.113C184.14 135.542 170.602 138.64 157.385 137.847C144.168 137.053 145.634 137.238 145.791 130.842C145.88 121.322 145.044 111.815 143.295 102.456C142.088 95.8216 141.249 88.5712 139.987 81.9364C139.987 81.9364 127.902 89.4194 130.303 90.3359C132.703 91.2525 126.511 92.1007 126.511 92.1007L137.852 94.2074C136.209 96.4919 137.852 102.142 137.852 102.142C130.194 101.458 111.568 101.492 110.893 94.6178C110.525 90.7737 115.899 86.4098 120.441 82.2579C128.038 75.37 132.506 70.3837 132.506 70.3837C132.055 66.7858 135.575 67.9691 135.575 67.9691C135.083 66.95 134.845 65.5888 139.51 66.5122C139.51 66.5122 148.157 61.8884 174.067 62.0731C174.067 62.0731 180.205 60.5956 179.877 62.4356C179.877 62.4356 184.419 78.2291 185.02 87.5179C185.483 94.5973 186.288 133.113 186.288 133.113Z" fill="#F6C647" stroke="#263238" stroke-linecap="round" stroke-linejoin="round"/>
<path d="M160.986 47.3602C160.629 50.4232 160.629 53.5175 160.986 56.5805C161.354 59.2071 162.684 61.3685 163.393 63.2906C163.393 63.2906 161.457 70.7462 155.939 70.411C150.422 70.0758 148.833 64.6312 148.833 64.6312C149.571 62.646 149.571 60.4604 148.833 58.4752C147.578 55.4109 155.182 47.9279 155.182 47.9279L160.277 46.3752L160.986 47.3602Z" fill="white"/>
<mask id="mask0_449_499" style="mask-type:luminance" maskUnits="userSpaceOnUse" x="148" y="46" width="16" height="25">
<path d="M160.986 47.3602C160.629 50.4232 160.629 53.5175 160.986 56.5805C161.354 59.2071 162.684 61.3685 163.393 63.2906C163.393 63.2906 161.457 70.7462 155.939 70.411C150.422 70.0758 148.833 64.6312 148.833 64.6312C149.571 62.646 149.571 60.4604 148.833 58.4752C147.578 55.4109 155.182 47.9279 155.182 47.9279L160.277 46.3752L160.986 47.3602Z" fill="white"/>
</mask>
<g mask="url(#mask0_449_499)">
<path d="M142.715 49.98C144.318 54.1866 148.758 64.1319 154.841 63.66C162.964 62.976 161.661 50.8145 161.6 49.98H142.715Z" fill="#263238" stroke="#263238" stroke-linecap="round" stroke-linejoin="round"/>
</g>
<path d="M160.986 47.3602C160.629 50.4232 160.629 53.5175 160.986 56.5805C161.354 59.2071 162.684 61.3685 163.393 63.2906C163.393 63.2906 161.457 70.7462 155.939 70.411C150.422 70.0758 148.833 64.6312 148.833 64.6312C149.571 62.646 149.571 60.4604 148.833 58.4752C147.578 55.4109 155.182 47.9279 155.182 47.9279L160.277 46.3752L160.986 47.3602Z" stroke="#263238" stroke-linecap="round" stroke-linejoin="round"/>
<path d="M160.754 40.6023C161.388 40.5203 160.904 32.6953 157.385 32.0592C157.385 32.0592 152.243 28.4203 142.899 32.0592C133.556 35.6981 137.655 40.8486 135.322 43.14C135.716 43.1013 136.097 42.9834 136.444 42.7934C136.791 42.6035 137.096 42.3453 137.341 42.0343C137.586 41.7233 137.766 41.366 137.871 40.9836C137.975 40.6012 138.001 40.2017 137.948 39.8089C137.948 39.8089 139.312 47.5655 142.872 50.9786C146.432 54.3918 154.827 53.2016 154.827 53.2016L158.326 50.4656L160.754 40.6023Z" fill="#263238" stroke="#263238" stroke-linecap="round" stroke-linejoin="round"/>
<path d="M139.428 40.8075L141.18 46.6078C141.18 46.6078 146.241 62.6682 154.07 61.9978C162.602 61.2591 161.006 48.3178 161.006 48.3178C161.006 48.3178 162.479 48.6256 163.386 46.2658C164.293 43.906 164.007 37.5038 160.74 41.2248C160.74 41.2248 160.863 43.2768 160.058 43.5435C159.253 43.8103 157.658 40.404 156.546 40.4655C155.434 40.5271 155.496 35.9032 152.454 35.4518C149.412 35.0004 147.769 35.2877 144.27 36.6009C140.771 37.9142 138.364 37.2849 139.428 40.8075Z" fill="white" stroke="#263238" stroke-linecap="round" stroke-linejoin="round"/>
<path d="M142.149 46.943C142.149 46.943 140.642 45.6845 140.226 46.943C139.81 48.2016 141.733 52.6407 143.404 52.5587C145.075 52.4766 142.149 46.943 142.149 46.943Z" stroke="#263238" stroke-linecap="round" stroke-linejoin="round"/>
<path d="M146.671 47.3876C146.671 47.3876 149.14 51.1359 148.717 53.3999C148.41 54.9526 149.699 54.4875 150.763 54.2344" stroke="#263238" stroke-linecap="round" stroke-linejoin="round"/>
<path d="M161.388 40.5203V39.2139C159.697 40.9717 139.953 47.3398 139.953 47.3398C139.861 47.3726 139.778 47.4263 139.71 47.4968C139.642 47.5672 139.591 47.6524 139.561 47.7457C139.532 47.8391 139.524 47.9381 139.538 48.0349C139.553 48.1318 139.59 48.224 139.646 48.3042L143.336 53.6668C143.414 53.7821 143.528 53.8682 143.66 53.9115C143.792 53.9548 143.935 53.953 144.065 53.9062L147.53 52.716C147.669 52.6685 147.787 52.5747 147.865 52.4502C147.944 52.3257 147.977 52.1781 147.96 52.032L147.803 50.493C147.788 50.3564 147.819 50.2187 147.889 50.1006C147.959 49.9825 148.065 49.8904 148.192 49.8381C148.319 49.7857 148.459 49.7759 148.592 49.8101C148.724 49.8443 148.842 49.9207 148.928 50.0279L150.033 51.3959C150.115 51.4927 150.223 51.5632 150.344 51.5984C150.465 51.6337 150.594 51.6323 150.715 51.5943L156.382 49.6312C156.522 49.5848 156.641 49.4912 156.719 49.3664C156.798 49.2417 156.831 49.0935 156.812 48.9472L156.226 43.4752C162.002 41.7241 161.388 40.5203 161.388 40.5203Z" fill="#F6C647" stroke="#263238" stroke-linecap="round" stroke-linejoin="round"/>
<path d="M144.072 36.3479C144.072 36.3479 141.583 40.3561 144.481 43.2905C144.481 43.2905 135.69 38.1605 144.072 36.3479Z" fill="#263238" stroke="#263238" stroke-linecap="round" stroke-linejoin="round"/>
<path d="M145.689 50.0552C145.934 50.6024 145.914 51.1496 145.641 51.2727C145.368 51.3958 144.959 51.0538 144.7 50.5066C144.441 49.9594 144.468 49.4122 144.741 49.2891C145.014 49.166 145.436 49.508 145.689 50.0552Z" fill="#263238"/>
<path d="M152.563 47.928C152.706 48.5094 152.563 49.0429 152.29 49.1113C152.018 49.1797 151.649 48.7693 151.506 48.1811C151.363 47.5928 151.506 47.0661 151.779 46.9977C152.052 46.9293 152.454 47.3055 152.563 47.928Z" fill="#263238"/>
<path d="M142.77 48.2016C143.162 47.8389 143.644 47.5881 144.166 47.4751C144.687 47.362 145.229 47.3909 145.736 47.5586" stroke="#263238" stroke-linecap="round" stroke-linejoin="round"/>
<path d="M149.331 46.4231C149.782 45.7338 150.417 45.1844 151.162 44.8364C151.908 44.4885 152.735 44.3558 153.552 44.4532" stroke="#263238" stroke-linecap="round" stroke-linejoin="round"/>
<path d="M150.087 67.4562L156.58 70.4726L163.837 67.4562C163.837 67.4562 160.768 73.6122 158.483 74.0978C156.198 74.5835 152.461 70.4247 152.461 70.4247L150.087 67.4562Z" fill="#263238" stroke="#263238" stroke-linecap="round" stroke-linejoin="round"/>
<path d="M147.946 65.9309C147.946 65.9309 153.988 74.604 158.033 75.3564C162.077 76.1088 165.214 63.2906 165.214 63.2906H163.366C163.366 63.2906 160.754 72.3058 158.005 72.9693C155.257 73.6327 149.139 65.4453 149.139 65.4453L147.946 65.9309Z" fill="#F6C647" stroke="#263238" stroke-linecap="round" stroke-linejoin="round"/>
<path d="M149.153 63.8447C149.153 63.8447 153.695 69.9528 157.385 69.3167C161.074 68.6805 163.189 62.0936 163.189 62.0936C163.189 62.0936 165.726 61.0266 167.096 62.0936C167.096 62.0936 166.469 69.6929 165.589 72.08C164.709 74.4672 162.595 70.712 157.405 70.712C152.215 70.712 153.681 73.8311 150.81 73.2155C147.939 72.5999 146.718 64.3235 146.718 64.3235C146.718 64.3235 147.134 62.9007 149.153 63.8447Z" fill="white" stroke="#263238" stroke-linecap="round" stroke-linejoin="round"/>
<path d="M150.77 91.1294L158.101 102.108L154.691 101.848L146.753 107.176C146.124 107.599 145.353 107.754 144.611 107.608C143.868 107.462 143.213 107.026 142.79 106.396L139.817 101.964C139.397 101.332 139.244 100.559 139.391 99.8147C139.538 99.0701 139.973 98.414 140.601 97.9899L150.77 91.1294Z" fill="white" stroke="#263238" stroke-linecap="round" stroke-linejoin="round"/>
<path d="M155.271 95.0487C156.533 96.9434 157.317 98.7696 157.419 99.8367L158.203 101.772C158.23 101.83 158.236 101.896 158.219 101.957C158.202 102.019 158.164 102.072 158.111 102.107C158.058 102.143 157.995 102.158 157.931 102.151C157.868 102.143 157.81 102.113 157.767 102.067L156.273 100.596C155.325 100.103 153.941 98.6739 152.679 96.7792C150.906 94.1321 150.054 91.5945 150.77 91.1157C151.486 90.6369 153.504 92.3879 155.271 95.0487Z" fill="white" stroke="#263238" stroke-linecap="round" stroke-linejoin="round"/>
<path d="M158.237 108.907C158.135 109.203 158.103 109.519 158.142 109.83C158.165 109.983 158.242 110.123 158.36 110.224C158.478 110.324 158.628 110.379 158.783 110.377C159.137 110.329 159.308 109.919 159.39 109.57C159.768 107.874 159.768 106.115 159.39 104.42C159.267 103.852 158.08 99.9188 157.344 100.521C158.537 103.146 158.851 106.088 158.237 108.907Z" fill="#F6C647" stroke="#263238" stroke-linecap="round" stroke-linejoin="round"/>
<path d="M166.974 106.424C165.772 107.537 164.865 108.932 164.335 110.485C163.805 112.037 163.669 113.697 163.939 115.316C163.953 115.53 164.045 115.733 164.198 115.883C164.274 115.925 164.359 115.951 164.445 115.96C164.532 115.968 164.62 115.958 164.703 115.931C164.786 115.904 164.862 115.861 164.928 115.803C164.994 115.745 165.047 115.675 165.084 115.596C165.224 115.266 165.274 114.905 165.228 114.55C165.17 111.911 165.837 109.308 167.158 107.026C167.29 106.796 167.338 106.528 167.294 106.266C167.246 106.198 167.021 106.376 166.974 106.424Z" fill="#263238"/>
<path d="M168.372 96.8545L165.644 110.117L168.781 108.558L178.37 110.555C178.746 110.635 179.135 110.64 179.513 110.569C179.891 110.498 180.251 110.353 180.573 110.142C180.895 109.931 181.172 109.658 181.389 109.339C181.605 109.02 181.757 108.662 181.835 108.284L182.953 102.894C183.111 102.131 182.96 101.337 182.534 100.686C182.108 100.034 181.442 99.579 180.682 99.4195L168.372 96.8545Z" fill="white" stroke="#263238" stroke-linecap="round" stroke-linejoin="round"/>
<path d="M165.603 102.32C165.125 104.604 165.078 106.649 165.398 107.703V109.851C165.397 109.914 165.418 109.977 165.458 110.027C165.497 110.077 165.553 110.111 165.616 110.124C165.678 110.137 165.743 110.128 165.799 110.098C165.855 110.068 165.899 110.019 165.923 109.96L166.776 107.99C167.492 107.156 168.263 105.254 168.733 102.976C169.415 99.7752 169.238 97.0392 168.372 96.8545C167.506 96.6698 166.264 99.1186 165.603 102.32Z" fill="white" stroke="#263238" stroke-linecap="round" stroke-linejoin="round"/>
<path d="M173.112 99.0569L170.868 100.596C170.626 100.764 170.443 101.003 170.343 101.28L169.661 103.045C169.617 103.161 169.589 103.283 169.579 103.407L169.333 105.952C169.333 105.952 169.784 106.82 170.875 106.095L171.386 103.797L172.368 101.854L174.592 100.582L174.032 99.3032C173.995 99.2196 173.94 99.1455 173.87 99.0862C173.801 99.0268 173.719 98.9838 173.631 98.9602C173.542 98.9366 173.45 98.9331 173.36 98.9498C173.271 98.9665 173.186 99.0031 173.112 99.0569Z" fill="white" stroke="#263238" stroke-linecap="round" stroke-linejoin="round"/>
<path d="M187.359 92.8942L181.725 96.3962L173.739 98.5782L171.652 102.224C171.435 102.603 171.34 103.04 171.379 103.476L171.605 105.876C171.635 106.202 171.74 106.515 171.911 106.793L172.989 108.524C173.188 108.665 173.427 108.741 173.671 108.741C173.915 108.741 174.154 108.665 174.353 108.524C174.076 107.425 173.88 106.307 173.766 105.179C173.876 104.377 174.042 103.584 174.264 102.805C174.264 102.805 174.421 104.919 174.517 105.617C174.612 106.314 175.062 108.524 175.062 108.524C175.183 108.678 175.335 108.807 175.507 108.901C175.679 108.995 175.868 109.053 176.063 109.072C176.259 109.091 176.455 109.069 176.642 109.009C176.829 108.949 177.001 108.851 177.149 108.722C177.004 107.777 176.906 106.825 176.856 105.87C176.953 105.049 177.094 104.233 177.279 103.428C177.279 103.428 177.17 105.48 177.238 106.164C177.306 106.848 177.92 109.125 177.92 109.125C178.129 109.361 178.415 109.514 178.727 109.555C179.039 109.597 179.355 109.524 179.618 109.351C179.452 108.367 179.348 107.373 179.304 106.376C179.347 105.801 179.588 105.259 179.986 104.844C180.893 104.255 182.244 104.591 183.662 102.58L184.078 101.588L190.851 98.5987L187.359 92.8942Z" fill="white" stroke="#263238" stroke-linecap="round" stroke-linejoin="round"/>
<path d="M179.563 63.1195C179.563 63.1195 182.912 61.6079 182.837 64.125C182.837 64.125 209.653 78.6463 208.999 84.433C208.344 90.2196 197.623 96.875 187.734 100.596C187.734 100.596 185.586 96.4919 183.342 94.2279L193.497 85.3701C193.497 85.3701 189.957 84.5835 192.876 84.0773C189.345 81.3903 185.543 79.0796 181.534 77.1826" fill="#F6C647"/>
<path d="M179.563 63.1195C179.563 63.1195 182.912 61.6079 182.837 64.125C182.837 64.125 209.653 78.6463 208.999 84.433C208.344 90.2196 197.623 96.8749 187.734 100.596C187.734 100.596 185.586 96.4919 183.342 94.2279L193.497 85.3701C193.497 85.3701 189.957 84.5835 192.876 84.0773C189.345 81.3903 185.543 79.0796 181.534 77.1826" stroke="#263238" stroke-linecap="round" stroke-linejoin="round"/>
<path d="M194.786 84.4125C193.497 86.3824 197.473 81.9159 205.329 82.7435" stroke="#263238" stroke-linecap="round" stroke-linejoin="round"/>
<path d="M199.942 81.0883C198.438 81.7084 197.014 82.5076 195.7 83.4686" stroke="#263238" stroke-linecap="round" stroke-linejoin="round"/>
<path d="M185.19 91.5945L182.244 94.2826C182.244 94.2826 184.29 94.823 186.452 101.807L190.053 100.227C190.053 100.227 189.364 96.191 185.19 91.5945Z" fill="white" stroke="#263238" stroke-linecap="round" stroke-linejoin="round"/>
<path d="M133.556 94.2414L140.117 95.1853L148.301 93.9746L151.711 96.4849C152.059 96.7461 152.319 97.1093 152.454 97.5246L153.204 99.8091C153.306 100.117 154.002 101.786 154.002 101.786C154.002 101.786 153.579 102.805 152.774 102.326C152.222 101.998 151.833 100.869 151.485 100.096C150.92 99.3469 150.278 98.6591 149.569 98.0444C150.105 98.7439 150.563 99.5009 150.933 100.302C151.138 100.986 151.615 103.181 151.615 103.181C151.615 103.181 150.51 105.363 149.358 104.289C148.832 103.804 148.757 102.531 148.444 101.888C147.937 101.217 147.351 100.611 146.698 100.083C147.134 100.82 147.521 101.586 147.857 102.374C148.155 103.059 148.383 103.771 148.539 104.501C148.539 104.932 148.26 105.514 147.073 105.391C146.904 104.688 146.676 104.002 146.391 103.339C146.124 102.828 145.691 102.425 145.163 102.196C144.099 102.025 142.995 102.88 140.894 101.601L140.117 100.862H132.717L133.556 94.2414Z" fill="white" stroke="#263238" stroke-linecap="round" stroke-linejoin="round"/>
<path d="M147.946 98.3661C148.527 99.1397 149.06 99.9483 149.542 100.787C149.876 101.75 150.149 102.732 150.36 103.729" stroke="#263238" stroke-linecap="round" stroke-linejoin="round"/>
<path d="M118.791 91.9649C118.791 91.9649 123.135 91.5797 125.147 91.9649" stroke="#263238" stroke-linecap="round" stroke-linejoin="round"/>
<path d="M135.233 92.8942L139.066 94.0091C139.066 94.0091 137.47 95.3771 138.596 102.641L134.667 102.805C134.667 102.805 133.508 98.8655 135.233 92.8942Z" fill="white" stroke="#263238" stroke-linecap="round" stroke-linejoin="round"/>
<path d="M128.584 90.2197C126.658 90.5652 124.674 90.3736 122.849 89.6657C122.74 89.6333 122.642 89.5746 122.562 89.4947C122.527 89.451 122.508 89.3967 122.508 89.3408C122.508 89.2848 122.527 89.2306 122.562 89.1869L126.109 89.4878" stroke="#263238" stroke-linecap="round" stroke-linejoin="round"/>
<path d="M143.213 203.066C143.213 203.066 145.757 209.222 151.533 209.181" stroke="#7F7F7F" stroke-linecap="round" stroke-linejoin="round"/>
<path d="M170.991 207.3C170.991 207.3 171.898 210.351 177.947 211.24" stroke="#7F7F7F" stroke-linecap="round" stroke-linejoin="round"/>
<path d="M162.889 163.093L164.171 164.666L164.826 170.104" stroke="#7F7F7F" stroke-linecap="round" stroke-linejoin="round"/>
<path d="M159.86 149.119C160.256 153.134 161.033 159.379 162.302 162.375" stroke="#7F7F7F" stroke-linecap="round" stroke-linejoin="round"/>
<path d="M159.554 145.432C159.554 145.432 159.601 146.164 159.704 147.347L159.554 145.432Z" fill="#F6C647"/>
<path d="M159.554 145.432C159.554 145.432 159.601 146.164 159.704 147.347" stroke="#7F7F7F" stroke-linecap="round" stroke-linejoin="round"/>
<path d="M151.397 56.2454C151.397 56.2454 152.079 56.9704 154.064 56.1907C154.606 56.0023 155.105 55.7067 155.532 55.3213C155.958 54.9359 156.303 54.4687 156.546 53.9471" stroke="#263238" stroke-linecap="round" stroke-linejoin="round"/>
<path d="M154.848 55.7119C154.261 56.136 154.65 54.2755 154.636 53.5505C154.613 53.3262 154.663 53.1004 154.779 52.9075C154.915 52.7734 155.097 52.6982 155.288 52.6982C155.478 52.6982 155.66 52.7734 155.796 52.9075C156.057 53.1868 156.232 53.536 156.3 53.913C156.3 53.913 156.716 54.3781 154.848 55.7119Z" stroke="#263238" stroke-linecap="round" stroke-linejoin="round"/>
<path d="M142.906 211.931C145.5 218.798 149.137 225.221 153.689 230.973" stroke="#7F7F7F" stroke-linecap="round" stroke-linejoin="round"/>
<path d="M156.45 204.735C156.45 204.735 151.479 204.639 151.574 205.522C151.67 206.404 152.809 206.472 153.62 206.349" stroke="#7F7F7F" stroke-linecap="round" stroke-linejoin="round"/>
<path d="M186.336 205.576C185.095 205.952 183.867 206.377 182.667 206.862C182.373 206.978 182.039 207.143 181.985 207.45C181.969 207.545 181.974 207.641 181.997 207.733C182.021 207.825 182.064 207.912 182.123 207.986C182.182 208.061 182.256 208.123 182.341 208.167C182.425 208.211 182.517 208.238 182.612 208.244C183.439 208.346 184.275 208.346 185.101 208.244" stroke="#7F7F7F" stroke-linecap="round" stroke-linejoin="round"/>
<path d="M167.928 176.198C167.309 186.22 167.798 196.279 169.388 206.192" stroke="#7F7F7F" stroke-linecap="round" stroke-linejoin="round"/>
<path d="M176.126 221.972C180.07 229.841 184.493 237.46 189.371 244.783" stroke="#7F7F7F" stroke-linecap="round" stroke-linejoin="round"/>
<path d="M165.003 162.484C168.451 159.429 172.721 157.462 177.279 156.828C177.831 156.752 178.547 156.793 178.725 157.313C178.902 157.833 178.316 158.353 177.797 158.62C175.101 160.015 172.304 161.204 169.429 162.176" stroke="#7F7F7F" stroke-linecap="round" stroke-linejoin="round"/>
<path d="M153.293 157.642C156.238 160.186 159.615 162.179 163.264 163.524" stroke="#7F7F7F" stroke-linecap="round" stroke-linejoin="round"/>
<path d="M137.682 70.5C138.025 74.8402 138.879 79.1244 140.226 83.2634L137.682 70.5Z" fill="#F6C647"/>
<path d="M137.682 70.5C138.025 74.8402 138.879 79.1244 140.226 83.2634" stroke="#263238" stroke-linecap="round" stroke-linejoin="round"/>
<path d="M132.526 70.2675C132.95 72.6403 133.971 74.8652 135.493 76.7313L132.526 70.2675Z" fill="#F6C647"/>
<path d="M132.526 70.2675C132.95 72.6403 133.971 74.8652 135.493 76.7313" stroke="#263238" stroke-linecap="round" stroke-linejoin="round"/>
<path d="M136.297 73.0171C136.691 76.1932 137.959 79.1964 139.96 81.6902L136.297 73.0171Z" fill="#F6C647"/>
<path d="M136.297 73.0171C136.691 76.1932 137.959 79.1964 139.96 81.6902" stroke="#263238" stroke-linecap="round" stroke-linejoin="round"/>
<path d="M184.849 65.3427C186.91 66.9143 188.597 68.9259 189.787 71.2319L184.849 65.3427Z" fill="#F6C647"/>
<path d="M184.849 65.3427C186.91 66.9143 188.597 68.9259 189.787 71.2319" stroke="#263238" stroke-linecap="round" stroke-linejoin="round"/>
<path d="M176.085 72.1621C176.433 73.9205 177.163 75.5802 178.224 77.0227C179.285 78.4652 180.651 79.6549 182.223 80.5069" fill="#F6C647"/>
<path d="M176.085 72.1621C176.433 73.9205 177.163 75.5802 178.224 77.0227C179.285 78.4652 180.651 79.6549 182.223 80.5069" stroke="#263238" stroke-linecap="round" stroke-linejoin="round"/>
<path d="M151.71 86.6628C156.444 89.2142 165.187 93.5439 173.637 95.6643" stroke="#263238" stroke-linecap="round" stroke-linejoin="round"/>
<path d="M148.137 84.645C148.137 84.645 148.73 85.0007 149.787 85.5958" stroke="#263238" stroke-linecap="round" stroke-linejoin="round"/>
<path d="M178.813 70.4247C178.774 71.7592 179.005 73.088 179.494 74.3298C179.983 75.5717 180.719 76.7006 181.657 77.6477" fill="#F6C647"/>
<path d="M178.813 70.4247C178.774 71.7592 179.005 73.088 179.494 74.3298C179.983 75.5717 180.719 76.7006 181.657 77.6477" stroke="#263238" stroke-linecap="round" stroke-linejoin="round"/>
<path d="M156.614 125.76C162.884 127.008 169.321 127.16 175.642 126.212" stroke="#263238" stroke-linecap="round" stroke-linejoin="round"/>
<mask id="mask1_449_499" style="mask-type:luminance" maskUnits="userSpaceOnUse" x="124" y="120" width="68" height="41">
<path d="M191.39 120.603H124.69V160.651H191.39V120.603Z" fill="white"/>
</mask>
<g mask="url(#mask1_449_499)">
<path opacity="0.7" d="M191.39 124.543H124.69V160.644H191.39V124.543Z" fill="white"/>
</g>
<path d="M191.39 120.603H124.69V160.651H191.39V120.603Z" stroke="#263238" stroke-linecap="round" stroke-linejoin="round"/>
<mask id="mask2_449_499" style="mask-type:luminance" maskUnits="userSpaceOnUse" x="191" y="120" width="15" height="41">
<path d="M205.33 120.603H191.39V160.651H205.33V120.603Z" fill="white"/>
</mask>
<g mask="url(#mask2_449_499)">
<path opacity="0.5" d="M205.33 124.543H191.39V160.644H205.33V124.543Z" fill="white"/>
</g>
<path d="M205.33 120.603H191.39V160.651H205.33V120.603Z" stroke="#263238" stroke-linecap="round" stroke-linejoin="round"/>
<path d="M205.33 160.651H124.69V164.16H205.33V160.651Z" fill="#263238"/>
<mask id="mask3_449_499" style="mask-type:luminance" maskUnits="userSpaceOnUse" x="124" y="160" width="82" height="5">
<path d="M205.33 160.651H124.69V164.16H205.33V160.651Z" fill="white"/>
</mask>
<g mask="url(#mask3_449_499)">
<path opacity="0.2" d="M205.33 160.651H124.69V164.16H205.33V160.651Z" fill="white"/>
</g>
<path d="M205.33 160.651H124.69V164.16H205.33V160.651Z" stroke="#263238" stroke-linecap="round" stroke-linejoin="round"/>
<path d="M196.634 124.187H203.761" stroke="#263238" stroke-width="0.75" stroke-linecap="round" stroke-linejoin="round"/>
<path d="M193.292 124.187H195.059" stroke="#263238" stroke-width="0.75" stroke-linecap="round" stroke-linejoin="round"/>
<path d="M183.601 124.187H188.968" stroke="#263238" stroke-width="0.75" stroke-linecap="round" stroke-linejoin="round"/>
<path d="M143.131 124.187H181.419" stroke="#263238" stroke-width="0.75" stroke-linecap="round" stroke-linejoin="round"/>
<path d="M137.825 124.187H141.563" stroke="#263238" stroke-width="0.75" stroke-linecap="round" stroke-linejoin="round"/>
<path d="M126.94 124.187H135.991" stroke="#263238" stroke-width="0.75" stroke-linecap="round" stroke-linejoin="round"/>
<path d="M155.646 127.032C155.63 126.944 155.584 126.864 155.517 126.804C155.449 126.745 155.364 126.711 155.274 126.707C155.185 126.703 155.096 126.73 155.024 126.783C154.951 126.835 154.899 126.912 154.875 126.998C154.193 129.255 152.672 133.072 149.958 135.049C145.948 137.963 146.391 140.446 148.11 142.279C149.828 144.112 143.056 146.041 145.948 149.119C148.839 152.197 153.047 147.224 154.78 149.119C154.78 149.119 161.6 153.818 164.662 150.145C167.724 146.472 161.129 146.725 160.413 142.99C159.697 139.256 162.739 139.509 159.329 135.405C157.092 132.744 156.082 129.16 155.646 127.032Z" fill="#F6C647"/>
<path d="M149.767 138.373C148.178 138.052 145.259 140.288 145.218 142.99C145.177 145.692 146.534 145.439 147.489 147.778C148.444 150.118 147.012 152.505 150.422 152.901C153.832 153.298 154.48 151.321 157.099 152.901C159.718 154.481 158.81 150.302 159.329 147.334C159.847 144.365 158.354 148.825 155.175 147.908C151.997 146.992 150.156 147.511 150.026 144.885C149.897 142.258 148.662 143.449 148.11 142.265C147.557 141.082 151.247 138.674 149.767 138.373Z" fill="#F6C647"/>
<path opacity="0.1" d="M149.767 138.373C148.178 138.052 145.259 140.288 145.218 142.99C145.177 145.692 146.534 145.439 147.489 147.778C148.444 150.118 147.012 152.505 150.422 152.901C153.832 153.298 154.48 151.321 157.099 152.901C159.718 154.481 158.81 150.302 159.329 147.334C159.847 144.365 158.354 148.825 155.175 147.908C151.997 146.992 150.156 147.511 150.026 144.885C149.897 142.258 148.662 143.449 148.11 142.265C147.557 141.082 151.247 138.674 149.767 138.373Z" fill="black"/>
<path d="M153.136 145.801C153.136 145.801 157.262 147.484 158.312 145.801C159.363 144.119 161.04 143.065 160.358 141.157C159.676 139.249 166.585 146.896 157.719 149.119C148.853 151.342 151.52 145.302 153.136 145.801Z" fill="#F6C647"/>
<path opacity="0.2" d="M153.136 145.801C153.136 145.801 157.262 147.484 158.312 145.801C159.363 144.119 161.04 143.065 160.358 141.157C159.676 139.249 166.585 146.896 157.719 149.119C148.853 151.342 151.52 145.302 153.136 145.801Z" fill="black"/>
<path d="M166.381 127.696C164.717 129.31 165.017 133.339 161.866 135.795C158.715 138.25 163.012 141.212 163.012 141.212C163.012 141.212 158.64 141.663 158.292 144.304C157.944 146.944 162.828 146.397 161.17 148.654C159.513 150.911 163.421 152.532 165.092 152.375C166.763 152.217 168.065 148.134 170.95 149.789C173.835 151.445 177.136 149.269 176.986 147.101C176.836 144.933 173.576 143.524 173.474 141.212C173.371 138.9 174.231 136.232 171.891 135.453C169.552 134.673 167.458 126.65 166.381 127.696Z" fill="#263238"/>
<path opacity="0.2" d="M164.989 135.104C163.339 135.788 161.709 139.208 164.164 142.21C166.619 145.213 168.536 139.748 170.479 140.282C172.423 140.815 168.74 137.546 166.865 139.119C164.989 140.692 166.967 134.297 164.989 135.104Z" fill="white"/>
<path opacity="0.1" d="M173.344 144.187C173.344 144.187 173.412 147.915 170.479 147.799C167.547 147.682 166.749 150.535 164.594 149.789C162.439 149.044 162.93 145.774 161.866 145.774C162.335 145.703 162.815 145.789 163.23 146.019C163.646 146.249 163.974 146.61 164.164 147.046C164.846 148.613 166.381 148.038 168.004 147.046C169.627 146.055 169.982 146.985 171.025 146.28C171.863 145.658 172.639 144.957 173.344 144.187Z" fill="white"/>
<path d="M92.8283 128.223L88.6895 128.769L91.7633 152.246L95.9022 151.701L92.8283 128.223Z" fill="#F6C647"/>
<mask id="mask4_449_499" style="mask-type:luminance" maskUnits="userSpaceOnUse" x="88" y="128" width="8" height="25">
<path d="M92.8283 128.223L88.6895 128.769L91.7633 152.246L95.9022 151.701L92.8283 128.223Z" fill="white"/>
</mask>
<g mask="url(#mask4_449_499)">
<path opacity="0.3" d="M92.8283 128.223L88.6895 128.769L91.7633 152.246L95.9022 151.701L92.8283 128.223Z" fill="black"/>
</g>
<path d="M92.8283 128.223L88.6895 128.769L91.7633 152.246L95.9022 151.701L92.8283 128.223Z" stroke="#263238" stroke-width="0.748874" stroke-linecap="round" stroke-linejoin="round"/>
<path d="M96.5558 128.496L92.4082 129.022L95.3758 152.549L99.5234 152.023L96.5558 128.496Z" fill="#F6C647" stroke="#263238" stroke-width="0.75" stroke-linecap="round" stroke-linejoin="round"/>
<path d="M92.4106 129.016L93.27 119.119L96.5572 128.489L92.4106 129.016Z" fill="#F6C647" stroke="#263238" stroke-width="0.75" stroke-linecap="round" stroke-linejoin="round"/>
<path d="M88.2642 129.543L93.27 119.119L92.4107 129.016L88.2642 129.543Z" fill="#F6C647" stroke="#263238" stroke-width="0.75" stroke-linecap="round" stroke-linejoin="round"/>
<path d="M100.697 127.963L93.27 119.119L96.5573 128.489L100.697 127.963Z" fill="#F6C647"/>
<mask id="mask5_449_499" style="mask-type:luminance" maskUnits="userSpaceOnUse" x="93" y="119" width="8" height="10">
<path d="M100.697 127.963L93.27 119.119L96.5573 128.489L100.697 127.963Z" fill="white"/>
</mask>
<g mask="url(#mask5_449_499)">
<path opacity="0.5" d="M100.697 127.963L93.27 119.119L96.5573 128.489L100.697 127.963Z" fill="white"/>
</g>
<path d="M100.697 127.963L93.27 119.119L96.5573 128.489L100.697 127.963Z" stroke="#263238" stroke-width="0.75" stroke-linecap="round" stroke-linejoin="round"/>
<path d="M99.524 152.019L98.6647 161.917L95.3774 152.539L99.524 152.019Z" fill="#F6C647" stroke="#263238" stroke-width="0.75" stroke-linecap="round" stroke-linejoin="round"/>
<path d="M103.67 151.492L98.6646 161.917L99.5239 152.019L103.67 151.492Z" fill="#F6C647" stroke="#263238" stroke-width="0.75" stroke-linecap="round" stroke-linejoin="round"/>
<path d="M91.231 153.066L98.6648 161.917L95.3775 152.539L91.231 153.066Z" fill="#F6C647"/>
<mask id="mask6_449_499" style="mask-type:luminance" maskUnits="userSpaceOnUse" x="91" y="152" width="8" height="10">
<path d="M91.231 153.066L98.6648 161.917L95.3775 152.539L91.231 153.066Z" fill="white"/>
</mask>
<g mask="url(#mask6_449_499)">
<path opacity="0.3" d="M91.231 153.066L98.6648 161.917L95.3775 152.539L91.231 153.066Z" fill="black"/>
</g>
<path d="M91.231 153.066L98.6648 161.917L95.3775 152.539L91.231 153.066Z" stroke="#263238" stroke-width="0.75" stroke-linecap="round" stroke-linejoin="round"/>
<path d="M100.699 127.964L96.5518 128.491L99.5193 152.017L103.667 151.491L100.699 127.964Z" fill="#F6C647"/>
<mask id="mask7_449_499" style="mask-type:luminance" maskUnits="userSpaceOnUse" x="96" y="127" width="8" height="26">
<path d="M100.699 127.964L96.5518 128.491L99.5193 152.017L103.667 151.491L100.699 127.964Z" fill="white"/>
</mask>
<g mask="url(#mask7_449_499)">
<path opacity="0.5" d="M100.699 127.964L96.5518 128.491L99.5193 152.017L103.667 151.491L100.699 127.964Z" fill="white"/>
</g>
<path d="M100.699 127.964L96.5518 128.491L99.5193 152.017L103.667 151.491L100.699 127.964Z" stroke="#263238" stroke-width="0.75" stroke-linecap="round" stroke-linejoin="round"/>
<path d="M110.3 154.051L113.364 154.979L118.601 137.591L115.537 136.663L110.3 154.051Z" fill="#F6C647"/>
<mask id="mask8_449_499" style="mask-type:luminance" maskUnits="userSpaceOnUse" x="110" y="136" width="9" height="19">
<path d="M110.3 154.051L113.364 154.979L118.601 137.591L115.537 136.663L110.3 154.051Z" fill="white"/>
</mask>
<g mask="url(#mask8_449_499)">
<path opacity="0.3" d="M110.3 154.051L113.364 154.979L118.601 137.591L115.537 136.663L110.3 154.051Z" fill="black"/>
</g>
<path d="M110.3 154.051L113.364 154.979L118.601 137.591L115.537 136.663L110.3 154.051Z" stroke="#263238" stroke-width="0.752135" stroke-linecap="round" stroke-linejoin="round"/>
<path d="M108.12 153.353L111.172 154.289L116.452 136.968L113.4 136.032L108.12 153.353Z" fill="#F6C647" stroke="#263238" stroke-width="0.75" stroke-linecap="round" stroke-linejoin="round"/>
<path d="M116.438 136.978L117.072 129.413L113.382 136.041L116.438 136.978Z" fill="#F6C647" stroke="#263238" stroke-width="0.75" stroke-linecap="round" stroke-linejoin="round"/>
<path d="M119.486 137.915L117.072 129.413L116.438 136.978L119.486 137.915Z" fill="#F6C647" stroke="#263238" stroke-width="0.75" stroke-linecap="round" stroke-linejoin="round"/>
<path d="M110.334 135.104L117.072 129.413L113.383 136.041L110.334 135.104Z" fill="#F6C647"/>
<mask id="mask9_449_499" style="mask-type:luminance" maskUnits="userSpaceOnUse" x="110" y="129" width="8" height="8">
<path d="M110.334 135.104L117.072 129.413L113.383 136.041L110.334 135.104Z" fill="white"/>
</mask>
<g mask="url(#mask9_449_499)">
<path opacity="0.5" d="M110.334 135.104L117.072 129.413L113.383 136.041L110.334 135.104Z" fill="white"/>
</g>
<path d="M110.334 135.104L117.072 129.413L113.383 136.041L110.334 135.104Z" stroke="#263238" stroke-width="0.75" stroke-linecap="round" stroke-linejoin="round"/>
<path d="M108.104 153.36L107.469 160.925L111.159 154.297L108.104 153.36Z" fill="#F6C647" stroke="#263238" stroke-width="0.75" stroke-linecap="round" stroke-linejoin="round"/>
<path d="M105.055 152.429L107.469 160.925L108.104 153.36L105.055 152.429Z" fill="#F6C647" stroke="#263238" stroke-width="0.75" stroke-linecap="round" stroke-linejoin="round"/>
<path d="M114.207 155.234L107.469 160.925L111.159 154.297L114.207 155.234Z" fill="#F6C647"/>
<mask id="mask10_449_499" style="mask-type:luminance" maskUnits="userSpaceOnUse" x="107" y="154" width="8" height="7">
<path d="M114.207 155.234L107.469 160.925L111.159 154.297L114.207 155.234Z" fill="white"/>
</mask>
<g mask="url(#mask10_449_499)">
<path opacity="0.3" d="M114.207 155.234L107.469 160.925L111.159 154.297L114.207 155.234Z" fill="black"/>
</g>
<path d="M114.207 155.234L107.469 160.925L111.159 154.297L114.207 155.234Z" stroke="#263238" stroke-width="0.75" stroke-linecap="round" stroke-linejoin="round"/>
<path d="M105.054 152.421L108.106 153.357L113.386 136.036L110.334 135.1L105.054 152.421Z" fill="#F6C647"/>
<mask id="mask11_449_499" style="mask-type:luminance" maskUnits="userSpaceOnUse" x="105" y="135" width="9" height="19">
<path d="M105.054 152.421L108.106 153.357L113.386 136.036L110.334 135.1L105.054 152.421Z" fill="white"/>
</mask>
<g mask="url(#mask11_449_499)">
<path opacity="0.5" d="M105.054 152.421L108.106 153.357L113.386 136.036L110.334 135.1L105.054 152.421Z" fill="white"/>
</g>
<path d="M105.054 152.421L108.106 153.357L113.386 136.036L110.334 135.1L105.054 152.421Z" stroke="#263238" stroke-width="0.75" stroke-linecap="round" stroke-linejoin="round"/>
<path d="M74.9545 154.007L74.126 155.54L80.3802 158.939L81.2087 157.405L74.9545 154.007Z" fill="#F6C647" stroke="#263238" stroke-width="0.75" stroke-linecap="round" stroke-linejoin="round"/>
<path d="M75.7936 152.455L74.9653 153.988L81.2201 157.386L82.0484 155.852L75.7936 152.455Z" fill="#F6C647" stroke="#263238" stroke-width="0.75" stroke-linecap="round" stroke-linejoin="round"/>
<path d="M74.9585 153.996L71.8281 151.301L75.7905 152.457L74.9585 153.996Z" fill="#F6C647" stroke="#263238" stroke-width="0.75" stroke-linecap="round" stroke-linejoin="round"/>
<path d="M74.1333 155.535L71.8281 151.301L74.9585 153.996L74.1333 155.535Z" fill="#F6C647" stroke="#263238" stroke-width="0.75" stroke-linecap="round" stroke-linejoin="round"/>
<path d="M76.6226 150.925L71.8281 151.301L75.7905 152.457L76.6226 150.925Z" fill="#F6C647" stroke="#263238" stroke-width="0.75" stroke-linecap="round" stroke-linejoin="round"/>
<path d="M82.0444 155.856L85.1816 158.558L81.2124 157.395L82.0444 155.856Z" fill="#F6C647" stroke="#263238" stroke-width="0.75" stroke-linecap="round" stroke-linejoin="round"/>
<path d="M82.8765 154.324L85.1816 158.558L82.0444 155.856L82.8765 154.324Z" fill="#F6C647" stroke="#263238" stroke-width="0.75" stroke-linecap="round" stroke-linejoin="round"/>
<path d="M80.3872 158.934L85.1817 158.558L81.2124 157.395L80.3872 158.934Z" fill="#F6C647" stroke="#263238" stroke-width="0.75" stroke-linecap="round" stroke-linejoin="round"/>
<path d="M76.6207 150.913L75.7925 152.447L82.0473 155.844L82.8755 154.31L76.6207 150.913Z" fill="#F6C647" stroke="#263238" stroke-width="0.75" stroke-linecap="round" stroke-linejoin="round"/>
<path d="M82.0101 164.632H113.103L116.028 157.874L112.004 155.692L108.71 156.882L104.728 150.172L99.0192 150.658L97.4165 155.692L94.0815 154.591L90.7875 158.975L82.0101 157.874L77.9863 159.762L82.0101 164.632Z" fill="#263238" stroke="#263238" stroke-linecap="round" stroke-linejoin="round"/>
<path d="M89.9797 155.029L92.6289 153.244L82.5564 138.21L79.9072 139.996L89.9797 155.029Z" fill="#F6C647"/>
<mask id="mask12_449_499" style="mask-type:luminance" maskUnits="userSpaceOnUse" x="79" y="138" width="14" height="18">
<path d="M89.9797 155.029L92.6289 153.244L82.5564 138.21L79.9072 139.996L89.9797 155.029Z" fill="white"/>
</mask>
<g mask="url(#mask12_449_499)">
<path opacity="0.3" d="M89.9797 155.029L92.6289 153.244L82.5564 138.21L79.9072 139.996L89.9797 155.029Z" fill="black"/>
</g>
<path d="M89.9797 155.029L92.6289 153.244L82.5564 138.21L79.9072 139.996L89.9797 155.029Z" stroke="#263238" stroke-width="0.75" stroke-linecap="round" stroke-linejoin="round"/>
<path d="M87.3298 156.814L89.979 155.029L79.9065 139.995L77.2573 141.781L87.3298 156.814Z" fill="#F6C647" stroke="#263238" stroke-width="0.75" stroke-linecap="round" stroke-linejoin="round"/>
<path d="M79.9028 140.008L74.4536 134.741L77.2498 141.793L79.9028 140.008Z" fill="#F6C647" stroke="#263238" stroke-width="0.75" stroke-linecap="round" stroke-linejoin="round"/>
<path d="M82.5489 138.223L74.4536 134.741L79.9028 140.008L82.5489 138.223Z" fill="#F6C647" stroke="#263238" stroke-width="0.75" stroke-linecap="round" stroke-linejoin="round"/>
<path d="M74.6037 143.578L74.4536 134.741L77.2498 141.793L74.6037 143.578Z" fill="#F6C647"/>
<mask id="mask13_449_499" style="mask-type:luminance" maskUnits="userSpaceOnUse" x="74" y="134" width="4" height="10">
<path d="M74.6037 143.578L74.4536 134.741L77.2498 141.793L74.6037 143.578Z" fill="white"/>
</mask>
<g mask="url(#mask13_449_499)">
<path opacity="0.5" d="M74.6037 143.578L74.4536 134.741L77.2498 141.793L74.6037 143.578Z" fill="white"/>
</g>
<path d="M74.6037 143.578L74.4536 134.741L77.2498 141.793L74.6037 143.578Z" stroke="#263238" stroke-width="0.75" stroke-linecap="round" stroke-linejoin="round"/>
<path d="M87.3232 156.821L92.7724 162.088L89.9762 155.035L87.3232 156.821Z" fill="#F6C647" stroke="#263238" stroke-width="0.75" stroke-linecap="round" stroke-linejoin="round"/>
<path d="M84.6768 158.606L92.7721 162.087L87.3229 156.821L84.6768 158.606Z" fill="#F6C647" stroke="#263238" stroke-width="0.75" stroke-linecap="round" stroke-linejoin="round"/>
<path d="M92.6222 153.257L92.7723 162.088L89.9761 155.035L92.6222 153.257Z" fill="#F6C647"/>
<mask id="mask14_449_499" style="mask-type:luminance" maskUnits="userSpaceOnUse" x="89" y="153" width="4" height="10">
<path d="M92.6222 153.257L92.7723 162.088L89.9761 155.035L92.6222 153.257Z" fill="white"/>
</mask>
<g mask="url(#mask14_449_499)">
<path opacity="0.3" d="M92.6222 153.257L92.7723 162.088L89.9761 155.035L92.6222 153.257Z" fill="black"/>
</g>
<path d="M92.6222 153.257L92.7723 162.088L89.9761 155.035L92.6222 153.257Z" stroke="#263238" stroke-width="0.75" stroke-linecap="round" stroke-linejoin="round"/>
<path d="M84.6731 158.606L87.3223 156.821L77.2498 141.787L74.6005 143.573L84.6731 158.606Z" fill="#F6C647"/>
<mask id="mask15_449_499" style="mask-type:luminance" maskUnits="userSpaceOnUse" x="74" y="141" width="14" height="18">
<path d="M84.6731 158.606L87.3223 156.821L77.2498 141.787L74.6005 143.573L84.6731 158.606Z" fill="white"/>
</mask>
<g mask="url(#mask15_449_499)">
<path opacity="0.5" d="M84.6731 158.606L87.3223 156.821L77.2498 141.787L74.6005 143.573L84.6731 158.606Z" fill="white"/>
</g>
<path d="M84.6731 158.606L87.3223 156.821L77.2498 141.787L74.6005 143.573L84.6731 158.606Z" stroke="#263238" stroke-width="0.75" stroke-linecap="round" stroke-linejoin="round"/>
<path opacity="0.3" d="M98.6646 161.916L95.9639 159.454L102.743 153.414L105.798 155.035L105.055 157.669L102.266 157.142L98.6646 161.916Z" fill="white"/>
<path opacity="0.3" d="M109.222 159.454L112.823 158.161L114.208 159.454L113.382 161.917L111.711 160.761L109.311 160.925L109.222 159.454Z" fill="white"/>
<path opacity="0.3" d="M84.6768 160.042L82.0443 158.934L79.9028 160.042L82.2898 160.925L84.6768 160.042Z" fill="white"/>
<path d="M111.159 129.515C111.841 129.515 113.151 127.648 113.151 127.648C113.151 127.648 112.196 129.7 112.537 130.309C112.878 130.918 115.142 131.109 115.142 131.109C115.142 131.109 112.878 131.321 112.537 131.909C112.196 132.498 113.151 134.57 113.151 134.57C113.151 134.57 111.841 132.71 111.159 132.71C110.477 132.71 109.168 134.57 109.168 134.57C109.168 134.57 110.116 132.518 109.775 131.909C109.434 131.301 107.176 131.109 107.176 131.109C107.176 131.109 109.434 130.904 109.775 130.309C110.116 129.714 109.168 127.648 109.168 127.648C109.168 127.648 110.477 129.515 111.159 129.515Z" fill="white"/>
<path d="M112.625 133.175C112.772 133.641 112.948 134.098 113.151 134.543C113.151 134.543 111.841 132.682 111.159 132.682C110.477 132.682 109.168 134.543 109.168 134.543C109.168 134.543 110.116 132.491 109.775 131.882C109.434 131.273 107.176 131.082 107.176 131.082C107.927 131.018 108.665 130.855 109.372 130.596" stroke="#263238" stroke-width="0.75" stroke-linecap="round" stroke-linejoin="round"/>
<path d="M112.68 128.257C112.959 127.922 113.15 127.648 113.15 127.648C113.15 127.648 112.195 129.7 112.536 130.309C112.877 130.918 115.142 131.109 115.142 131.109C115.142 131.109 112.877 131.321 112.536 131.909C112.479 132.038 112.453 132.179 112.461 132.32" stroke="#263238" stroke-width="0.75" stroke-linecap="round" stroke-linejoin="round"/>
<path d="M109.774 130.309C110.115 129.721 109.167 127.648 109.167 127.648C109.167 127.648 110.477 129.515 111.159 129.515C111.473 129.515 111.923 129.119 112.312 128.688" stroke="#263238" stroke-width="0.75" stroke-linecap="round" stroke-linejoin="round"/>
<path d="M87.3232 127.429C88.0052 127.429 89.3146 125.562 89.3146 125.562C89.3146 125.562 88.3667 127.614 88.7077 128.223C89.0487 128.831 91.3129 129.023 91.3129 129.023C91.3129 129.023 89.0487 129.235 88.7077 129.823C88.3667 130.411 89.3146 132.484 89.3146 132.484C89.3146 132.484 88.0052 130.623 87.3232 130.623C86.6412 130.623 85.3318 132.484 85.3318 132.484C85.3318 132.484 86.2866 130.432 85.9456 129.823C85.6046 129.214 83.3403 129.023 83.3403 129.023C83.3403 129.023 85.6046 128.818 85.9456 128.223C86.2866 127.628 85.3318 125.562 85.3318 125.562C85.3318 125.562 86.648 127.429 87.3232 127.429Z" fill="white"/>
<path d="M88.7963 131.089C88.939 131.555 89.1121 132.012 89.3146 132.457C89.3146 132.457 88.0052 130.596 87.3232 130.596C86.6412 130.596 85.3318 132.457 85.3318 132.457C85.3318 132.457 86.2866 130.405 85.9456 129.796C85.6046 129.187 83.3403 128.996 83.3403 128.996C84.0928 128.932 84.8336 128.769 85.5432 128.51" stroke="#263238" stroke-width="0.75" stroke-linecap="round" stroke-linejoin="round"/>
<path d="M88.8507 126.171C89.1235 125.835 89.3145 125.562 89.3145 125.562C89.3145 125.562 88.3665 127.614 88.7075 128.223C89.0485 128.831 91.3127 129.023 91.3127 129.023C91.3127 129.023 89.0485 129.235 88.7075 129.823C88.6437 129.95 88.6176 130.092 88.6325 130.234" stroke="#263238" stroke-width="0.75" stroke-linecap="round" stroke-linejoin="round"/>
<path d="M85.9453 128.223C86.2863 127.634 85.3315 125.562 85.3315 125.562C85.3315 125.562 86.6478 127.429 87.323 127.429C87.6367 127.429 88.0868 127.032 88.4824 126.602" stroke="#263238" stroke-width="0.75" stroke-linecap="round" stroke-linejoin="round"/>
<path d="M75.9541 279.12H74.5083C74.3623 279.121 74.2176 279.093 74.0823 279.038C73.9471 278.982 73.8241 278.901 73.7202 278.798C73.6163 278.695 73.5337 278.573 73.477 278.438C73.4203 278.303 73.3907 278.158 73.3898 278.012L72.6123 179.051H77.8501L77.0726 278.005C77.0708 278.301 76.9522 278.585 76.7426 278.794C76.533 279.003 76.2496 279.12 75.9541 279.12Z" fill="#757575"/>
<mask id="mask16_449_499" style="mask-type:luminance" maskUnits="userSpaceOnUse" x="72" y="179" width="6" height="101">
<path d="M75.9541 279.12H74.5083C74.3623 279.121 74.2176 279.093 74.0823 279.038C73.9471 278.982 73.8241 278.901 73.7202 278.798C73.6163 278.695 73.5337 278.573 73.477 278.438C73.4203 278.303 73.3907 278.158 73.3898 278.012L72.6123 179.051H77.8501L77.0726 278.005C77.0708 278.301 76.9522 278.585 76.7426 278.794C76.533 279.003 76.2496 279.12 75.9541 279.12Z" fill="white"/>
</mask>
<g mask="url(#mask16_449_499)">
<path d="M75.9541 279.12H74.5083C74.3623 279.121 74.2176 279.093 74.0823 279.038C73.9471 278.982 73.8241 278.901 73.7202 278.798C73.6163 278.695 73.5337 278.573 73.477 278.438C73.4203 278.303 73.3907 278.158 73.3898 278.012L72.6123 179.051H77.8501L77.0726 278.005C77.0708 278.301 76.9522 278.585 76.7426 278.794C76.533 279.003 76.2496 279.12 75.9541 279.12Z" fill="#5C5C5C" stroke="#263238" stroke-linecap="round" stroke-linejoin="round"/>
</g>
<path d="M75.9541 279.12H74.5083C74.3623 279.121 74.2176 279.093 74.0823 279.038C73.9471 278.982 73.8241 278.901 73.7202 278.798C73.6163 278.695 73.5337 278.573 73.477 278.438C73.4203 278.303 73.3907 278.158 73.3898 278.012L72.6123 179.051H77.8501L77.0726 278.005C77.0708 278.301 76.9522 278.585 76.7426 278.794C76.533 279.003 76.2496 279.12 75.9541 279.12Z" stroke="#263238" stroke-linecap="round" stroke-linejoin="round"/>
<path d="M73.3423 275.139V278.005C73.3432 278.151 73.3728 278.296 73.4295 278.431C73.4862 278.566 73.5688 278.688 73.6727 278.791C73.7766 278.894 73.8996 278.976 74.0348 279.031C74.17 279.086 74.3148 279.114 74.4608 279.113H75.9066C76.2009 279.113 76.4833 278.997 76.6927 278.789C76.9021 278.582 77.0215 278.3 77.0251 278.005V275.139H73.3423Z" fill="#F6C647" stroke="#263238" stroke-miterlimit="10"/>
<path d="M96.9326 279.12H95.4868C95.1925 279.12 94.91 279.004 94.7007 278.796C94.4913 278.589 94.3719 278.307 94.3683 278.012L93.5908 179.051H98.8286L98.0511 278.005C98.0493 278.301 97.9307 278.585 97.7211 278.794C97.5115 279.003 97.2281 279.12 96.9326 279.12Z" fill="#5C5C5C"/>
<mask id="mask17_449_499" style="mask-type:luminance" maskUnits="userSpaceOnUse" x="93" y="179" width="6" height="101">
<path d="M96.9326 279.12H95.4868C95.1925 279.12 94.91 279.004 94.7007 278.796C94.4913 278.589 94.3719 278.307 94.3683 278.012L93.5908 179.051H98.8286L98.0511 278.005C98.0493 278.301 97.9307 278.585 97.7211 278.794C97.5115 279.003 97.2281 279.12 96.9326 279.12Z" fill="white"/>
</mask>
<g mask="url(#mask17_449_499)">
<path d="M96.9326 279.12H95.4868C95.1925 279.12 94.91 279.004 94.7007 278.796C94.4913 278.589 94.3719 278.307 94.3683 278.012L93.5908 179.051H98.8286L98.0511 278.005C98.0493 278.301 97.9307 278.585 97.7211 278.794C97.5115 279.003 97.2281 279.12 96.9326 279.12Z" fill="#5C5C5C" stroke="#263238" stroke-linecap="round" stroke-linejoin="round"/>
</g>
<path d="M96.9326 279.12H95.4868C95.1925 279.12 94.91 279.004 94.7007 278.796C94.4913 278.589 94.3719 278.307 94.3683 278.012L93.5908 179.051H98.8286L98.0511 278.005C98.0493 278.301 97.9307 278.585 97.7211 278.794C97.5115 279.003 97.2281 279.12 96.9326 279.12Z" stroke="#263238" stroke-linecap="round" stroke-linejoin="round"/>
<path d="M94.3477 275.139V278.005C94.3512 278.3 94.4707 278.582 94.68 278.789C94.8894 278.997 95.1718 279.113 95.4661 279.113H96.912C97.2063 279.113 97.4887 278.997 97.6981 278.789C97.9074 278.582 98.0269 278.3 98.0305 278.005V275.139H94.3477Z" fill="#F6C647" stroke="#263238" stroke-miterlimit="10"/>
<path d="M239.948 279.12H238.502C238.208 279.12 237.925 279.004 237.716 278.796C237.506 278.589 237.387 278.307 237.383 278.012L236.606 179.051H241.844L241.066 278.005C241.066 278.152 241.037 278.298 240.981 278.433C240.925 278.569 240.842 278.692 240.738 278.796C240.634 278.899 240.511 278.981 240.375 279.037C240.24 279.093 240.094 279.121 239.948 279.12Z" fill="#5C5C5C"/>
<mask id="mask18_449_499" style="mask-type:luminance" maskUnits="userSpaceOnUse" x="236" y="179" width="6" height="101">
<path d="M239.948 279.12H238.502C238.208 279.12 237.925 279.004 237.716 278.796C237.506 278.589 237.387 278.307 237.383 278.012L236.606 179.051H241.844L241.066 278.005C241.066 278.152 241.037 278.298 240.981 278.433C240.925 278.569 240.842 278.692 240.738 278.796C240.634 278.899 240.511 278.981 240.375 279.037C240.24 279.093 240.094 279.121 239.948 279.12Z" fill="white"/>
</mask>
<g mask="url(#mask18_449_499)">
<path d="M239.948 279.12H238.502C238.208 279.12 237.925 279.004 237.716 278.796C237.506 278.589 237.387 278.307 237.383 278.012L236.606 179.051H241.844L241.066 278.005C241.066 278.152 241.037 278.298 240.981 278.433C240.925 278.569 240.842 278.692 240.738 278.796C240.634 278.899 240.511 278.981 240.375 279.037C240.24 279.093 240.094 279.121 239.948 279.12Z" fill="#5C5C5C" stroke="#263238" stroke-linecap="round" stroke-linejoin="round"/>
</g>
<path d="M239.948 279.12H238.502C238.208 279.12 237.925 279.004 237.716 278.796C237.506 278.589 237.387 278.307 237.383 278.012L236.606 179.051H241.844L241.066 278.005C241.066 278.152 241.037 278.298 240.981 278.433C240.925 278.569 240.842 278.692 240.738 278.796C240.634 278.899 240.511 278.981 240.375 279.037C240.24 279.093 240.094 279.121 239.948 279.12Z" stroke="#263238" stroke-linecap="round" stroke-linejoin="round"/>
<path d="M260.933 279.12H259.48C259.186 279.12 258.904 279.004 258.694 278.796C258.485 278.589 258.366 278.307 258.362 278.012L257.584 179.051H262.829L262.045 278.005C262.046 278.152 262.018 278.297 261.962 278.433C261.906 278.568 261.825 278.692 261.721 278.795C261.618 278.899 261.495 278.981 261.36 279.037C261.224 279.093 261.079 279.121 260.933 279.12Z" fill="#757575"/>
<mask id="mask19_449_499" style="mask-type:luminance" maskUnits="userSpaceOnUse" x="257" y="179" width="6" height="101">
<path d="M260.933 279.12H259.48C259.186 279.12 258.904 279.004 258.694 278.796C258.485 278.589 258.366 278.307 258.362 278.012L257.584 179.051H262.829L262.045 278.005C262.046 278.152 262.018 278.297 261.962 278.433C261.906 278.568 261.825 278.692 261.721 278.795C261.618 278.899 261.495 278.981 261.36 279.037C261.224 279.093 261.079 279.121 260.933 279.12Z" fill="white"/>
</mask>
<g mask="url(#mask19_449_499)">
<path d="M260.933 279.12H259.48C259.186 279.12 258.904 279.004 258.694 278.796C258.485 278.589 258.366 278.307 258.362 278.012L257.584 179.051H262.829L262.045 278.005C262.046 278.152 262.018 278.297 261.962 278.433C261.906 278.568 261.825 278.692 261.721 278.795C261.618 278.899 261.495 278.981 261.36 279.037C261.224 279.093 261.079 279.121 260.933 279.12Z" fill="#5C5C5C" stroke="#263238" stroke-linecap="round" stroke-linejoin="round"/>
</g>
<path d="M260.933 279.12H259.48C259.186 279.12 258.904 279.004 258.694 278.796C258.485 278.589 258.366 278.307 258.362 278.012L257.584 179.051H262.829L262.045 278.005C262.046 278.152 262.018 278.297 261.962 278.433C261.906 278.568 261.825 278.692 261.721 278.795C261.618 278.899 261.495 278.981 261.36 279.037C261.224 279.093 261.079 279.121 260.933 279.12Z" stroke="#263238" stroke-linecap="round" stroke-linejoin="round"/>
<path d="M237.363 275.139V278.005C237.367 278.3 237.486 278.582 237.696 278.789C237.905 278.997 238.187 279.113 238.482 279.113H239.928C240.074 279.114 240.218 279.086 240.354 279.031C240.489 278.976 240.612 278.894 240.716 278.791C240.82 278.688 240.902 278.566 240.959 278.431C241.016 278.296 241.045 278.151 241.046 278.005V275.139H237.363Z" fill="#F6C647" stroke="#263238" stroke-miterlimit="10"/>
<path d="M258.341 275.139V278.005C258.345 278.3 258.464 278.582 258.674 278.789C258.883 278.997 259.165 279.113 259.46 279.113H260.912C261.058 279.114 261.203 279.086 261.337 279.031C261.472 278.975 261.595 278.894 261.698 278.791C261.801 278.688 261.883 278.566 261.939 278.431C261.995 278.296 262.024 278.151 262.024 278.005V275.139H258.341Z" fill="#F6C647" stroke="#263238" stroke-miterlimit="10"/>
<path d="M263.982 167.744H71.8213V181.547H263.982V167.744Z" fill="#999999" stroke="#263238" stroke-linecap="round" stroke-linejoin="round"/>
<path d="M71.6371 164.208H264.855C265.348 164.208 265.822 164.405 266.171 164.755C266.52 165.105 266.716 165.58 266.716 166.075V167.539C266.716 168.216 266.448 168.865 265.971 169.343C265.494 169.821 264.847 170.09 264.173 170.09H71.6371C70.9625 170.09 70.3154 169.821 69.8383 169.343C69.3613 168.865 69.0933 168.216 69.0933 167.539V166.759C69.0933 166.083 69.3613 165.434 69.8383 164.955C70.3154 164.477 70.9625 164.208 71.6371 164.208Z" fill="#BFBFBF"/>
<path d="M71.6371 164.208H264.855C265.348 164.208 265.822 164.405 266.171 164.755C266.52 165.105 266.716 165.58 266.716 166.075V167.539C266.716 168.216 266.448 168.865 265.971 169.343C265.494 169.821 264.847 170.09 264.173 170.09H71.6371C70.9625 170.09 70.3154 169.821 69.8383 169.343C69.3613 168.865 69.0933 168.216 69.0933 167.539V166.759C69.0933 166.083 69.3613 165.434 69.8383 164.955C70.3154 164.477 70.9625 164.208 71.6371 164.208Z" stroke="#263238" stroke-miterlimit="10"/>
<path d="M196.818 149.625V162.046C196.818 162.602 197.038 163.134 197.43 163.526C197.821 163.919 198.352 164.139 198.905 164.139H211.106C211.66 164.139 212.191 163.919 212.582 163.526C212.973 163.134 213.193 162.602 213.193 162.046V149.625H196.818Z" fill="#F6C647"/>
<mask id="mask20_449_499" style="mask-type:luminance" maskUnits="userSpaceOnUse" x="196" y="137" width="19" height="28">
<path d="M214.571 137.976C214.651 137.973 214.731 137.994 214.799 138.038C214.867 138.082 214.92 138.146 214.95 138.221C214.98 138.296 214.986 138.379 214.967 138.458C214.948 138.537 214.905 138.607 214.844 138.66L213.2 140.268V162.026C213.203 162.303 213.15 162.578 213.046 162.835C212.942 163.092 212.788 163.325 212.594 163.522C212.399 163.718 212.167 163.874 211.912 163.98C211.656 164.086 211.383 164.14 211.106 164.139H198.898C198.345 164.139 197.814 163.919 197.423 163.526C197.031 163.134 196.812 162.602 196.812 162.046V137.976H214.571Z" fill="white"/>
</mask>
<g mask="url(#mask20_449_499)">
<path opacity="0.7" d="M214.571 137.976C214.651 137.973 214.731 137.994 214.799 138.038C214.867 138.082 214.92 138.146 214.95 138.221C214.98 138.296 214.986 138.379 214.967 138.458C214.948 138.537 214.905 138.607 214.844 138.66L213.2 140.268V162.026C213.203 162.303 213.15 162.578 213.046 162.835C212.942 163.092 212.788 163.325 212.594 163.522C212.399 163.718 212.167 163.874 211.912 163.98C211.656 164.086 211.383 164.14 211.106 164.139H198.898C198.345 164.139 197.814 163.919 197.423 163.526C197.031 163.134 196.812 162.602 196.812 162.046V137.976H214.571Z" fill="white"/>
</g>
<path d="M214.571 137.976C214.651 137.973 214.731 137.994 214.799 138.038C214.867 138.082 214.92 138.146 214.95 138.221C214.98 138.296 214.986 138.379 214.967 138.458C214.948 138.537 214.905 138.607 214.844 138.66L213.2 140.268V162.026C213.203 162.303 213.15 162.578 213.046 162.835C212.942 163.092 212.788 163.325 212.594 163.522C212.399 163.718 212.167 163.874 211.912 163.98C211.656 164.086 211.383 164.14 211.106 164.139H198.898C198.345 164.139 197.814 163.919 197.423 163.526C197.031 163.134 196.812 162.602 196.812 162.046V137.976H214.571Z" stroke="#263238" stroke-width="0.75" stroke-linecap="round" stroke-linejoin="round"/>
<path d="M201.919 139.379H199.028C198.961 139.379 198.897 139.352 198.849 139.305C198.802 139.257 198.775 139.193 198.775 139.126C198.775 139.059 198.802 138.994 198.849 138.947C198.897 138.899 198.961 138.873 199.028 138.873H201.919C201.986 138.873 202.051 138.899 202.098 138.947C202.145 138.994 202.172 139.059 202.172 139.126C202.172 139.193 202.145 139.257 202.098 139.305C202.051 139.352 201.986 139.379 201.919 139.379Z" fill="#263238"/>
<path d="M200.801 140.911H199.028C198.961 140.911 198.897 140.884 198.849 140.837C198.802 140.789 198.775 140.725 198.775 140.658C198.775 140.591 198.802 140.526 198.849 140.479C198.897 140.431 198.961 140.405 199.028 140.405H200.801C200.868 140.405 200.932 140.431 200.979 140.479C201.027 140.526 201.053 140.591 201.053 140.658C201.053 140.725 201.027 140.789 200.979 140.837C200.932 140.884 200.868 140.911 200.801 140.911Z" fill="#263238"/>
<path d="M200.801 142.45H199.028C198.961 142.45 198.897 142.423 198.849 142.376C198.802 142.328 198.775 142.264 198.775 142.197C198.775 142.13 198.802 142.065 198.849 142.018C198.897 141.97 198.961 141.944 199.028 141.944H200.801C200.868 141.944 200.932 141.97 200.979 142.018C201.027 142.065 201.053 142.13 201.053 142.197C201.053 142.264 201.027 142.328 200.979 142.376C200.932 142.423 200.868 142.45 200.801 142.45Z" fill="#263238"/>
<path d="M200.801 143.982H199.028C198.969 143.972 198.915 143.942 198.877 143.896C198.838 143.85 198.817 143.792 198.817 143.732C198.817 143.672 198.838 143.614 198.877 143.569C198.915 143.523 198.969 143.493 199.028 143.483H200.801C200.86 143.493 200.914 143.523 200.952 143.569C200.991 143.614 201.012 143.672 201.012 143.732C201.012 143.792 200.991 143.85 200.952 143.896C200.914 143.942 200.86 143.972 200.801 143.982Z" fill="#263238"/>
<path d="M200.801 145.521H199.028C198.961 145.521 198.897 145.494 198.849 145.447C198.802 145.399 198.775 145.335 198.775 145.268C198.775 145.201 198.802 145.136 198.849 145.089C198.897 145.042 198.961 145.015 199.028 145.015H200.801C200.868 145.015 200.932 145.042 200.979 145.089C201.027 145.136 201.053 145.201 201.053 145.268C201.053 145.335 201.027 145.399 200.979 145.447C200.932 145.494 200.868 145.521 200.801 145.521Z" fill="#263238"/>
<path d="M201.919 147.06H199.028C198.961 147.06 198.897 147.033 198.849 146.986C198.802 146.938 198.775 146.874 198.775 146.807C198.775 146.74 198.802 146.675 198.849 146.628C198.897 146.581 198.961 146.554 199.028 146.554H201.919C201.986 146.554 202.051 146.581 202.098 146.628C202.145 146.675 202.172 146.74 202.172 146.807C202.172 146.874 202.145 146.938 202.098 146.986C202.051 147.033 201.986 147.06 201.919 147.06Z" fill="#263238"/>
<path d="M200.801 148.592H199.028C198.961 148.592 198.897 148.566 198.849 148.518C198.802 148.471 198.775 148.406 198.775 148.339C198.775 148.272 198.802 148.208 198.849 148.16C198.897 148.113 198.961 148.086 199.028 148.086H200.801C200.868 148.086 200.932 148.113 200.979 148.16C201.027 148.208 201.053 148.272 201.053 148.339C201.053 148.406 201.027 148.471 200.979 148.518C200.932 148.566 200.868 148.592 200.801 148.592Z" fill="#263238"/>
<path d="M200.801 150.131H199.028C198.961 150.131 198.897 150.105 198.849 150.057C198.802 150.01 198.775 149.945 198.775 149.878C198.775 149.811 198.802 149.747 198.849 149.699C198.897 149.652 198.961 149.625 199.028 149.625H200.801C200.868 149.625 200.932 149.652 200.979 149.699C201.027 149.747 201.053 149.811 201.053 149.878C201.053 149.945 201.027 150.01 200.979 150.057C200.932 150.105 200.868 150.131 200.801 150.131Z" fill="#263238"/>
<path d="M200.801 151.663H199.028C198.969 151.654 198.915 151.623 198.877 151.577C198.838 151.532 198.817 151.474 198.817 151.414C198.817 151.354 198.838 151.296 198.877 151.25C198.915 151.204 198.969 151.174 199.028 151.164H200.801C200.86 151.174 200.914 151.204 200.952 151.25C200.991 151.296 201.012 151.354 201.012 151.414C201.012 151.474 200.991 151.532 200.952 151.577C200.914 151.623 200.86 151.654 200.801 151.663Z" fill="#263238"/>
<path d="M200.801 153.202H199.028C198.961 153.202 198.897 153.176 198.849 153.128C198.802 153.081 198.775 153.016 198.775 152.949C198.775 152.882 198.802 152.818 198.849 152.77C198.897 152.723 198.961 152.696 199.028 152.696H200.801C200.868 152.696 200.932 152.723 200.979 152.77C201.027 152.818 201.053 152.882 201.053 152.949C201.053 153.016 201.027 153.081 200.979 153.128C200.932 153.176 200.868 153.202 200.801 153.202Z" fill="#263238"/>
<path d="M201.919 154.741H199.028C198.961 154.741 198.897 154.715 198.849 154.667C198.802 154.62 198.775 154.555 198.775 154.488C198.775 154.421 198.802 154.357 198.849 154.309C198.897 154.262 198.961 154.235 199.028 154.235H201.919C201.986 154.235 202.051 154.262 202.098 154.309C202.145 154.357 202.172 154.421 202.172 154.488C202.172 154.555 202.145 154.62 202.098 154.667C202.051 154.715 201.986 154.741 201.919 154.741Z" fill="#263238"/>
<path d="M200.801 156.273H199.028C198.961 156.273 198.897 156.247 198.849 156.199C198.802 156.152 198.775 156.088 198.775 156.02C198.775 155.953 198.802 155.889 198.849 155.841C198.897 155.794 198.961 155.767 199.028 155.767H200.801C200.868 155.767 200.932 155.794 200.979 155.841C201.027 155.889 201.053 155.953 201.053 156.02C201.053 156.088 201.027 156.152 200.979 156.199C200.932 156.247 200.868 156.273 200.801 156.273Z" fill="#263238"/>
<path d="M200.801 157.812H199.028C198.961 157.812 198.897 157.786 198.849 157.738C198.802 157.691 198.775 157.627 198.775 157.559C198.775 157.492 198.802 157.428 198.849 157.38C198.897 157.333 198.961 157.306 199.028 157.306H200.801C200.868 157.306 200.932 157.333 200.979 157.38C201.027 157.428 201.053 157.492 201.053 157.559C201.053 157.627 201.027 157.691 200.979 157.738C200.932 157.786 200.868 157.812 200.801 157.812Z" fill="#263238"/>
<path d="M200.801 159.345H199.028C198.961 159.345 198.897 159.318 198.849 159.271C198.802 159.223 198.775 159.159 198.775 159.092C198.775 159.024 198.802 158.96 198.849 158.913C198.897 158.865 198.961 158.839 199.028 158.839H200.801C200.868 158.839 200.932 158.865 200.979 158.913C201.027 158.96 201.053 159.024 201.053 159.092C201.053 159.159 201.027 159.223 200.979 159.271C200.932 159.318 200.868 159.345 200.801 159.345Z" fill="#263238"/>
<path d="M200.801 160.884H199.028C198.961 160.884 198.897 160.857 198.849 160.81C198.802 160.762 198.775 160.698 198.775 160.631C198.775 160.563 198.802 160.499 198.849 160.452C198.897 160.404 198.961 160.378 199.028 160.378H200.801C200.868 160.378 200.932 160.404 200.979 160.452C201.027 160.499 201.053 160.563 201.053 160.631C201.053 160.698 201.027 160.762 200.979 160.81C200.932 160.857 200.868 160.884 200.801 160.884Z" fill="#263238"/>
<path d="M201.919 162.423H199.028C198.961 162.423 198.897 162.396 198.849 162.349C198.802 162.301 198.775 162.237 198.775 162.17C198.775 162.102 198.802 162.038 198.849 161.991C198.897 161.943 198.961 161.917 199.028 161.917H201.919C201.986 161.917 202.051 161.943 202.098 161.991C202.145 162.038 202.172 162.102 202.172 162.17C202.172 162.237 202.145 162.301 202.098 162.349C202.051 162.396 201.986 162.423 201.919 162.423Z" fill="#263238"/>
<path d="M176.679 130.008C177.436 130.008 178.895 127.956 178.895 127.956C178.895 127.956 177.838 130.254 178.213 130.911C178.588 131.568 181.105 131.8 181.105 131.8C181.105 131.8 178.595 132.033 178.213 132.689C177.831 133.346 178.895 135.644 178.895 135.644C178.895 135.644 177.436 133.592 176.679 133.592C175.922 133.592 174.469 135.644 174.469 135.644C174.469 135.644 175.526 133.346 175.151 132.689C174.776 132.033 172.259 131.8 172.259 131.8C172.259 131.8 174.769 131.568 175.151 130.911C175.533 130.254 174.469 127.956 174.469 127.956C174.469 127.956 175.928 130.008 176.679 130.008Z" fill="white"/>
<path d="M178.315 134.064C178.476 134.593 178.67 135.112 178.895 135.617C178.895 135.617 177.436 133.565 176.679 133.565C175.922 133.565 174.469 135.617 174.469 135.617C174.469 135.617 175.526 133.319 175.151 132.662C174.776 132.005 172.259 131.773 172.259 131.773C173.094 131.699 173.915 131.515 174.701 131.226" stroke="#263238" stroke-width="0.75" stroke-linecap="round" stroke-linejoin="round"/>
<path d="M178.37 128.64C178.677 128.264 178.889 127.956 178.889 127.956C178.889 127.956 177.831 130.254 178.207 130.911C178.582 131.568 181.098 131.8 181.098 131.8C181.098 131.8 178.589 132.033 178.207 132.689C178.14 132.83 178.112 132.986 178.125 133.141" stroke="#263238" stroke-width="0.75" stroke-linecap="round" stroke-linejoin="round"/>
<path d="M175.151 130.884C175.526 130.2 174.469 127.929 174.469 127.929C174.469 127.929 175.929 129.981 176.679 129.981C177.034 129.981 177.531 129.543 177.961 129.071" stroke="#263238" stroke-width="0.75" stroke-linecap="round" stroke-linejoin="round"/>
<path d="M151.663 113.079C152.345 113.079 153.709 111.15 153.709 111.15C153.709 111.15 152.727 113.291 153.075 113.886C153.423 114.481 155.769 114.714 155.769 114.714C155.769 114.714 153.43 114.933 153.075 115.542C152.72 116.15 153.709 118.278 153.709 118.278C153.709 118.278 152.345 116.349 151.663 116.349C150.981 116.349 149.617 118.278 149.617 118.278C149.617 118.278 150.599 116.137 150.252 115.542C149.904 114.946 147.558 114.714 147.558 114.714C147.558 114.714 149.897 114.502 150.252 113.886C150.606 113.271 149.617 111.15 149.617 111.15C149.617 111.15 150.961 113.079 151.663 113.079Z" fill="white"/>
<path d="M153.184 116.862C153.331 117.357 153.511 117.841 153.723 118.312C153.723 118.312 152.359 116.383 151.677 116.383C150.995 116.383 149.631 118.312 149.631 118.312C149.631 118.312 150.613 116.171 150.265 115.576C149.917 114.981 147.571 114.748 147.571 114.748C148.349 114.681 149.115 114.511 149.849 114.242" stroke="#263238" stroke-width="0.75" stroke-linecap="round" stroke-linejoin="round"/>
<path d="M153.238 111.78C153.525 111.431 153.723 111.15 153.723 111.15C153.723 111.15 152.741 113.291 153.088 113.886C153.436 114.481 155.782 114.714 155.782 114.714C155.782 114.714 153.443 114.933 153.088 115.542C153.024 115.673 152.999 115.82 153.013 115.966" stroke="#263238" stroke-width="0.75" stroke-linecap="round" stroke-linejoin="round"/>
<path d="M150.238 113.9C150.586 113.291 149.604 111.164 149.604 111.164C149.604 111.164 150.968 113.093 151.65 113.093C151.977 113.093 152.441 112.682 152.843 112.238" stroke="#263238" stroke-width="0.75" stroke-linecap="round" stroke-linejoin="round"/>
<path d="M171.482 88.8792C171.966 88.8792 172.907 87.5112 172.907 87.5112C172.907 87.5112 172.225 88.9887 172.471 89.4127C172.717 89.8368 174.333 89.9873 174.333 89.9873C174.333 89.9873 172.717 90.1378 172.471 90.5619C172.225 90.986 172.907 92.4634 172.907 92.4634C172.907 92.4634 171.966 91.1296 171.482 91.1296C170.998 91.1296 170.057 92.4634 170.057 92.4634C170.057 92.4634 170.739 90.986 170.493 90.5619C170.248 90.1378 168.631 89.9873 168.631 89.9873C168.631 89.9873 170.248 89.8368 170.493 89.4127C170.739 88.9887 170.057 87.5112 170.057 87.5112C170.057 87.5112 170.998 88.8792 171.482 88.8792Z" fill="white"/>
<path d="M172.532 91.4989C172.638 91.8387 172.764 92.1721 172.907 92.4975C172.907 92.4975 171.966 91.1637 171.482 91.1637C170.998 91.1637 170.057 92.4975 170.057 92.4975C170.057 92.4975 170.739 91.0201 170.493 90.596C170.248 90.1719 168.631 90.0215 168.631 90.0215C169.163 89.9661 169.686 89.8419 170.186 89.6521" stroke="#263238" stroke-width="0.75" stroke-linecap="round" stroke-linejoin="round"/>
<path d="M172.573 87.9766C172.771 87.7372 172.907 87.5457 172.907 87.5457C172.907 87.5457 172.225 89.0231 172.471 89.4472C172.716 89.8713 174.333 90.0217 174.333 90.0217C174.333 90.0217 172.716 90.1722 172.471 90.5963C172.429 90.6858 172.41 90.7847 172.416 90.8836" stroke="#263238" stroke-width="0.75" stroke-linecap="round" stroke-linejoin="round"/>
<path d="M170.493 89.4472C170.739 89.0231 170.057 87.5457 170.057 87.5457C170.057 87.5457 170.998 88.9137 171.482 88.9137C171.707 88.9137 172.028 88.6264 172.307 88.3186" stroke="#263238" stroke-width="0.75" stroke-linecap="round" stroke-linejoin="round"/>
<path d="M140.178 152.984C140.663 152.984 141.604 151.616 141.604 151.616C141.604 151.616 140.922 153.1 141.16 153.524C141.399 153.948 143.029 154.099 143.029 154.099C143.029 154.099 141.406 154.242 141.16 154.666C140.915 155.09 141.604 156.575 141.604 156.575C141.604 156.575 140.663 155.241 140.178 155.241C139.694 155.241 138.746 156.575 138.746 156.575C138.746 156.575 139.428 155.09 139.189 154.666C138.951 154.242 137.321 154.099 137.321 154.099C137.321 154.099 138.944 153.948 139.189 153.524C139.435 153.1 138.746 151.616 138.746 151.616C138.746 151.616 139.681 152.984 140.178 152.984Z" fill="white"/>
<path d="M141.222 155.61C141.324 155.951 141.45 156.285 141.597 156.609C141.597 156.609 140.656 155.275 140.172 155.275C139.687 155.275 138.739 156.609 138.739 156.609C138.739 156.609 139.421 155.125 139.183 154.701C138.944 154.276 137.314 154.133 137.314 154.133C137.853 154.086 138.383 153.966 138.889 153.777" stroke="#263238" stroke-width="0.75" stroke-linecap="round" stroke-linejoin="round"/>
<path d="M141.263 152.088C141.461 151.848 141.597 151.65 141.597 151.65C141.597 151.65 140.915 153.134 141.154 153.558C141.392 153.982 143.022 154.133 143.022 154.133C143.022 154.133 141.399 154.276 141.154 154.701C141.111 154.792 141.095 154.894 141.106 154.995" stroke="#263238" stroke-width="0.75" stroke-linecap="round" stroke-linejoin="round"/>
<path d="M139.183 153.558C139.421 153.134 138.739 151.65 138.739 151.65C138.739 151.65 139.68 153.018 140.171 153.018C140.397 153.018 140.717 152.737 140.997 152.43" stroke="#263238" stroke-width="0.75" stroke-linecap="round" stroke-linejoin="round"/>
<path d="M182.333 146.616V148.332" stroke="#263238" stroke-linecap="round" stroke-linejoin="round"/>
<path d="M182.333 140.685V142.402" stroke="#263238" stroke-linecap="round" stroke-linejoin="round"/>
<path d="M180.232 144.509H178.52" stroke="#263238" stroke-linecap="round" stroke-linejoin="round"/>
<path d="M186.145 144.509H184.433" stroke="#263238" stroke-linecap="round" stroke-linejoin="round"/>
<path d="M180.846 146L179.639 147.218" stroke="#263238" stroke-linecap="round" stroke-linejoin="round"/>
<path d="M185.026 141.807L183.819 143.018" stroke="#263238" stroke-linecap="round" stroke-linejoin="round"/>
<path d="M180.846 143.018L179.639 141.807" stroke="#263238" stroke-linecap="round" stroke-linejoin="round"/>
<path d="M185.026 147.218L183.819 146" stroke="#263238" stroke-linecap="round" stroke-linejoin="round"/>
<path d="M141.072 136.383V138.77" stroke="#263238" stroke-linecap="round" stroke-linejoin="round"/>
<path d="M141.072 128.134V130.521" stroke="#263238" stroke-linecap="round" stroke-linejoin="round"/>
<path d="M138.146 133.449H135.766" stroke="#263238" stroke-linecap="round" stroke-linejoin="round"/>
<path d="M146.371 133.449H143.991" stroke="#263238" stroke-linecap="round" stroke-linejoin="round"/>
<path d="M139.005 135.521L137.321 137.211" stroke="#263238" stroke-linecap="round" stroke-linejoin="round"/>
<path d="M144.816 129.693L143.138 131.383" stroke="#263238" stroke-linecap="round" stroke-linejoin="round"/>
<path d="M139.005 131.383L137.321 129.693" stroke="#263238" stroke-linecap="round" stroke-linejoin="round"/>
<path d="M144.816 137.211L143.138 135.521" stroke="#263238" stroke-linecap="round" stroke-linejoin="round"/>
<path d="M193.115 114.563V116.219" stroke="#263238" stroke-linecap="round" stroke-linejoin="round"/>
<path d="M193.115 108.832V110.494" stroke="#263238" stroke-linecap="round" stroke-linejoin="round"/>
<path d="M191.083 112.525H189.425" stroke="#263238" stroke-linecap="round" stroke-linejoin="round"/>
<path d="M196.798 112.525H195.141" stroke="#263238" stroke-linecap="round" stroke-linejoin="round"/>
<path d="M191.676 113.968L190.51 115.138" stroke="#263238" stroke-linecap="round" stroke-linejoin="round"/>
<path d="M195.714 109.912L194.547 111.089" stroke="#263238" stroke-linecap="round" stroke-linejoin="round"/>
<path d="M191.676 111.089L190.51 109.912" stroke="#263238" stroke-linecap="round" stroke-linejoin="round"/>
<path d="M195.714 115.138L194.547 113.968" stroke="#263238" stroke-linecap="round" stroke-linejoin="round"/>
<mask id="mask21_449_499" style="mask-type:luminance" maskUnits="userSpaceOnUse" x="181" y="112" width="4" height="4">
<path d="M184.447 114.221C184.448 114.511 184.364 114.795 184.204 115.037C184.045 115.278 183.817 115.467 183.551 115.579C183.284 115.69 182.99 115.72 182.707 115.665C182.423 115.609 182.163 115.47 181.958 115.266C181.753 115.061 181.613 114.801 181.556 114.516C181.5 114.232 181.528 113.938 181.638 113.67C181.749 113.402 181.936 113.173 182.176 113.012C182.416 112.851 182.698 112.765 182.987 112.765C183.373 112.765 183.743 112.918 184.017 113.191C184.29 113.464 184.445 113.834 184.447 114.221Z" fill="white"/>
</mask>
<g mask="url(#mask21_449_499)">
<path opacity="0.7" d="M184.447 114.221C184.448 114.511 184.364 114.795 184.204 115.037C184.045 115.278 183.817 115.467 183.551 115.579C183.284 115.69 182.99 115.72 182.707 115.665C182.423 115.609 182.163 115.47 181.958 115.266C181.753 115.061 181.613 114.801 181.556 114.516C181.5 114.232 181.528 113.938 181.638 113.67C181.749 113.402 181.936 113.173 182.176 113.012C182.416 112.851 182.698 112.765 182.987 112.765C183.373 112.765 183.743 112.918 184.017 113.191C184.29 113.464 184.445 113.834 184.447 114.221Z" fill="white"/>
</g>
<path d="M184.447 114.221C184.448 114.511 184.364 114.795 184.204 115.037C184.045 115.278 183.817 115.467 183.551 115.579C183.284 115.69 182.99 115.72 182.707 115.665C182.423 115.609 182.163 115.47 181.958 115.266C181.753 115.061 181.613 114.801 181.556 114.516C181.5 114.232 181.528 113.938 181.638 113.67C181.749 113.402 181.936 113.173 182.176 113.012C182.416 112.851 182.698 112.765 182.987 112.765C183.373 112.765 183.743 112.918 184.017 113.191C184.29 113.464 184.445 113.834 184.447 114.221Z" stroke="#263238" stroke-linecap="round" stroke-linejoin="round"/>
<mask id="mask22_449_499" style="mask-type:luminance" maskUnits="userSpaceOnUse" x="164" y="122" width="3" height="4">
<path d="M166.919 124.187C166.921 124.477 166.836 124.761 166.677 125.002C166.517 125.244 166.29 125.433 166.023 125.544C165.757 125.656 165.463 125.686 165.179 125.631C164.896 125.575 164.635 125.436 164.43 125.232C164.226 125.027 164.086 124.766 164.029 124.482C163.972 124.198 164.001 123.903 164.111 123.636C164.221 123.368 164.408 123.139 164.648 122.978C164.889 122.816 165.171 122.73 165.46 122.73C165.846 122.73 166.216 122.884 166.49 123.157C166.763 123.43 166.918 123.8 166.919 124.187Z" fill="white"/>
</mask>
<g mask="url(#mask22_449_499)">
<path opacity="0.7" d="M166.919 124.187C166.921 124.477 166.836 124.761 166.677 125.002C166.517 125.244 166.29 125.433 166.023 125.544C165.757 125.656 165.463 125.686 165.179 125.631C164.896 125.575 164.635 125.436 164.43 125.232C164.226 125.027 164.086 124.766 164.029 124.482C163.972 124.198 164.001 123.903 164.111 123.636C164.221 123.368 164.408 123.139 164.648 122.978C164.889 122.816 165.171 122.73 165.46 122.73C165.846 122.73 166.216 122.884 166.49 123.157C166.763 123.43 166.918 123.8 166.919 124.187Z" fill="white"/>
</g>
<path d="M166.919 124.187C166.921 124.477 166.836 124.761 166.677 125.002C166.517 125.244 166.29 125.433 166.023 125.544C165.757 125.656 165.463 125.686 165.179 125.631C164.896 125.575 164.635 125.436 164.43 125.232C164.226 125.027 164.086 124.766 164.029 124.482C163.972 124.198 164.001 123.903 164.111 123.636C164.221 123.368 164.408 123.139 164.648 122.978C164.889 122.816 165.171 122.73 165.46 122.73C165.846 122.73 166.216 122.884 166.49 123.157C166.763 123.43 166.918 123.8 166.919 124.187Z" stroke="#263238" stroke-linecap="round" stroke-linejoin="round"/>
<mask id="mask23_449_499" style="mask-type:luminance" maskUnits="userSpaceOnUse" x="157" y="116" width="4" height="4">
<path d="M160.891 118.1C160.891 118.389 160.805 118.672 160.645 118.913C160.484 119.154 160.256 119.341 159.99 119.452C159.723 119.563 159.43 119.592 159.146 119.535C158.863 119.479 158.603 119.339 158.399 119.135C158.195 118.93 158.056 118.669 158 118.385C157.943 118.101 157.972 117.807 158.083 117.54C158.193 117.272 158.38 117.044 158.62 116.883C158.86 116.722 159.143 116.636 159.431 116.636C159.818 116.636 160.189 116.79 160.463 117.065C160.737 117.339 160.891 117.712 160.891 118.1Z" fill="white"/>
</mask>
<g mask="url(#mask23_449_499)">
<path opacity="0.7" d="M160.891 118.1C160.891 118.389 160.805 118.672 160.645 118.913C160.484 119.154 160.256 119.341 159.99 119.452C159.723 119.563 159.43 119.592 159.146 119.535C158.863 119.479 158.603 119.339 158.399 119.135C158.195 118.93 158.056 118.669 158 118.385C157.943 118.101 157.972 117.807 158.083 117.54C158.193 117.272 158.38 117.044 158.62 116.883C158.86 116.722 159.143 116.636 159.431 116.636C159.818 116.636 160.189 116.79 160.463 117.065C160.737 117.339 160.891 117.712 160.891 118.1Z" fill="white"/>
</g>
<path d="M160.891 118.1C160.891 118.389 160.805 118.672 160.645 118.913C160.484 119.154 160.256 119.341 159.99 119.452C159.723 119.563 159.43 119.592 159.146 119.535C158.863 119.479 158.603 119.339 158.399 119.135C158.195 118.93 158.056 118.669 158 118.385C157.943 118.101 157.972 117.807 158.083 117.54C158.193 117.272 158.38 117.044 158.62 116.883C158.86 116.722 159.143 116.636 159.431 116.636C159.818 116.636 160.189 116.79 160.463 117.065C160.737 117.339 160.891 117.712 160.891 118.1Z" stroke="#263238" stroke-linecap="round" stroke-linejoin="round"/>
<mask id="mask24_449_499" style="mask-type:luminance" maskUnits="userSpaceOnUse" x="143" y="111" width="4" height="3">
<path d="M146.603 112.525C146.604 112.815 146.519 113.099 146.359 113.341C146.2 113.583 145.972 113.771 145.705 113.883C145.438 113.995 145.144 114.024 144.86 113.968C144.576 113.912 144.316 113.772 144.111 113.567C143.907 113.362 143.767 113.1 143.711 112.816C143.655 112.531 143.685 112.236 143.796 111.969C143.907 111.701 144.095 111.472 144.336 111.312C144.578 111.152 144.861 111.067 145.15 111.068C145.535 111.068 145.905 111.222 146.177 111.495C146.449 111.768 146.603 112.139 146.603 112.525Z" fill="white"/>
</mask>
<g mask="url(#mask24_449_499)">
<path opacity="0.7" d="M146.603 112.525C146.604 112.815 146.519 113.099 146.359 113.341C146.2 113.583 145.972 113.771 145.705 113.883C145.438 113.995 145.144 114.024 144.86 113.968C144.576 113.912 144.316 113.772 144.111 113.567C143.907 113.362 143.767 113.1 143.711 112.816C143.655 112.531 143.685 112.236 143.796 111.969C143.907 111.701 144.095 111.472 144.336 111.312C144.578 111.152 144.861 111.067 145.15 111.068C145.535 111.068 145.905 111.222 146.177 111.495C146.449 111.768 146.603 112.139 146.603 112.525Z" fill="white"/>
</g>
<path d="M146.603 112.525C146.604 112.815 146.519 113.099 146.359 113.341C146.2 113.583 145.972 113.771 145.705 113.883C145.438 113.995 145.144 114.024 144.86 113.968C144.576 113.912 144.316 113.772 144.111 113.567C143.907 113.362 143.767 113.1 143.711 112.816C143.655 112.531 143.685 112.236 143.796 111.969C143.907 111.701 144.095 111.472 144.336 111.312C144.578 111.152 144.861 111.067 145.15 111.068C145.535 111.068 145.905 111.222 146.177 111.495C146.449 111.768 146.603 112.139 146.603 112.525Z" stroke="#263238" stroke-linecap="round" stroke-linejoin="round"/>
<path d="M152.222 150.22C152.707 150.22 153.648 148.852 153.648 148.852C153.648 148.852 152.966 150.337 153.204 150.754C153.443 151.171 155.073 151.328 155.073 151.328C155.073 151.328 153.45 151.479 153.204 151.903C152.959 152.327 153.648 153.805 153.648 153.805C153.648 153.805 152.707 152.437 152.222 152.437C151.738 152.437 150.79 153.805 150.79 153.805C150.79 153.805 151.472 152.327 151.233 151.903C150.995 151.479 149.365 151.328 149.365 151.328C149.365 151.328 150.988 151.178 151.233 150.754C151.479 150.33 150.79 148.852 150.79 148.852C150.79 148.852 151.731 150.22 152.222 150.22Z" fill="white"/>
<path d="M153.273 152.84C153.375 153.181 153.5 153.515 153.648 153.839C153.648 153.839 152.707 152.471 152.222 152.471C151.738 152.471 150.79 153.839 150.79 153.839C150.79 153.839 151.472 152.361 151.233 151.937C150.995 151.513 149.365 151.363 149.365 151.363C149.903 151.316 150.432 151.198 150.94 151.014" stroke="#263238" stroke-width="0.75" stroke-linecap="round" stroke-linejoin="round"/>
<path d="M153.314 149.324C153.511 149.078 153.648 148.887 153.648 148.887C153.648 148.887 152.966 150.371 153.205 150.788C153.443 151.205 155.073 151.363 155.073 151.363C155.073 151.363 153.45 151.513 153.205 151.937C153.161 152.029 153.145 152.131 153.157 152.231" stroke="#263238" stroke-width="0.75" stroke-linecap="round" stroke-linejoin="round"/>
<path d="M151.233 150.788C151.472 150.371 150.79 148.887 150.79 148.887C150.79 148.887 151.731 150.255 152.222 150.255C152.447 150.255 152.768 149.967 153.047 149.666" stroke="#263238" stroke-width="0.75" stroke-linecap="round" stroke-linejoin="round"/>
</svg>
