<svg width="317" height="313" viewBox="0 0 317 313" fill="none" xmlns="http://www.w3.org/2000/svg">
<path d="M46.8429 286.159C-14.8168 250.454 -14.8168 192.56 46.8429 156.883C108.502 121.205 208.477 121.178 270.157 156.883C331.837 192.587 331.817 250.481 270.157 286.159C208.497 321.836 108.509 321.87 46.8429 286.159Z" fill="#F5F5F5"/>
<path d="M96.1924 287.882C122.95 287.882 144.642 275.323 144.642 259.831C144.642 244.339 122.95 231.78 96.1924 231.78C69.4346 231.78 47.7432 244.339 47.7432 259.831C47.7432 275.323 69.4346 287.882 96.1924 287.882Z" fill="#E0E0E0"/>
<path d="M208.173 246.721C241.769 228.548 261.694 200.223 252.677 183.456C243.66 166.689 209.115 167.828 175.52 186.001C141.924 204.174 121.999 232.498 131.016 249.266C140.033 266.033 174.577 264.893 208.173 246.721Z" fill="#E0E0E0"/>
<path d="M241.602 206.89C248.32 198.86 258.843 193.627 270.675 190.535C282.365 187.492 284.459 180.275 276.711 177.943C267.934 175.289 256.981 180.159 249.915 186.938C237.612 198.75 236.064 207.772 236.064 207.772L241.602 206.89Z" fill="#F6C647"/>
<path opacity="0.15" d="M241.602 206.89C248.32 198.86 258.843 193.627 270.675 190.535C282.365 187.492 284.459 180.275 276.711 177.943C267.934 175.289 256.981 180.159 249.915 186.938C237.612 198.75 236.064 207.772 236.064 207.772L241.602 206.89Z" fill="black"/>
<path d="M238.144 206.404C238.095 206.414 238.044 206.414 237.994 206.404C237.954 206.384 237.918 206.357 237.888 206.323C237.858 206.29 237.835 206.25 237.821 206.208C237.806 206.165 237.8 206.12 237.803 206.075C237.806 206.03 237.817 205.986 237.837 205.946C247.808 185.426 269.891 180.378 275.238 180.761C275.327 180.768 275.41 180.81 275.469 180.878C275.528 180.946 275.557 181.034 275.552 181.124C275.543 181.214 275.5 181.297 275.431 181.356C275.362 181.414 275.274 181.444 275.183 181.438C269.946 181.041 248.265 186.041 238.451 206.247C238.417 206.297 238.372 206.338 238.318 206.365C238.264 206.393 238.204 206.406 238.144 206.404Z" fill="white"/>
<path d="M236.064 209.024C236.064 209.354 236.152 209.678 236.318 209.963C236.484 210.248 236.722 210.483 237.008 210.646C237.294 210.809 237.618 210.892 237.947 210.889C238.276 210.885 238.598 210.794 238.881 210.624C245.128 206.979 254.239 204.961 268.984 209.174C276.827 211.411 280.687 209.913 282.338 206.712C284.179 203.155 280.292 199.715 275.859 198.094C260.766 192.56 247.146 196.336 236.064 207.375V209.024Z" fill="#F6C647"/>
<path d="M236.93 209.318C236.882 209.319 236.834 209.31 236.789 209.291C236.744 209.272 236.704 209.244 236.671 209.209C236.608 209.143 236.573 209.056 236.573 208.966C236.573 208.875 236.608 208.788 236.671 208.723C249.704 197.04 269.891 199.318 277.529 203.873C277.607 203.919 277.663 203.993 277.686 204.081C277.709 204.168 277.697 204.26 277.652 204.338C277.605 204.417 277.53 204.473 277.442 204.496C277.354 204.519 277.261 204.507 277.182 204.462C269.68 199.995 249.902 197.772 237.128 209.25C237.07 209.291 237.001 209.315 236.93 209.318Z" fill="white"/>
<path d="M90.2457 236.261C84.5169 227.492 74.6824 221.049 63.293 216.582C52.0537 212.177 50.8192 204.769 58.785 203.36C67.8147 201.767 78.1197 207.902 84.3395 215.467C95.1697 228.655 95.6403 237.813 95.6403 237.813L90.2457 236.261Z" fill="#F6C647"/>
<path opacity="0.15" d="M90.2457 236.261C84.5169 227.492 74.6824 221.049 63.293 216.582C52.0537 212.177 50.8192 204.769 58.785 203.36C67.8147 201.767 78.1197 207.902 84.3395 215.467C95.1697 228.655 95.6403 237.813 95.6403 237.813L90.2457 236.261Z" fill="black"/>
<path d="M93.7103 236.206C93.7598 236.216 93.8108 236.216 93.8603 236.206C93.9454 236.175 94.0152 236.112 94.0546 236.03C94.0941 235.948 94.1003 235.854 94.0717 235.768C86.5697 214.215 65.264 206.589 59.8899 206.356C59.8006 206.353 59.7133 206.384 59.647 206.444C59.5807 206.504 59.5405 206.588 59.5352 206.678C59.5332 206.769 59.566 206.857 59.6269 206.924C59.6878 206.992 59.7722 207.033 59.8626 207.04C65.114 207.259 86.0514 214.79 93.4238 236.015C93.4503 236.069 93.4908 236.116 93.5412 236.149C93.5915 236.183 93.6499 236.202 93.7103 236.206Z" fill="white"/>
<path d="M95.6878 237.396C95.6343 237.882 95.4569 238.346 95.1725 238.744C94.8881 239.141 94.5064 239.458 94.0643 239.664C93.6222 239.87 93.1346 239.959 92.6484 239.921C92.1623 239.883 91.694 239.72 91.2889 239.448C85.5056 235.563 76.8919 233.039 62.7813 235.344C54.7337 236.637 51.0782 234.66 49.8233 231.315C48.4184 227.567 52.6877 224.619 57.2776 223.532C72.9158 219.824 85.9966 225.187 95.7015 237.451L95.6878 237.396Z" fill="#F6C647"/>
<path d="M94.6103 239.236C94.6579 239.243 94.7064 239.239 94.7524 239.225C94.7984 239.211 94.8407 239.187 94.8763 239.154C94.9392 239.089 94.9744 239.002 94.9744 238.911C94.9744 238.821 94.9392 238.734 94.8763 238.668C83.2823 225.529 62.9928 225.399 54.8702 229.017C54.787 229.054 54.7219 229.123 54.6893 229.209C54.6567 229.294 54.6592 229.389 54.6962 229.472C54.7333 229.556 54.8019 229.621 54.887 229.653C54.972 229.686 55.0666 229.684 55.1498 229.647C63.1087 226.097 83.0231 226.226 94.3648 239.12C94.3944 239.156 94.4318 239.186 94.4743 239.206C94.5168 239.226 94.5633 239.236 94.6103 239.236Z" fill="white"/>
<path d="M247.719 79.9803L247.61 79.9256L221.612 64.9186L221.455 64.8434C209.309 58.6874 193.104 60.541 175.673 71.8407C140.659 94.5495 113.979 146.821 116.079 188.593C117.123 209.407 125.13 223.682 137.221 229.961L137.324 230.016L163.328 245.029L163.451 245.098C175.598 251.254 191.815 249.428 209.261 238.114C244.275 215.405 270.955 163.134 268.854 121.362C267.824 100.534 259.818 86.2594 247.719 79.9803Z" fill="#37474F"/>
<path d="M162.435 244.544L137.358 230.002L137.235 229.927C125.143 223.634 117.143 209.359 116.093 188.572C115.159 169.94 119.953 149.235 128.642 130.008L128.812 129.584L154.646 145.015C145.944 164.242 141.163 184.947 142.097 203.579C143.086 223.955 150.773 238.06 162.435 244.544Z" fill="#263238"/>
<path d="M209.275 238.101C244.289 215.392 270.969 163.12 268.868 121.349C266.767 79.5767 236.678 64.132 201.664 86.8408C166.65 109.55 139.963 161.821 142.064 203.586C144.164 245.351 174.261 260.809 209.275 238.101Z" fill="#455A64"/>
<path d="M238.928 76.738L195.041 167.416L185.596 157.156C182.779 154.215 178.925 152.499 174.861 152.377C170.797 152.255 166.847 153.736 163.86 156.502C160.873 159.269 159.087 163.1 158.886 167.173C158.684 171.246 160.084 175.235 162.783 178.285L187.669 205.323C190.406 208.305 194.198 210.092 198.233 210.303C198.52 210.303 198.806 210.303 199.093 210.303C199.846 210.302 200.598 210.247 201.343 210.139C203.848 209.773 206.226 208.797 208.268 207.297C210.311 205.797 211.956 203.819 213.06 201.534L263.392 97.5658C258.229 86.0199 249.636 78.8653 238.928 76.738Z" fill="#37474F"/>
<path d="M274.569 46.8746C274.297 46.7173 274.01 46.5668 273.724 46.43C270.507 44.8668 266.804 44.647 263.426 45.8191C260.048 46.9911 257.271 49.4592 255.705 52.6818L199.863 168.045L196.685 164.625C195.768 163.62 194.7 162.764 193.521 162.088C191.856 161.13 184.777 157.019 183.632 156.356C180.839 154.735 177.559 154.173 174.389 154.771C171.218 155.369 168.366 157.087 166.35 159.614C164.335 162.141 163.29 165.309 163.405 168.543C163.52 171.776 164.787 174.862 166.977 177.238L191.863 204.27C192.796 205.285 193.88 206.15 195.076 206.835C196.699 207.758 203.751 211.862 204.91 212.533C206.514 213.464 208.292 214.054 210.133 214.265C211.974 214.477 213.839 214.305 215.611 213.762C217.383 213.218 219.024 212.314 220.432 211.106C221.84 209.897 222.985 208.411 223.795 206.739L289.86 70.2606C291.345 67.1846 291.616 63.6592 290.618 60.3913C289.62 57.1234 287.427 54.3548 284.479 52.6408L274.569 46.8746Z" fill="#F6C647"/>
<path opacity="0.15" d="M274.569 46.8746C274.297 46.7173 274.01 46.5668 273.724 46.43C270.507 44.8668 266.804 44.647 263.426 45.8191C260.048 46.9911 257.271 49.4592 255.705 52.6818L199.863 168.045L196.685 164.625C195.768 163.62 194.7 162.764 193.521 162.088C191.856 161.13 184.777 157.019 183.632 156.356C180.839 154.735 177.559 154.173 174.389 154.771C171.218 155.369 168.366 157.087 166.35 159.614C164.335 162.141 163.29 165.309 163.405 168.543C163.52 171.776 164.787 174.862 166.977 177.238L191.863 204.27C192.796 205.285 193.88 206.15 195.076 206.835C196.699 207.758 203.751 211.862 204.91 212.533C206.514 213.464 208.292 214.054 210.133 214.265C211.974 214.477 213.839 214.305 215.611 213.762C217.383 213.218 219.024 212.314 220.432 211.106C221.84 209.897 222.985 208.411 223.795 206.739L289.86 70.2606C291.345 67.1846 291.616 63.6592 290.618 60.3913C289.62 57.1234 287.427 54.3548 284.479 52.6408L274.569 46.8746Z" fill="black"/>
<path opacity="0.15" d="M204.876 212.505C203.73 211.821 196.692 207.717 195.048 206.807C193.853 206.123 192.769 205.257 191.836 204.242L166.95 177.211C165.852 176.01 164.981 174.619 164.378 173.107L174.274 178.832C174.874 180.349 175.751 181.741 176.859 182.936L201.738 209.968C202.654 210.964 203.711 211.819 204.876 212.505Z" fill="black"/>
<path opacity="0.15" d="M268.732 54.255C267.432 55.4251 266.371 56.8375 265.608 58.4137L208.17 177.074L199.863 168.045L255.705 52.6818C256.466 51.1028 257.53 49.6897 258.836 48.5231L268.732 54.255Z" fill="black"/>
<path d="M283.626 52.1619C280.409 50.6024 276.707 50.3846 273.33 51.5563C269.953 52.728 267.177 55.1936 265.608 58.4137L208.17 177.074L196.692 164.598C194.236 162.095 190.904 160.65 187.404 160.567C183.904 160.485 180.509 161.772 177.938 164.157C175.367 166.541 173.823 169.835 173.632 173.342C173.441 176.848 174.618 180.292 176.914 182.943L201.793 209.981C203.283 211.597 205.143 212.824 207.212 213.556C209.282 214.287 211.498 214.501 213.668 214.179C215.839 213.857 217.898 213.008 219.668 211.707C221.437 210.406 222.863 208.691 223.822 206.712L289.887 70.2332C291.444 67.0038 291.659 63.2866 290.485 59.8983C289.311 56.5099 286.844 53.7274 283.626 52.1619Z" fill="#F6C647"/>
<path d="M95.2309 65.4999C90.0272 65.4999 86.4672 66.8679 82.7708 72.1347C79.3608 76.9774 70.0583 93.1198 70.0583 93.1198C70.0583 93.1198 63.2383 79.0841 62.5563 76.2865C61.8743 73.489 61.9152 72.2441 62.5563 71.0266C63.4949 69.5875 64.0836 67.9475 64.2749 66.2386C64.5409 62.8733 65.3593 59.9937 64.6091 59.8979C62.529 59.7816 62.4472 62.4629 61.356 64.0429C61.2174 64.1955 61.0449 64.3131 60.8525 64.3863C60.6601 64.4595 60.4532 64.4861 60.2486 64.4642C60.044 64.4422 59.8475 64.3721 59.6749 64.2597C59.5023 64.1473 59.3586 63.9957 59.2554 63.8172C58.7985 62.8801 59.044 61.3411 58.8257 60.2331C58.8849 59.6164 58.9828 59.0042 59.119 58.3999C59.9068 58.5421 60.7114 58.5651 61.506 58.4683C62.4062 59.8842 63.02 60.4793 64.2749 59.9047C64.4386 59.6448 63.7361 57.8527 62.9109 56.4847C62.787 56.2754 62.5862 56.1232 62.3517 56.0607C60.8387 55.6764 59.2598 55.632 57.7277 55.9307C57.6119 55.9426 57.4996 55.9778 57.3977 56.0342C57.2958 56.0907 57.2062 56.1671 57.1344 56.259C56.5586 57.1051 56.0998 58.0254 55.7704 58.995C55.6817 59.2891 55.4089 59.2823 55.3407 59.0292C54.6587 55.7255 54.6587 51.0333 54.6587 48.8376C54.6587 47.1071 52.1421 46.8335 52.0535 49.3096C51.9039 52.6319 51.9609 55.9603 52.224 59.2755C52.224 59.5764 51.9239 59.7201 51.8011 59.3917C51.3647 58.2221 50.2939 54.6858 49.8438 48.5845C49.721 46.9429 47.0749 46.6762 47.1158 48.9813C47.2195 53.068 47.7498 57.1327 48.698 61.1086C48.7799 61.3959 48.5139 61.6489 48.3161 61.3206C47.0746 58.9212 46.0827 56.3999 45.3562 53.7966C44.7902 51.813 42.1508 52.3192 42.6282 54.7884C43.4535 59.2139 44.7629 64.809 46.7202 68.8104C48.8072 73.0854 50.6076 75.2263 51.6443 78.5848C52.6809 81.9432 56.9707 100.965 61.5606 108.38C65.1547 114.194 69.2672 113.653 73.6933 110.589C78.1195 107.525 93.9351 85.4248 93.9351 85.4248L95.2309 65.4999Z" fill="#9E6767"/>
<path d="M70.0581 93.113C70.0581 93.113 72.2746 96.8818 72.6156 99.8982C73.179 96.9694 72.6188 93.9352 71.047 91.403L70.0581 93.113Z" fill="#874C4C"/>
<path d="M96.3359 65.4999C93.6897 65.2263 90.3956 65.1374 86.7265 67.4561C83.0573 69.7749 81.7752 73.0034 79.9951 75.8283C78.2151 78.6532 72.0635 88.6602 72.0635 88.6602C72.0635 88.6602 74.3209 98.1609 83.296 100.117L96.7382 81.827L96.3359 65.4999Z" fill="#455A64"/>
<path d="M108.387 232.553C109.069 232.464 109.976 234.797 109.99 235.556C110.003 236.315 109.239 237.95 108.237 239.482C106.897 241.306 105.786 243.289 104.929 245.385C104.158 247.492 103.449 248.873 101.301 251.63C98.9139 254.701 93.3078 259.838 84.7965 257.608C82.7164 257.061 81.6797 256.404 80.9227 255.645C80.5905 255.308 80.3589 254.885 80.2541 254.424C80.1492 253.962 80.1753 253.48 80.3294 253.032L108.387 232.553Z" fill="#263238"/>
<path d="M91.6642 229.886V229.961C91.5667 230.6 91.5851 231.251 91.7188 231.883C91.9527 233.766 91.7862 235.678 91.2302 237.493C90.6742 239.307 89.7413 240.983 88.4929 242.41C87.3073 243.651 85.9689 244.736 84.51 245.638C80.1998 248.374 79.736 250.241 80.343 253.032C81.7889 256.281 91.5619 258.258 97.1816 253.422C99.6064 251.534 101.46 249.007 102.535 246.124C103.351 244.058 104.299 242.048 105.372 240.105C106.457 238.053 108.516 235.741 108.578 233.627C108.612 232.464 107.466 230.303 106.355 228.524C105.332 226.89 104.274 225.337 103.354 225.515L103.613 226.438C102.842 227.239 101.731 227.539 101.062 228.49C100.23 229.646 100.257 231.226 99.7459 232.526C99.7292 232.593 99.6979 232.655 99.6543 232.708C99.6107 232.761 99.5558 232.804 99.4936 232.834C99.4216 232.846 99.3476 232.834 99.2825 232.801C99.2174 232.768 99.1647 232.715 99.1321 232.649C99.0764 232.515 99.0508 232.37 99.0571 232.225L98.9957 230.234C99.0264 229.852 98.9253 229.47 98.7093 229.154C98.1773 228.552 96.8679 228.62 96.1381 228.593C95.1559 228.601 94.1748 228.66 93.1987 228.771C92.8605 228.737 92.5214 228.827 92.2439 229.024C91.9652 229.243 91.7623 229.544 91.6642 229.886Z" fill="#37474F"/>
<path d="M77.2193 190.118C79.4903 197.608 90.1091 223.538 90.7433 225.098L92.8575 230.241C94.2498 230.7 95.7415 230.764 97.1678 230.426C97.3928 232.909 97.7679 236.801 97.9112 238.764C97.9657 241.042 98.1635 243.86 97.6725 246.11C97.2564 248.025 96.7722 250.036 96.4108 251.958C96.2539 252.806 96.097 253.661 95.9675 254.516C95.7474 255.412 95.8216 256.355 96.1789 257.205C96.3964 257.576 96.6836 257.901 97.0246 258.162C98.5394 259.356 100.454 259.919 102.371 259.735C103.385 259.686 104.367 259.36 105.209 258.791C106.859 257.608 107.439 255.549 108.278 253.798C109.191 251.904 108.898 251.691 108.96 249.66C109.014 248.237 109.41 244.626 109.976 240.85C110.542 237.074 112.983 223.805 114.156 210.583C114.635 204.71 114.635 198.809 114.156 192.936C123.473 167.553 127.619 152.457 128.84 144.03C130.074 135.466 129.481 132.402 129.324 127.484L84.0188 128.578C80.3906 152.067 74.1707 180.077 77.2193 190.118Z" fill="#9E6767"/>
<path d="M76.5099 171.376C77.4443 162.744 83.8823 129.563 83.8823 129.563H129.522C129.522 129.563 129.815 135.931 129.733 138.859C129.651 141.786 128.71 147.128 127.08 153.907C125.45 160.685 119.408 179.817 118.214 182.635C117.021 185.453 114.804 193.627 114.804 193.627C115.923 208.976 113.011 222.751 110.828 241.062C110.828 241.062 110.194 243.531 103.729 243.046C97.4405 242.567 96.172 240.241 96.172 240.241L95.756 224.448C95.756 224.448 92.346 225.501 90.3 225.022C90.3 225.022 76.7895 191.568 76.1348 189.557C75.4801 187.546 75.5756 180.008 76.5099 171.376Z" fill="#F6C647"/>
<path opacity="0.45" d="M76.5099 171.376C77.4443 162.744 83.8823 129.563 83.8823 129.563H129.522C129.522 129.563 129.815 135.931 129.733 138.859C129.651 141.786 128.71 147.128 127.08 153.907C125.45 160.685 119.408 179.817 118.214 182.635C117.021 185.453 114.804 193.627 114.804 193.627C115.923 208.976 113.011 222.751 110.828 241.062C110.828 241.062 110.194 243.531 103.729 243.046C97.4405 242.567 96.172 240.241 96.172 240.241L95.756 224.448C95.756 224.448 92.346 225.501 90.3 225.022C90.3 225.022 76.7895 191.568 76.1348 189.557C75.4801 187.546 75.5756 180.008 76.5099 171.376Z" fill="black"/>
<path opacity="0.2" d="M95.8721 151.191C89.4068 145.35 87.9678 140.699 87.9678 140.699C91.2183 144.372 95.0672 147.464 99.3504 149.844C99.3504 149.844 93.2123 182.348 93.6625 189.03C94.1126 195.713 95.7562 224.448 95.7562 224.448C95.7562 224.721 91.405 194.058 91.2755 191.616C90.9822 185.152 95.8721 151.191 95.8721 151.191Z" fill="black"/>
<path d="M110.078 257.334C110.712 257.519 110.63 259.421 110.344 260.132C109.634 261.373 108.629 262.419 107.418 263.176C105.644 264.388 104.164 265.984 103.087 267.848C101.336 270.534 99.0201 272.803 96.3015 274.496C92.6804 276.557 88.4125 277.156 84.3665 276.172C80.0835 274.954 79.688 273.901 79.7221 272.28L110.078 257.334Z" fill="#263238"/>
<path d="M96.8475 247.389C95.7222 252.861 93.7648 256.883 89.2295 260.262C85.6149 262.957 82.996 264.325 80.1112 266.726C78.8904 267.752 78.7881 269.934 79.7225 272.287C81.673 273.853 84.4419 274.756 88.1588 274.749C92.319 274.749 93.9149 274.004 96.3019 272.369C97.4744 271.565 98.5662 270.649 99.5618 269.633C101.56 267.622 102.972 265.139 104.39 263.545C105.809 261.952 108.953 260.324 109.846 258.402C110.337 257.348 110.133 254.906 109.805 252.827C109.505 250.919 110.085 247.567 109.171 247.355L109.042 248.723C108.967 249.031 108.776 249.188 108.135 249.407C107.558 249.532 106.964 249.548 106.382 249.455C106.175 249.38 105.95 249.372 105.738 249.432C105.526 249.492 105.339 249.617 105.202 249.79C104.588 250.515 104.424 251.541 103.633 252.143C103.582 252.188 103.522 252.221 103.456 252.239C103.426 252.256 103.391 252.264 103.356 252.263C103.321 252.262 103.287 252.251 103.258 252.232C103.237 252.199 103.223 252.162 103.217 252.123C103.211 252.084 103.214 252.044 103.224 252.006L103.449 249.954C103.476 249.75 103.476 249.543 103.449 249.339C103.406 249.148 103.323 248.969 103.206 248.813C103.088 248.657 102.939 248.529 102.767 248.436C102.193 248.1 101.576 247.845 100.933 247.676C100.263 247.494 99.5783 247.377 98.8866 247.328C98.2079 247.24 97.5197 247.261 96.8475 247.389Z" fill="#455A64"/>
<path d="M125.403 67.463C125.403 67.463 127.278 70.0485 128.813 75.3768C130.681 84.1277 131.64 93.049 131.677 101.998C131.677 114.084 130.054 133.667 130.054 133.667C116.066 140.699 93.5056 136.54 83.5757 129.68C83.9781 127.504 84.3191 116.068 85.1034 108.523C85.6285 95.5822 86.065 88.8038 86.1536 83.0445C86.3378 71.5396 92.0461 65.5956 96.3836 65.5067L107.337 65.6777L125.403 67.463Z" fill="#F6C647"/>
<path d="M128.853 130.117C126.773 131.834 122.715 135.131 121.945 136.793C121.085 138.695 120.581 141.581 120.001 142.662C119.421 143.743 120.294 144.29 121.495 143.9C122.695 143.51 123.411 142.491 124.339 140.001C125.266 137.511 127.844 135.562 127.844 135.562L128.853 130.117Z" fill="#874C4C"/>
<path d="M121.256 152.505C121.754 153.469 122.913 153.476 123.984 153.558C125.289 153.708 126.612 153.559 127.851 153.12C129.34 152.689 130.646 151.778 131.568 150.528C132.618 149.009 132.891 147.108 133.491 145.364C134.746 141.704 138.483 139.064 139.097 135.186C139.35 133.585 139.35 131.697 139.779 130.706C140.045 130.117 146.19 119.509 148.386 114.912C150.487 110.493 152.062 108.414 150.152 103.106C148.243 97.7984 141.743 79.1184 137.14 72.6272C134.535 68.9473 130.395 67.8939 125.375 67.463C121.556 77.4357 125.996 87.7436 125.996 87.7436L136.13 107.292C136.13 107.292 132.202 120.753 129.747 128.236C129.065 130.288 127.701 131.602 126.139 133.907C125.457 134.905 123.916 136.643 123.37 137.73C122.688 139.098 122.688 140.001 122.347 141.937C121.815 145.022 120.99 152.046 121.256 152.505Z" fill="#9E6767"/>
<path d="M124.864 67.4082C127.503 67.5108 131.295 67.9622 133.559 69.1114C135.824 70.2605 137.399 71.6764 140.004 76.9158C142.609 82.1552 146.422 92.3332 146.422 92.3332C146.422 92.3332 145.16 100.014 133.048 102.005L124.864 86.868C124.864 86.868 121.215 77.4356 124.864 67.4082Z" fill="#455A64"/>
<path d="M93.3965 42.9621C93.7543 43.6111 94.0643 44.2855 94.324 44.9799C94.7275 45.8869 95.243 46.7395 95.8585 47.5175C97.4271 49.3301 99.63 50.6571 101.642 51.943C102.856 52.7228 104.247 53.4546 105.734 53.2426C107.221 53.0306 108.878 53.352 110.412 53.4888L115.78 53.9745L115.48 59.6312C115.48 59.6312 116.162 58.1332 117.055 56.3411C117.833 54.8021 121.093 46.9977 121.106 46.9635C122.722 43.0989 124.639 37.9415 122.709 33.8786C122.27 32.878 121.537 32.0357 120.608 31.464C120.795 30.8394 120.855 30.1835 120.786 29.5352C120.678 28.6146 120.366 27.73 119.873 26.9463C119.38 26.1627 118.717 25.5 117.935 25.0071C116.407 23.9718 114.686 23.2596 112.874 22.914C110.472 22.3599 108.014 22.0867 105.55 22.1001C103.135 22.174 100.73 22.4508 98.3614 22.9277C97.0401 23.1725 95.7014 23.312 94.3581 23.345C93.7794 23.383 93.1983 23.3555 92.6258 23.2629C91.9142 23.0496 91.2152 22.7961 90.5321 22.5036C90.4727 22.4786 90.4089 22.4657 90.3445 22.4657C90.2801 22.4657 90.2164 22.4786 90.157 22.5036C90.1028 22.5397 90.0571 22.5871 90.0229 22.6426C89.9888 22.6981 89.9671 22.7604 89.9592 22.8251C89.7818 23.679 89.7893 24.5612 89.981 25.412C90.1728 26.2628 90.5445 27.0624 91.0709 27.7568C90.7641 27.7148 90.4653 27.6272 90.1843 27.4968C89.8652 27.3487 89.5575 27.1773 89.2636 26.9838C88.763 26.6473 88.3246 26.226 87.9678 25.739C87.9186 25.6626 87.8435 25.6067 87.7563 25.5816C87.6199 25.5816 87.5108 25.6774 87.429 25.7868C87.0609 26.3359 86.8103 26.9554 86.6929 27.6064C86.5755 28.2575 86.5939 28.9258 86.747 29.5694C87.0478 30.861 87.6562 32.0603 88.5202 33.0646C88.0987 33.7476 87.8553 34.5259 87.8124 35.3279C87.7695 36.13 87.9285 36.93 88.2747 37.6542C88.578 38.2966 88.986 38.8838 89.4818 39.3916C90.0956 40.0209 90.8458 40.5339 91.4664 41.1221C92.1781 41.6591 92.8257 42.2765 93.3965 42.9621Z" fill="#37474F"/>
<path d="M109.744 33.5366C109.724 34.558 109.855 35.5768 110.133 36.5598C110.456 37.4233 110.977 38.1987 111.653 38.8239C112.419 39.4749 113.126 40.1912 113.768 40.9648C114.46 42.1689 114.866 43.5172 114.954 44.9046C114.958 45.3133 115.053 45.7159 115.233 46.0828C115.412 46.4497 115.671 46.7717 115.991 47.025C117.45 47.9348 118.323 46.1769 119.101 45.315C120.103 44.3848 123.084 43.263 124.461 46.4231C125.887 49.7063 123.254 54.0566 120.86 54.7269C116.734 55.8828 115.834 53.0648 115.834 53.0648L115.043 67.8392C112.717 72.2646 107.248 73.6737 103.654 72.9692C100.55 72.3604 98.8455 70.1784 101.764 67.0184L101.921 62.5176C101.921 62.5176 98.1976 62.9622 96.4039 62.6202C93.4099 62.0594 91.93 59.508 91.1184 56.218C89.8294 50.9307 89.2361 45.3698 90.8388 33.4613C91.5685 33.0578 94.5216 35.3628 99.0228 35.6706C102.722 35.9322 106.424 35.1953 109.744 33.5366Z" fill="#9E6767"/>
<path d="M101.894 62.504C101.894 62.504 108.646 61.3685 111.033 60.192C112.433 59.5154 113.598 58.4308 114.374 57.0798C113.976 58.4441 113.308 59.7142 112.41 60.8145C110.623 62.9554 101.833 64.296 101.833 64.296L101.894 62.504Z" fill="#874C4C"/>
<path d="M105.406 38.8239L108.55 39.7883C108.671 39.3576 108.62 38.8969 108.409 38.5028C108.198 38.1088 107.843 37.812 107.418 37.6747C107.211 37.6138 106.993 37.5954 106.779 37.6205C106.564 37.6457 106.357 37.7139 106.169 37.8211C105.981 37.9284 105.817 38.0724 105.686 38.2447C105.555 38.417 105.46 38.6139 105.406 38.8239Z" fill="#263238"/>
<path d="M104.315 53.7625L99.6846 55.3357C99.7747 55.6461 99.9261 55.9352 100.13 56.1858C100.333 56.4364 100.585 56.6435 100.87 56.7947C101.155 56.9459 101.467 57.0381 101.789 57.0659C102.11 57.0938 102.433 57.0566 102.74 56.9567C103.363 56.7314 103.875 56.2731 104.169 55.6776C104.462 55.0822 104.515 54.3959 104.315 53.7625Z" fill="#874C4C"/>
<path d="M103.94 54.8978C103.336 54.8983 102.749 55.1001 102.271 55.4715C101.793 55.8429 101.452 56.3629 101.301 56.9498C101.768 57.1038 102.272 57.1038 102.74 56.9498C103.171 56.7968 103.553 56.5287 103.844 56.1744C104.134 55.82 104.323 55.3929 104.39 54.9389C104.242 54.9117 104.091 54.898 103.94 54.8978Z" fill="#F28F8F"/>
<path d="M91.3706 39.3232L94.5692 38.906C94.5449 38.6983 94.4794 38.4976 94.3766 38.3157C94.2737 38.1338 94.1356 37.9744 93.9703 37.8469C93.805 37.7194 93.616 37.6264 93.4143 37.5733C93.2126 37.5203 93.0024 37.5083 92.796 37.538C92.3743 37.5929 91.9902 37.8095 91.7244 38.1424C91.4586 38.4753 91.3318 38.8985 91.3706 39.3232Z" fill="#263238"/>
<path d="M111.033 40.6912L121.583 44.2958C120.992 44.3027 120.41 44.4456 119.883 44.7136C119.356 44.9817 118.897 45.3676 118.542 45.8417L111.074 42.9962L111.033 40.6912Z" fill="#263238"/>
<path d="M92.9461 44.8226C92.934 44.9928 92.9561 45.1638 93.011 45.3253C93.0659 45.4868 93.1524 45.6357 93.2655 45.7632C93.3787 45.8907 93.5161 45.9942 93.6697 46.0676C93.8233 46.141 93.99 46.1828 94.16 46.1906C94.3293 46.1924 94.4973 46.1608 94.6543 46.0975C94.8114 46.0342 94.9545 45.9404 95.0755 45.8217C95.1964 45.7029 95.2929 45.5614 95.3593 45.4052C95.4257 45.2491 95.4609 45.0813 95.4626 44.9115C95.4746 44.7413 95.4526 44.5704 95.3977 44.4088C95.3428 44.2473 95.2563 44.0984 95.1431 43.9709C95.03 43.8434 94.8926 43.7399 94.739 43.6665C94.5854 43.5931 94.4186 43.5513 94.2487 43.5435C94.0794 43.5417 93.9114 43.5734 93.7543 43.6367C93.5973 43.7 93.4542 43.7937 93.3332 43.9125C93.2122 44.0312 93.1158 44.1728 93.0494 44.3289C92.9829 44.4851 92.9478 44.6528 92.9461 44.8226Z" fill="#263238"/>
<path d="M104.997 44.8226C104.999 45.0708 105.073 45.3131 105.21 45.5193C105.348 45.7255 105.543 45.8866 105.772 45.9824C106 46.0782 106.251 46.1046 106.494 46.0582C106.738 46.0119 106.962 45.8948 107.139 45.7217C107.316 45.5485 107.439 45.3269 107.492 45.0843C107.544 44.8418 107.525 44.5891 107.435 44.3577C107.346 44.1263 107.19 43.9263 106.988 43.7828C106.787 43.6393 106.547 43.5584 106.3 43.5504C105.959 43.5467 105.631 43.6785 105.387 43.9169C105.143 44.1553 105.002 44.4809 104.997 44.8226Z" fill="#263238"/>
<path d="M86.7197 41.4573C86.797 42.0105 87.0341 42.5289 87.4017 42.9484C87.5284 43.1045 87.6193 43.2866 87.6677 43.4819C87.9132 44.5011 88.1247 46.43 88.6089 47.5107C88.9377 48.3817 89.5317 49.1268 90.3067 49.64C91.0816 50.1532 91.9981 50.4086 92.9259 50.3698C93.4201 50.3884 93.9148 50.3471 94.3991 50.2467H94.5082C94.9286 50.1474 95.3328 49.9885 95.7085 49.7747L95.7767 49.7269L95.879 49.6653L96.0086 49.5764L96.1245 49.4806L96.2541 49.378C96.2996 49.347 96.3408 49.3102 96.3769 49.2686C96.4593 49.1939 96.5367 49.114 96.6087 49.0292C97.0112 48.5776 97.3362 48.0622 97.5704 47.5039C98.1978 46.0948 98.0341 44.1249 99.0571 43.8923H99.1799H99.3163C100.68 43.8923 100.558 46.0606 101.362 47.5928C102.167 49.1249 103.408 50.6229 106.457 50.6639H106.846C106.95 50.671 107.055 50.671 107.159 50.6639C107.405 50.6489 107.649 50.6146 107.889 50.5613L108.114 50.5066C108.188 50.4902 108.261 50.4696 108.332 50.4451L108.476 50.404C108.761 50.3031 109.035 50.1724 109.294 50.0141C109.389 49.9589 109.48 49.8972 109.567 49.8295C109.736 49.7052 109.894 49.5655 110.037 49.4122C110.426 48.9967 110.738 48.5149 110.958 47.9895C111.429 46.9293 111.551 45.0004 111.783 43.9949C111.824 43.7884 111.903 43.5912 112.015 43.4135C112.379 43.0131 112.617 42.5131 112.697 41.9771C112.713 41.7025 112.64 41.4301 112.487 41.2015C112.334 40.973 112.111 40.801 111.851 40.7117L111.108 40.616C108.721 40.3219 105.611 40.1987 103.749 40.7049C101.417 41.341 100.605 42.0729 99.3026 42.0729C98 42.0729 97.2976 41.2658 95.0811 40.5407C93.3215 39.9662 90.4094 39.9867 88.186 40.1919L87.504 40.2603C87.2615 40.3474 87.0537 40.5113 86.9122 40.7272C86.7708 40.9432 86.7032 41.1994 86.7197 41.4573ZM102.078 42.9279C102.262 42.6988 102.496 42.5141 102.76 42.3875C102.797 42.361 102.836 42.3381 102.876 42.3191H102.945C103.047 42.2644 103.156 42.2097 103.272 42.1618L103.579 42.0387C103.904 41.9146 104.237 41.8095 104.574 41.7241L104.97 41.6283C105.311 41.5599 105.652 41.5052 105.993 41.471C106.075 41.4645 106.157 41.4645 106.239 41.471C108.482 41.2863 109.887 41.8198 110.399 42.2781C110.91 42.7364 110.685 44.8431 110.474 45.9033V45.9785C110.474 45.9785 110.474 46.0333 110.474 46.0606C110.474 46.1906 110.419 46.3342 110.378 46.4915C110.337 46.6489 110.331 46.6625 110.303 46.7515C110.256 46.8951 110.208 47.0387 110.153 47.1892C110.133 47.2406 110.111 47.2909 110.085 47.3397C110.076 47.37 110.064 47.3997 110.051 47.4286L110.003 47.5312L109.942 47.6543L109.867 47.798C109.867 47.8459 109.805 47.8937 109.771 47.9416C109.744 47.9942 109.712 48.0446 109.676 48.0921C109.324 48.591 108.85 48.9904 108.299 49.2516C107.748 49.5129 107.14 49.6271 106.532 49.5832C105.921 49.6167 105.31 49.5206 104.739 49.3014C104.168 49.0822 103.65 48.7447 103.217 48.311C102.679 47.705 102.305 46.9699 102.133 46.1769C101.799 44.9799 101.642 43.5709 102.078 42.9279ZM88.8612 41.8267C89.0235 41.6821 89.2077 41.5643 89.4068 41.4778H89.4477L89.6933 41.3821L89.8433 41.3342H89.9661H90.0479H90.082H90.2048C90.3616 41.3342 90.5321 41.2726 90.7231 41.2453H91.0027H91.9098C92.2371 41.2453 92.5918 41.2931 92.9464 41.341C94.5491 41.5736 96.2268 42.3191 96.6633 42.9826C97.0998 43.6461 97.0043 45.0346 96.7929 46.1906C96.747 46.4604 96.6786 46.7258 96.5883 46.984C96.5863 47.0045 96.5863 47.0251 96.5883 47.0456C96.5883 47.0456 96.5883 47.0935 96.5883 47.1208V47.1755L96.5474 47.2713L96.4655 47.4628C96.4655 47.5175 96.411 47.5791 96.3769 47.6338C96.3781 47.652 96.3781 47.6703 96.3769 47.6885L96.3087 47.8048L96.2473 47.9006C95.8834 48.4383 95.3794 48.8655 94.7901 49.1356C94.2009 49.4058 93.549 49.5086 92.9055 49.4327C92.3231 49.4202 91.7505 49.2801 91.2278 49.0223C89.6319 48.2152 89.2227 46.4163 89.0385 45.6023C88.6975 44.378 88.3838 42.2781 88.8612 41.8198V41.8267Z" fill="#263238"/>
<path d="M99.6843 43.9265L99.4456 52.7227L94.5557 51.3L99.1182 43.8512C99.3102 43.8328 99.5038 43.8586 99.6843 43.9265Z" fill="#874C4C"/>
<path d="M168.062 45.0415C182.017 45.0415 193.33 35.1041 193.33 22.8457C193.33 10.5873 182.017 0.649902 168.062 0.649902C154.106 0.649902 142.793 10.5873 142.793 22.8457C142.793 35.1041 154.106 45.0415 168.062 45.0415Z" fill="#F6C647"/>
<path d="M147.895 35.6843C147.752 38.6597 145.242 43.9812 140.707 45.9443C140.646 45.9702 140.595 46.0145 140.561 46.071C140.527 46.1275 140.511 46.1933 140.517 46.2591C140.522 46.325 140.548 46.3874 140.59 46.4377C140.633 46.4881 140.69 46.5236 140.754 46.5394C143.347 47.1157 146.051 46.9204 148.534 45.9775C151.018 45.0346 153.173 43.3852 154.735 41.2316L147.895 35.6843Z" fill="#F6C647"/>
<path d="M150.93 21.0878C150.987 20.1151 151.218 19.1605 151.612 18.2698C151.983 17.3983 152.537 16.6168 153.235 15.9784C153.973 15.3013 154.834 14.774 155.772 14.4257C158.021 13.6595 160.459 13.6595 162.708 14.4257C163.655 14.7724 164.526 15.2997 165.272 15.9784C165.968 16.6299 166.516 17.4228 166.882 18.304C167.276 19.1947 167.507 20.1493 167.564 21.122C167.598 21.8881 167.612 22.6884 167.612 23.5229C167.612 24.3574 167.612 25.144 167.564 25.869C167.507 26.8418 167.276 27.7963 166.882 28.6871C166.507 29.5602 165.954 30.3453 165.259 30.9922C164.517 31.6773 163.645 32.2054 162.694 32.5448C160.443 33.2925 158.01 33.2925 155.759 32.5448C154.812 32.206 153.944 31.6777 153.208 30.9922C152.511 30.3473 151.957 29.5617 151.585 28.6871C151.191 27.7963 150.96 26.8418 150.903 25.869C150.869 25.144 150.848 24.3574 150.848 23.5229C150.848 22.6884 150.896 21.8539 150.93 21.0878ZM162.592 25.7048C162.592 25.3834 162.626 25.0208 162.647 24.6378C162.667 24.2548 162.647 23.8444 162.647 23.434C162.647 23.0236 162.647 22.6268 162.647 22.2438C162.647 21.8608 162.606 21.5598 162.592 21.2178C162.563 20.7976 162.468 20.3846 162.313 19.9934C162.166 19.628 161.948 19.2955 161.671 19.0153C161.38 18.7287 161.031 18.5073 160.648 18.3655C159.718 18.0466 158.708 18.0466 157.777 18.3655C157.393 18.5088 157.043 18.73 156.747 19.0153C156.473 19.2957 156.258 19.6283 156.113 19.9934C155.957 20.3846 155.863 20.7976 155.834 21.2178C155.792 21.5582 155.769 21.9008 155.765 22.2438C155.765 22.6268 155.765 23.0236 155.765 23.434C155.765 23.8444 155.765 24.2411 155.765 24.6378C155.769 24.9945 155.792 25.3507 155.834 25.7048C155.875 26.527 156.198 27.3097 156.747 27.921C157.074 28.231 157.462 28.4691 157.886 28.6199C158.31 28.7707 158.761 28.8308 159.209 28.7965C159.656 28.8323 160.105 28.7728 160.527 28.6219C160.949 28.471 161.335 28.2321 161.658 27.921C162.203 27.3048 162.531 26.5262 162.592 25.7048Z" fill="#FAFAFA"/>
<path d="M186.462 31.9224C186.519 32.0095 186.545 32.1128 186.537 32.2165C186.538 32.2929 186.524 32.3688 186.494 32.4394C186.465 32.5099 186.422 32.5738 186.367 32.6269C186.314 32.6828 186.251 32.7274 186.18 32.7579C186.11 32.7885 186.034 32.8044 185.958 32.8047H181.688C181.472 32.8127 181.258 32.7555 181.074 32.6406C180.897 32.5108 180.737 32.3591 180.597 32.1891L175.55 25.8279V32.0729C175.547 32.2573 175.476 32.434 175.349 32.5681C175.223 32.7023 175.052 32.7843 174.868 32.7979H171.376C171.282 32.7985 171.188 32.7794 171.101 32.7417C171.014 32.704 170.936 32.6486 170.872 32.579C170.804 32.5139 170.75 32.4352 170.713 32.3481C170.677 32.261 170.659 32.1673 170.66 32.0729V14.8429C170.659 14.7485 170.677 14.6547 170.713 14.5676C170.75 14.4805 170.804 14.4019 170.872 14.3367C170.936 14.2671 171.014 14.2117 171.101 14.174C171.188 14.1363 171.282 14.1172 171.376 14.1179H174.868C175.052 14.1315 175.223 14.2135 175.349 14.3476C175.476 14.4818 175.547 14.6585 175.55 14.8429V20.4722L180.236 14.7061C180.343 14.5773 180.457 14.454 180.577 14.3367C180.78 14.1714 181.039 14.0928 181.299 14.1179H185.446C185.524 14.1172 185.601 14.1327 185.673 14.1633C185.744 14.1939 185.809 14.239 185.862 14.2957C185.917 14.3488 185.96 14.4127 185.99 14.4832C186.019 14.5538 186.034 14.6296 186.033 14.7061C186.04 14.8106 186.011 14.9144 185.951 15.0002L179.403 23.0919L186.462 31.9224Z" fill="#FAFAFA"/>
</svg>
