<svg width="262" height="278" viewBox="0 0 262 278" fill="none" xmlns="http://www.w3.org/2000/svg">
<path d="M155.873 159.171C155.92 159.214 155.966 159.26 156.009 159.308L156.398 159.712L157.898 161.305L163.559 167.386L183.616 189.076H183.384L206.136 162.94L206.293 162.762L206.422 162.961L208.08 165.464L225.293 191.456L225.055 191.415L241.6 178.159L241.695 178.084L241.777 178.173L254.408 192.537L257.818 196.456L258.705 197.482C258.902 197.715 258.998 197.838 258.998 197.838C258.998 197.838 258.882 197.728 258.677 197.509L257.777 196.456L254.299 192.585L241.586 178.323H241.764L225.259 191.668L225.123 191.777L225.021 191.627L207.786 165.676L206.122 163.166H206.402C198.122 172.673 190.334 181.6 183.623 189.301L183.507 189.431L183.391 189.301C175.153 180.314 168.258 172.803 163.422 167.523L157.83 161.367L156.364 159.739C156.207 159.554 156.084 159.417 155.989 159.315C155.893 159.212 155.866 159.178 155.873 159.171Z" fill="#E6E6E6"/>
<path d="M181.264 189.254C181.26 189.729 181.397 190.194 181.657 190.591C181.918 190.988 182.291 191.298 182.728 191.482C183.165 191.666 183.646 191.715 184.111 191.623C184.576 191.531 185.003 191.303 185.339 190.967C185.674 190.631 185.901 190.202 185.993 189.736C186.084 189.27 186.035 188.787 185.852 188.348C185.669 187.91 185.36 187.536 184.964 187.275C184.568 187.013 184.104 186.876 183.63 186.88C183.004 186.884 182.404 187.135 181.961 187.579C181.518 188.024 181.267 188.625 181.264 189.254Z" fill="#E0E0E0"/>
<path d="M223.05 192.106C223.053 192.58 223.195 193.042 223.46 193.434C223.725 193.826 224.1 194.131 224.538 194.31C224.975 194.488 225.456 194.532 225.918 194.437C226.381 194.341 226.805 194.11 227.137 193.773C227.468 193.435 227.693 193.007 227.781 192.541C227.87 192.076 227.819 191.595 227.635 191.159C227.451 190.722 227.142 190.351 226.747 190.091C226.352 189.831 225.889 189.694 225.416 189.698C224.784 189.704 224.181 189.96 223.737 190.411C223.293 190.863 223.046 191.472 223.05 192.106Z" fill="#E0E0E0"/>
<path d="M239.302 178.925C239.306 179.397 239.449 179.858 239.714 180.248C239.979 180.638 240.354 180.941 240.79 181.118C241.226 181.295 241.705 181.338 242.166 181.242C242.627 181.146 243.049 180.915 243.379 180.578C243.709 180.241 243.932 179.814 244.02 179.35C244.108 178.886 244.057 178.407 243.873 177.972C243.689 177.538 243.381 177.167 242.987 176.908C242.594 176.649 242.132 176.513 241.662 176.517C241.031 176.525 240.429 176.782 239.986 177.233C239.544 177.684 239.298 178.293 239.302 178.925Z" fill="#E0E0E0"/>
<path d="M203.886 163.262C203.888 163.735 204.031 164.198 204.296 164.59C204.561 164.982 204.936 165.287 205.374 165.465C205.811 165.644 206.292 165.688 206.754 165.593C207.217 165.497 207.641 165.266 207.973 164.928C208.304 164.591 208.529 164.163 208.617 163.697C208.706 163.232 208.655 162.751 208.471 162.314C208.287 161.878 207.977 161.506 207.583 161.246C207.188 160.986 206.725 160.85 206.252 160.854C205.62 160.859 205.016 161.116 204.573 161.567C204.129 162.018 203.882 162.628 203.886 163.262Z" fill="#E0E0E0"/>
<path d="M257.116 197.906C257.118 198.38 257.261 198.842 257.526 199.234C257.791 199.627 258.166 199.931 258.603 200.11C259.041 200.288 259.522 200.333 259.984 200.237C260.447 200.142 260.871 199.91 261.203 199.573C261.534 199.236 261.759 198.807 261.847 198.342C261.936 197.876 261.885 197.395 261.701 196.959C261.517 196.523 261.207 196.151 260.813 195.891C260.418 195.631 259.955 195.494 259.482 195.498C258.85 195.504 258.246 195.76 257.803 196.212C257.359 196.663 257.112 197.272 257.116 197.906Z" fill="#E0E0E0"/>
<path d="M48.0555 16.7693H32.731V77.8984H48.0555V16.7693Z" fill="#E6E6E6"/>
<path d="M70.5955 30.1003H55.271V77.8914H70.5955V30.1003Z" fill="#E6E6E6"/>
<path d="M93.4832 41.0171H78.1587V77.8915H93.4832V41.0171Z" fill="#E6E6E6"/>
<path d="M114.673 55.9966H99.3486V77.8983H114.673V55.9966Z" fill="#E6E6E6"/>
<path d="M102.404 1.51599C102.404 1.51599 102.261 1.70067 101.981 2.02899L100.706 3.49959L95.8568 9.03999L78.3703 28.876L78.2748 28.9786L78.1657 28.8965L66.7559 20.1276H66.9877L51.0289 40.4151L50.838 40.6613L50.722 40.8118L50.5788 40.6818L29.089 21.6461H29.3277C20.8914 32.7543 13.744 42.2414 8.629 48.9514L2.67514 56.7558L1.08608 58.8078L0.67006 59.3345C0.623627 59.3967 0.573523 59.4561 0.52002 59.5124C0.55876 59.4456 0.602059 59.3816 0.649601 59.3208L1.04516 58.7736L2.5933 56.6738L8.46532 48.8146L29.0617 21.4136L29.1708 21.2699L29.3004 21.3862L50.8175 40.374H50.5583L50.7493 40.1278L66.7286 19.854L66.8309 19.7241L66.9604 19.8267L78.3498 28.5887H78.1452L95.7204 8.91003C97.8414 6.55023 99.5055 4.69659 100.644 3.43803L101.947 2.00163C102.247 1.65963 102.404 1.51599 102.404 1.51599Z" fill="#E6E6E6"/>
<path d="M99.8735 15.6954C99.868 15.5916 99.8796 15.4876 99.9076 15.3875L100.078 14.512C100.255 13.6981 100.494 12.6173 100.76 11.2972C101.367 8.56123 102.226 4.82659 103.215 0.640511L103.434 0.84571L102.663 1.08511C98.3868 2.40523 94.513 3.57487 91.7032 4.40935L88.3682 5.37379L87.4543 5.62003C87.3495 5.65922 87.2388 5.68005 87.127 5.68159C87.2248 5.62829 87.3276 5.58476 87.4339 5.55163L88.3273 5.24383L91.6281 4.16995C94.4175 3.27391 98.2845 2.06323 102.54 0.749951L103.311 0.51739L103.611 0.421631L103.536 0.729429C102.588 4.93603 101.722 8.65699 101.04 11.3588C100.706 12.6652 100.433 13.7391 100.235 14.5462C100.14 14.8814 100.058 15.1687 99.9963 15.4012C99.97 15.5048 99.9286 15.6039 99.8735 15.6954Z" fill="#E6E6E6"/>
<path d="M220.765 104.875C223.81 104.826 226.802 105.683 229.361 107.338C231.921 108.994 233.933 111.373 235.145 114.176C236.356 116.978 236.711 120.078 236.166 123.083C235.621 126.088 234.2 128.864 232.082 131.059C229.964 133.254 227.244 134.769 224.267 135.414C221.29 136.059 218.19 135.805 215.357 134.682C212.525 133.56 210.088 131.621 208.354 129.109C206.62 126.598 205.668 123.627 205.618 120.573C205.556 116.478 207.116 112.526 209.955 109.583C212.795 106.64 216.683 104.947 220.765 104.875ZM221.133 127.707C222.589 127.68 224.004 127.221 225.2 126.387C226.396 125.554 227.318 124.383 227.851 123.024C228.384 121.665 228.503 120.178 228.193 118.751C227.884 117.324 227.16 116.021 226.112 115.007C225.064 113.992 223.741 113.312 222.308 113.052C220.875 112.792 219.397 112.964 218.062 113.546C216.726 114.127 215.593 115.093 214.804 116.321C214.016 117.548 213.607 118.983 213.631 120.443C213.648 121.414 213.856 122.372 214.242 123.263C214.628 124.154 215.185 124.959 215.882 125.634C216.579 126.308 217.401 126.839 218.302 127.194C219.203 127.55 220.165 127.724 221.133 127.707Z" fill="#E0E0E0"/>
<path d="M220.738 102.953C225.33 102.887 229.761 104.65 233.059 107.856C236.358 111.061 238.254 115.448 238.333 120.053L227.83 120.327C227.762 115.751 224.673 113.89 221.01 113.658C220.11 113.604 219.209 113.737 218.363 114.05C217.517 114.362 216.745 114.847 216.094 115.473C215.444 116.1 214.93 116.854 214.585 117.689C214.24 118.525 214.071 119.423 214.088 120.327L203.694 120.607C203.623 116 205.378 111.554 208.574 108.243C211.769 104.933 216.144 103.031 220.738 102.953Z" fill="#F0F0F0"/>
<path d="M96.068 172.933C101.37 167.354 108.643 164.084 116.324 163.828C124.005 163.573 131.479 166.351 137.138 171.565C139.918 174.135 142.162 177.232 143.739 180.678C145.317 184.124 146.197 187.85 146.328 191.639C146.459 195.428 145.839 199.206 144.504 202.754C143.169 206.301 141.145 209.547 138.55 212.304C133.248 217.884 125.974 221.153 118.294 221.409C110.613 221.665 103.139 218.887 97.4797 213.672C94.6998 211.103 92.456 208.005 90.8785 204.559C89.3009 201.113 88.421 197.388 88.2897 193.599C88.1584 189.809 88.7783 186.031 90.1135 182.484C91.4487 178.937 93.4726 175.69 96.068 172.933ZM127.44 202.031C128.684 200.713 129.655 199.16 130.295 197.463C130.935 195.766 131.232 193.957 131.168 192.144C131.105 190.33 130.682 188.547 129.925 186.899C129.168 185.251 128.091 183.77 126.758 182.543C124.049 180.053 120.474 178.729 116.801 178.857C113.129 178.985 109.653 180.555 107.123 183.227C105.879 184.545 104.909 186.098 104.268 187.795C103.628 189.493 103.331 191.301 103.395 193.114C103.458 194.928 103.881 196.711 104.638 198.359C105.395 200.007 106.472 201.488 107.805 202.715C110.514 205.211 114.093 206.538 117.769 206.41C121.445 206.282 124.924 204.709 127.454 202.031H127.44Z" fill="#F5F5F5"/>
<path d="M96.0681 172.933C101.37 167.354 108.644 164.084 116.324 163.828C124.005 163.573 131.479 166.351 137.138 171.565L126.785 182.564C124.077 180.074 120.501 178.75 116.828 178.878C113.156 179.006 109.681 180.575 107.151 183.248C105.906 184.566 104.936 186.118 104.296 187.816C103.656 189.513 103.359 191.321 103.422 193.135C103.486 194.948 103.908 196.731 104.666 198.379C105.423 200.028 106.499 201.508 107.833 202.735L97.4662 213.693C94.6841 211.122 92.4388 208.022 90.8606 204.574C89.2825 201.126 88.4028 197.398 88.2728 193.606C88.1427 189.814 88.7648 186.034 90.103 182.486C91.4411 178.937 93.4687 175.69 96.0681 172.933Z" fill="#E0E0E0"/>
<path d="M135.952 166.839C150.274 180.129 152.013 201.723 138.612 215.977L124.064 203.399C130.468 196.593 131.86 187.502 125.006 181.148L135.952 166.839Z" fill="#EBEBEB"/>
<path d="M122.55 204.301L131.191 221.442C134.764 220.129 137.984 218 140.596 215.225L125.074 202.653L122.55 204.301Z" fill="#E0E0E0"/>
<path d="M155.15 46.0787C155.024 38.3954 157.173 30.8473 161.325 24.3892C165.477 17.9312 171.446 12.8534 178.476 9.79816C185.507 6.74297 193.282 5.84766 200.82 7.22552C208.358 8.60338 215.319 12.1925 220.822 17.5388C226.325 22.8851 230.124 29.7484 231.738 37.2604C233.351 44.7724 232.707 52.5955 229.886 59.7402C227.066 66.8849 222.196 73.03 215.892 77.3982C209.588 81.7663 202.135 84.1613 194.474 84.2801C184.213 84.4265 174.313 80.4881 166.942 73.3277C159.572 66.1673 155.331 56.3688 155.15 46.0787ZM212.39 45.1553C212.33 41.483 211.186 37.9111 209.102 34.891C207.018 31.8709 204.088 29.5384 200.683 28.1883C197.277 26.8382 193.549 26.5312 189.969 27.3061C186.39 28.081 183.12 29.903 180.573 32.5417C178.026 35.1805 176.316 38.5174 175.66 42.1307C175.003 45.7439 175.43 49.4712 176.886 52.8412C178.342 56.2113 180.761 59.0727 183.838 61.0637C186.916 63.0547 190.512 64.0858 194.174 64.0268C199.083 63.9422 203.758 61.9076 207.174 58.3696C210.589 54.8316 212.465 50.0791 212.39 45.1553Z" fill="#FAFAFA"/>
<path d="M155.15 46.0786C154.995 35.781 158.92 25.8425 166.064 18.4444C173.207 11.0463 182.986 6.79323 193.253 6.61865L193.581 26.8856C188.67 26.9645 183.991 28.9967 180.575 32.5352C177.158 36.0736 175.282 40.8285 175.361 45.7537C175.44 50.6789 177.466 55.3711 180.994 58.798C184.522 62.2248 189.263 64.1057 194.174 64.0268L194.474 84.28C184.212 84.43 174.31 80.4928 166.939 73.3317C159.567 66.1705 155.328 56.3699 155.15 46.0786Z" fill="#E0E0E0"/>
<path d="M189.775 3.4996C214.757 3.09604 234.691 22.4532 235.087 47.5082L211.442 47.8912C211.251 35.9075 202.119 28.363 190.177 28.5614L189.775 3.4996Z" fill="#F0F0F0"/>
<path d="M235.394 277.12C235.394 277.216 184.401 277.298 121.5 277.298C58.5991 277.298 7.60596 277.216 7.60596 277.12C7.60596 277.024 58.5855 276.935 121.5 276.935C184.414 276.935 235.394 277.017 235.394 277.12Z" fill="#263238"/>
<path d="M77.4902 182.277L203.865 181.367V183.145L77.4902 184.281V182.277Z" fill="#263238"/>
<path d="M74.7354 53.4179L77.6134 183.337L203.865 182.352V51.236L74.7354 53.4179Z" fill="white"/>
<path d="M74.7353 53.418L203.865 51.0856H204.022V51.2429C204.022 88.774 204.022 133.063 204.022 180.314V182.537H203.845L77.5929 183.501H77.4428V183.351C75.8129 105.484 74.7489 54.7587 74.7148 53.4249C74.7148 54.7381 75.9288 105.484 77.7429 183.337L77.5929 183.187L203.845 182.181L203.667 182.359V180.307C203.667 133.056 203.667 88.7671 203.667 51.2361L203.824 51.3934L74.7353 53.418Z" fill="#263238"/>
<path d="M74.2305 54.2867L204.417 53.5411L204.581 48.0623L74.2305 48.8762V54.2867Z" fill="#263238"/>
<path d="M136.552 186.88C136.333 186.88 136.102 185.861 136.04 184.589C135.979 183.316 136.115 182.277 136.333 182.263C136.552 182.249 136.784 183.275 136.845 184.548C136.906 185.82 136.777 186.88 136.552 186.88Z" fill="#263238"/>
<path d="M136.504 185.943C136.504 185.895 136.722 185.881 137.063 186.018C137.269 186.105 137.462 186.22 137.636 186.36C137.871 186.549 138.067 186.782 138.216 187.044C138.418 187.408 138.52 187.819 138.51 188.235C138.5 188.651 138.38 189.057 138.161 189.411C138.03 189.624 137.864 189.814 137.67 189.972C137.468 190.135 137.236 190.258 136.988 190.334C136.461 190.48 135.899 190.439 135.399 190.218C135.146 190.105 134.915 189.947 134.717 189.753C134.52 189.558 134.365 189.326 134.26 189.069C134.071 188.602 134.031 188.089 134.144 187.598C134.228 187.189 134.424 186.812 134.711 186.51C134.998 186.208 135.364 185.992 135.767 185.888C136.283 185.747 136.832 185.795 137.315 186.025C137.643 186.189 137.765 186.36 137.738 186.401C137.711 186.442 137.527 186.401 137.213 186.319C136.786 186.239 136.345 186.277 135.938 186.429C135.675 186.531 135.441 186.695 135.256 186.907C135.043 187.158 134.904 187.462 134.854 187.787C134.805 188.113 134.847 188.445 134.976 188.747C135.125 189.072 135.39 189.329 135.719 189.466C136.047 189.613 136.415 189.644 136.763 189.555C137.083 189.471 137.36 189.271 137.54 188.994C137.718 188.732 137.824 188.427 137.847 188.111C137.868 187.968 137.868 187.823 137.847 187.68C137.825 187.546 137.786 187.415 137.731 187.29C137.556 186.888 137.282 186.537 136.933 186.271C136.681 186.093 136.504 185.998 136.504 185.943Z" fill="#263238"/>
<path d="M155.286 124.513C155.286 124.513 155.286 124.513 155.204 124.513H154.973L154.072 124.554L150.601 124.704L137.834 125.183C127.051 125.58 112.15 126.107 95.6999 126.674L90.0393 126.866H89.9097V126.736C88.764 111.64 87.7273 98.1105 87.0112 88.384C86.6566 83.5276 86.377 79.622 86.1792 76.9339C86.0905 75.5659 86.0155 74.5467 85.9678 73.8422C85.9678 73.4865 85.9268 73.2198 85.92 73.0351C85.9132 72.8504 85.92 72.8777 85.92 72.8299C85.92 72.782 85.92 72.7615 85.92 72.7615C85.9232 72.7842 85.9232 72.8072 85.92 72.8299C85.92 72.8777 85.92 72.9462 85.92 73.0351C85.92 73.124 85.9609 73.4865 85.995 73.8353C86.0496 74.5193 86.1383 75.5796 86.2542 76.927C86.4656 79.6152 86.7793 83.5208 87.1681 88.3635C87.9319 98.0626 88.9822 111.558 90.1416 126.715L90.0052 126.592L95.6658 126.394C112.116 125.833 127.038 125.334 137.8 124.992L150.574 124.595L154.045 124.499H154.945H155.259L155.286 124.513Z" fill="#455A64"/>
<path d="M109.572 68.5549V70.2991L127.563 69.4373V67.9735L109.572 68.5549Z" fill="#263238"/>
<path d="M95.9521 123.022H102.206L101.224 105.997H95.0928L95.9521 123.022Z" fill="#F6C647"/>
<path d="M107.287 123.029H113.534L112.559 99.2323H106.428L107.287 123.029Z" fill="#F6C647"/>
<path d="M117.899 122.269H124.153L123.171 91.1132H117.046L117.899 122.269Z" fill="#F6C647"/>
<path d="M142.247 121.059H148.494L147.518 78.5961H141.387L142.247 121.059Z" fill="#F6C647"/>
<path d="M130.4 121.202H136.647L135.665 84.6631H129.541L130.4 121.202Z" fill="#F6C647"/>
<path d="M92.0237 101.585C91.8601 101.332 103.031 93.8629 116.964 84.9025C130.898 75.9421 142.342 68.8832 142.505 69.1705C142.669 69.4577 131.498 76.8928 117.558 85.8532C103.618 94.8136 92.1738 101.838 92.0237 101.585Z" fill="#F6C647"/>
<path d="M136.32 69.1431C136.265 68.8421 140.31 67.8298 145.37 66.8722L146.652 66.6328L145.922 67.7204L145.882 67.7819C142.99 72.0911 140.426 75.4496 140.187 75.3059C139.948 75.1623 142.083 71.5097 144.961 67.1937L145.002 67.1321L145.561 67.9803C140.507 68.9037 136.374 69.4372 136.32 69.1431Z" fill="#F6C647"/>
<path d="M95.0928 128.774H101.626L101.831 129.937H95.0928V128.774Z" fill="#263238"/>
<path d="M106.66 128.295H113.193L113.398 129.458H106.66V128.295Z" fill="#263238"/>
<path d="M118.567 127.953H125.101L125.306 129.116H118.567V127.953Z" fill="#263238"/>
<path d="M129.725 127.673H136.258L136.463 128.843H129.725V127.673Z" fill="#263238"/>
<path d="M143.549 127.263H150.082L150.287 128.432H143.549V127.263Z" fill="#263238"/>
<path d="M172.855 173.624C184.373 173.624 193.71 164.259 193.71 152.707C193.71 141.155 184.373 131.791 172.855 131.791C161.336 131.791 151.999 141.155 151.999 152.707C151.999 164.259 161.336 173.624 172.855 173.624Z" fill="#F6C647"/>
<path opacity="0.3" d="M172.855 173.624C184.373 173.624 193.71 164.259 193.71 152.707C193.71 141.155 184.373 131.791 172.855 131.791C161.336 131.791 151.999 141.155 151.999 152.707C151.999 164.259 161.336 173.624 172.855 173.624Z" fill="black"/>
<path d="M172.854 152.68L152.51 157.27C149.237 142.222 161.335 131.763 172.854 131.763" fill="#F6C647"/>
<path d="M172.882 152.68L172.746 131.763C188.104 131.763 195.715 145.847 193.26 157.133L172.882 152.68Z" fill="#F6C647"/>
<path d="M172.882 152.68L172.746 131.763C188.104 131.763 195.715 145.847 193.26 157.133L172.882 152.68Z" fill="#F6C647"/>
<path opacity="0.1" d="M172.882 152.68L172.746 131.763C188.104 131.763 195.715 145.847 193.26 157.133L172.882 152.68Z" fill="black"/>
<path d="M194.249 103.179C193.843 102.907 193.412 102.678 192.96 102.495C191.7 102.109 190.349 102.147 189.113 102.604C187.517 103.104 185.935 104.376 184.401 105.97C182.866 107.563 181.222 109.492 178.822 110.621C177.663 111.198 176.36 111.415 175.078 111.243C173.921 111.003 172.803 110.602 171.756 110.053C170.835 109.572 169.85 109.224 168.83 109.02C167.944 108.881 167.036 108.995 166.212 109.349C164.998 109.865 164.005 110.796 163.409 111.975C163.217 112.418 163.06 112.876 162.938 113.343C162.959 112.848 163.077 112.363 163.286 111.914C163.857 110.668 164.861 109.674 166.109 109.116C166.965 108.734 167.909 108.599 168.837 108.726C169.89 108.922 170.91 109.268 171.865 109.752C172.885 110.283 173.973 110.669 175.098 110.901C176.311 111.053 177.542 110.843 178.638 110.299C180.943 109.219 182.559 107.303 184.135 105.737C185.71 104.171 187.34 102.851 188.997 102.365C190.285 101.915 191.686 101.915 192.973 102.365C193.317 102.498 193.64 102.677 193.935 102.899C194.051 102.979 194.156 103.073 194.249 103.179Z" fill="#263238"/>
<path d="M196.015 116.695C196.015 116.797 188.608 116.873 179.476 116.873C170.345 116.873 162.938 116.797 162.938 116.695C162.938 116.592 170.345 116.517 179.476 116.517C188.608 116.517 196.015 116.599 196.015 116.695Z" fill="#263238"/>
<path d="M194.174 116.695C194.078 116.695 193.997 112.468 193.997 107.249C193.997 102.03 194.078 97.8096 194.174 97.8096C194.269 97.8096 194.351 102.037 194.351 107.249C194.351 112.461 194.276 116.695 194.174 116.695Z" fill="#263238"/>
<path d="M166.273 108.74C166.273 108.74 166.225 108.671 166.273 108.548C166.304 108.462 166.354 108.384 166.419 108.319C166.484 108.254 166.562 108.204 166.648 108.172C166.778 108.115 166.921 108.094 167.061 108.112C167.202 108.13 167.335 108.186 167.446 108.275C167.566 108.41 167.637 108.582 167.647 108.763C167.657 108.944 167.606 109.123 167.501 109.271C167.397 109.418 167.245 109.526 167.072 109.576C166.898 109.626 166.713 109.616 166.546 109.547C166.428 109.477 166.332 109.376 166.266 109.256C166.2 109.136 166.167 109 166.171 108.863C166.169 108.772 166.186 108.681 166.22 108.597C166.254 108.512 166.304 108.435 166.368 108.371C166.471 108.288 166.546 108.288 166.553 108.302C166.559 108.316 166.368 108.5 166.416 108.849C166.426 108.939 166.456 109.025 166.505 109.101C166.553 109.177 166.619 109.241 166.696 109.287C166.791 109.311 166.892 109.306 166.985 109.272C167.077 109.238 167.158 109.177 167.215 109.096C167.273 109.016 167.304 108.92 167.307 108.821C167.309 108.722 167.281 108.625 167.228 108.542C167.159 108.485 167.078 108.446 166.991 108.429C166.905 108.411 166.815 108.414 166.73 108.439C166.382 108.494 166.321 108.754 166.273 108.74Z" fill="#263238"/>
<path d="M188.574 101.879C188.574 101.879 188.574 101.797 188.697 101.729C188.856 101.649 189.039 101.634 189.209 101.688C189.343 101.725 189.465 101.798 189.561 101.899C189.658 102 189.724 102.126 189.754 102.262C189.765 102.439 189.716 102.614 189.615 102.759C189.514 102.904 189.368 103.01 189.199 103.062C189.031 103.113 188.85 103.106 188.686 103.042C188.522 102.977 188.384 102.859 188.295 102.707C188.246 102.575 188.233 102.432 188.258 102.294C188.283 102.155 188.346 102.026 188.438 101.92C188.553 101.784 188.717 101.698 188.895 101.681C189.018 101.681 189.079 101.722 189.072 101.743C189.065 101.763 188.813 101.777 188.643 102.071C188.595 102.144 188.566 102.227 188.557 102.314C188.547 102.401 188.558 102.488 188.588 102.57C188.648 102.644 188.729 102.698 188.819 102.726C188.91 102.754 189.007 102.754 189.098 102.726C189.189 102.698 189.269 102.643 189.329 102.569C189.389 102.495 189.425 102.405 189.434 102.31C189.416 102.225 189.378 102.146 189.323 102.078C189.269 102.01 189.199 101.956 189.12 101.92C188.82 101.77 188.609 101.927 188.574 101.879Z" fill="#263238"/>
<path d="M193.587 79.492C193.587 79.5878 186.413 79.6699 177.567 79.6699C168.722 79.6699 161.547 79.5878 161.547 79.492C161.547 79.3963 168.715 79.3142 177.567 79.3142C186.419 79.3142 193.587 79.41 193.587 79.492Z" fill="#263238"/>
<path d="M193.587 83.9723C193.587 84.0749 186.413 84.1501 177.567 84.1501C168.722 84.1501 161.547 84.0749 161.547 83.9723C161.547 83.8697 168.715 83.7944 177.567 83.7944C186.419 83.7944 193.587 83.8765 193.587 83.9723Z" fill="#263238"/>
<path d="M193.587 88.4388C193.587 88.5346 186.413 88.6167 177.567 88.6167C168.722 88.6167 161.547 88.5346 161.547 88.4388C161.547 88.3431 168.715 88.261 177.567 88.261C186.419 88.261 193.587 88.3362 193.587 88.4388Z" fill="#263238"/>
<path d="M193.587 92.8984C193.587 93.001 186.413 93.0763 177.567 93.0763C168.722 93.0763 161.547 93.001 161.547 92.8984C161.547 92.7958 168.715 92.7206 177.567 92.7206C186.419 92.7206 193.587 92.8027 193.587 92.8984Z" fill="#263238"/>
<path d="M178.597 71.3456H161.547V72.7888H178.597V71.3456Z" fill="#263238"/>
<path d="M108.215 143.001H91.1646V144.445H108.215V143.001Z" fill="#263238"/>
<path d="M137.82 151.367C137.82 151.469 127.474 151.545 114.714 151.545C101.954 151.545 91.6011 151.469 91.6011 151.367C91.6011 151.264 101.947 151.189 114.714 151.189C127.481 151.189 137.82 151.271 137.82 151.367Z" fill="#263238"/>
<path d="M138.093 155.416C138.093 155.512 127.563 155.594 114.577 155.594C101.592 155.594 91.062 155.512 91.062 155.416C91.062 155.32 101.585 155.238 114.577 155.238C127.569 155.238 138.093 155.334 138.093 155.416Z" fill="#263238"/>
<path d="M138.632 159.233C138.632 159.329 128.04 159.411 114.98 159.411C101.92 159.411 91.3281 159.329 91.3281 159.233C91.3281 159.137 101.92 159.055 114.98 159.055C128.04 159.055 138.632 159.13 138.632 159.233Z" fill="#263238"/>
<path d="M115.928 163.296C115.928 163.392 110.472 163.474 103.761 163.474C97.0503 163.474 91.6011 163.392 91.6011 163.296C91.6011 163.2 97.0571 163.118 103.761 163.118C110.465 163.118 115.928 163.2 115.928 163.296Z" fill="#263238"/>
<path d="M41.6583 274.022V267.866L30.1121 267.763L30.0166 276.812L30.6986 276.86C33.8835 277.058 46.9029 277.64 49.0376 277.011C51.4519 276.299 41.6583 274.022 41.6583 274.022Z" fill="#F6C647"/>
<path d="M49.3446 276.443C49.3446 276.552 45.0275 276.641 39.7011 276.641C34.3747 276.641 30.0508 276.552 30.0508 276.443C30.0508 276.333 34.3747 276.245 39.7011 276.245C45.0275 276.245 49.3446 276.333 49.3446 276.443Z" fill="#263238"/>
<path d="M41.8629 275.287C41.7674 275.232 41.8629 274.897 42.0948 274.603C42.3266 274.309 42.6472 274.117 42.7154 274.193C42.7836 274.268 42.6335 274.548 42.4085 274.877C42.1834 275.205 41.9584 275.342 41.8629 275.287Z" fill="#263238"/>
<path d="M42.5994 275.691C42.4971 275.649 42.5516 275.28 42.7767 274.897C43.0018 274.514 43.3018 274.282 43.3837 274.35C43.4655 274.418 43.3291 274.74 43.1177 275.095C42.9063 275.451 42.7017 275.732 42.5994 275.691Z" fill="#263238"/>
<path d="M33.5218 276.402C33.4741 276.436 33.2968 276.272 33.0444 275.998C32.7373 275.641 32.397 275.313 32.0283 275.02C31.6605 274.749 31.2319 274.573 30.7802 274.507C30.4324 274.459 30.2073 274.507 30.1869 274.452C30.1664 274.398 30.3846 274.254 30.787 274.227C31.3173 274.211 31.8369 274.378 32.2601 274.699C32.6636 275.009 33.0059 275.391 33.2695 275.827C33.4809 276.149 33.5764 276.367 33.5218 276.402Z" fill="#263238"/>
<path d="M41.8969 274.124C41.9515 274.213 41.7469 274.432 41.4195 274.548C41.0922 274.665 40.7989 274.623 40.7853 274.514C40.7716 274.405 40.9967 274.281 41.2899 274.179C41.5832 274.076 41.8355 274.028 41.8969 274.124Z" fill="#263238"/>
<path d="M41.7058 273.522C41.7058 273.632 41.4057 273.727 41.0238 273.734C40.6419 273.741 40.3418 273.652 40.3418 273.543C40.3418 273.433 40.6555 273.344 41.0238 273.338C41.3921 273.331 41.7058 273.413 41.7058 273.522Z" fill="#F6C647"/>
<path d="M49.3446 276.443C49.3446 276.552 45.0275 276.641 39.7011 276.641C34.3747 276.641 30.0508 276.552 30.0508 276.443C30.0508 276.333 34.3747 276.245 39.7011 276.245C45.0275 276.245 49.3446 276.333 49.3446 276.443Z" fill="#263238"/>
<path d="M41.8629 275.287C41.7674 275.232 41.8629 274.897 42.0948 274.603C42.3266 274.309 42.6472 274.117 42.7154 274.193C42.7836 274.268 42.6335 274.548 42.4085 274.877C42.1834 275.205 41.9584 275.342 41.8629 275.287Z" fill="#263238"/>
<path d="M42.5994 275.691C42.4971 275.649 42.5516 275.28 42.7767 274.897C43.0018 274.514 43.3018 274.282 43.3837 274.35C43.4655 274.418 43.3291 274.74 43.1177 275.095C42.9063 275.451 42.7017 275.732 42.5994 275.691Z" fill="#263238"/>
<path d="M33.5218 276.402C33.4741 276.436 33.2968 276.272 33.0444 275.998C32.7373 275.641 32.397 275.313 32.0283 275.02C31.6605 274.749 31.2319 274.573 30.7802 274.507C30.4324 274.459 30.2073 274.507 30.1869 274.452C30.1664 274.398 30.3846 274.254 30.787 274.227C31.3173 274.211 31.8369 274.378 32.2601 274.699C32.6636 275.009 33.0059 275.391 33.2695 275.827C33.4809 276.149 33.5764 276.367 33.5218 276.402Z" fill="#263238"/>
<path d="M41.8969 274.124C41.9515 274.213 41.7469 274.432 41.4195 274.548C41.0922 274.665 40.7989 274.623 40.7853 274.514C40.7716 274.405 40.9967 274.281 41.2899 274.179C41.5832 274.076 41.8355 274.028 41.8969 274.124Z" fill="#263238"/>
<path d="M41.7058 273.522C41.7058 273.632 41.4057 273.727 41.0238 273.734C40.6419 273.741 40.3418 273.652 40.3418 273.543C40.3418 273.433 40.6555 273.344 41.0238 273.338C41.3921 273.331 41.7058 273.413 41.7058 273.522Z" fill="#263238"/>
<path d="M53.8388 271.833L55.6598 265.93L44.6523 262.428L41.9243 271.039L42.6063 271.299C45.5867 272.435 57.8558 276.853 60.0792 276.887C62.5207 276.915 53.8388 271.833 53.8388 271.833Z" fill="#F6C647"/>
<path d="M60.4679 276.422C60.4679 276.532 56.2804 275.335 51.1927 273.748C46.105 272.161 42.0062 270.8 42.0403 270.697C42.0744 270.595 46.2209 271.792 51.3154 273.372C56.41 274.952 60.502 276.32 60.4679 276.422Z" fill="#263238"/>
<path d="M53.6616 273.098C53.5866 273.016 53.7639 272.729 54.0913 272.489C54.4186 272.25 54.7733 272.188 54.8074 272.284C54.8415 272.38 54.6232 272.599 54.3232 272.818C54.0231 273.037 53.7366 273.173 53.6616 273.098Z" fill="#263238"/>
<path d="M54.2411 273.707C54.1593 273.639 54.3161 273.297 54.6503 273.023C54.9845 272.75 55.3323 272.592 55.3937 272.681C55.4551 272.77 55.2232 273.037 54.9163 273.317C54.6094 273.598 54.3298 273.748 54.2411 273.707Z" fill="#263238"/>
<path d="M45.3753 271.696C45.3207 271.696 45.2048 271.511 45.0479 271.169C44.8606 270.738 44.6322 270.326 44.3659 269.938C44.0951 269.571 43.7394 269.275 43.3293 269.076C43.0087 268.933 42.7769 268.905 42.7769 268.85C42.7769 268.796 43.0224 268.714 43.4179 268.809C43.9266 268.954 44.3714 269.268 44.6796 269.699C44.9717 270.113 45.1865 270.576 45.3139 271.067C45.4025 271.436 45.423 271.696 45.3753 271.696Z" fill="#455A64"/>
<path d="M54.0364 271.997C54.0364 272.1 53.8045 272.25 53.4567 272.264C53.1089 272.277 52.8361 272.147 52.8565 272.038C52.877 271.929 53.1362 271.881 53.4431 271.867C53.75 271.853 53.9818 271.888 54.0364 271.997Z" fill="#263238"/>
<path d="M54.0365 271.374C54.0365 271.477 53.6955 271.477 53.3204 271.374C52.9453 271.272 52.6793 271.087 52.7134 270.985C52.7475 270.882 53.0749 270.889 53.4295 270.985C53.7841 271.08 54.0638 271.265 54.0365 271.374Z" fill="#263238"/>
<path d="M61.6751 151.743L46.5211 150.573L23.5649 148.706L26.1293 272.38L46.0641 272.12C46.0641 272.12 46.0641 270.752 46.0164 268.331L57.7059 271.539C57.7059 271.539 69.0953 232.947 72.9758 217.113C76.2153 203.918 61.6751 151.743 61.6751 151.743ZM45.7981 249.124C45.4981 220.574 45.1502 172.023 45.5663 166.086C45.5663 166.086 56.6692 208.83 56.7715 212.202C56.8397 214.24 50.654 233.967 45.7981 249.124Z" fill="#455A64"/>
<path d="M46.1732 267.435C46.1732 267.544 41.7129 267.633 36.216 267.633C30.7191 267.633 26.252 267.544 26.252 267.435C26.252 267.325 30.7122 267.236 36.216 267.236C41.7197 267.236 46.1732 267.325 46.1732 267.435Z" fill="#455A64"/>
<path d="M45.9956 262.989C46.6192 263.137 47.2303 263.334 47.8234 263.577L52.386 265.171L56.9485 266.771C57.5938 266.956 58.2196 267.204 58.8172 267.51C58.151 267.417 57.4954 267.259 56.8599 267.038C55.6732 266.689 54.0432 266.169 52.2564 265.547C50.4695 264.924 48.8464 264.309 47.7279 263.837C47.1141 263.636 46.5311 263.35 45.9956 262.989Z" fill="#455A64"/>
<path d="M64.2597 211.819C63.0268 212.107 61.7675 212.267 60.5019 212.297C59.2467 212.458 57.9782 212.488 56.7168 212.386C57.949 212.093 59.2085 211.93 60.4746 211.901C61.7299 211.74 62.9987 211.713 64.2597 211.819Z" fill="#455A64"/>
<path d="M62.957 214.062C61.9767 213.979 61.0114 213.768 60.0858 213.433C59.1226 213.222 58.1915 212.884 57.3169 212.427C58.3001 212.502 59.2684 212.712 60.1949 213.05C61.7499 213.501 62.9911 213.953 62.957 214.062Z" fill="#455A64"/>
<path d="M47.4008 150.731C47.4924 151.511 47.5266 152.298 47.5031 153.083C47.5031 154.54 47.5031 156.551 47.5031 158.774C47.5031 159.876 47.5031 160.929 47.4622 161.9C47.4872 162.775 47.3244 163.645 46.9848 164.452C46.7429 165.001 46.3562 165.474 45.8663 165.82C45.6993 165.958 45.4998 166.053 45.2866 166.093C45.2866 166.093 45.4776 165.97 45.7845 165.71C46.2151 165.34 46.5498 164.871 46.7597 164.342C47.0441 163.559 47.1716 162.726 47.1348 161.893C47.1348 160.915 47.1348 159.841 47.1348 158.761C47.1348 156.538 47.1894 154.527 47.2303 153.077C47.2281 152.291 47.2851 151.507 47.4008 150.731Z" fill="#455A64"/>
<path d="M35.9908 150.033C35.9981 150.133 35.9981 150.234 35.9908 150.334C35.9908 150.553 35.9908 150.847 35.9908 151.223C35.9908 152.016 35.9294 153.166 35.8817 154.643C35.7862 157.618 35.6498 161.893 35.4793 167.167C35.1587 177.742 34.8314 192.359 34.7495 208.494C34.6677 224.63 34.8518 239.274 35.0633 249.842C35.1792 255.116 35.2679 259.418 35.3361 262.366C35.3361 263.837 35.3906 264.979 35.4111 265.786C35.4111 266.162 35.4111 266.47 35.4111 266.675C35.4184 266.776 35.4184 266.876 35.4111 266.976C35.4037 266.876 35.4037 266.776 35.4111 266.675C35.4111 266.463 35.4111 266.169 35.3633 265.793C35.3633 264.993 35.2883 263.851 35.2269 262.373C35.111 259.418 34.9746 255.136 34.8382 249.849C34.5586 239.268 34.3403 224.65 34.4222 208.494C34.504 192.338 34.8723 177.714 35.2542 167.16C35.4452 161.873 35.6225 157.584 35.7725 154.636C35.8476 153.172 35.9089 152.03 35.9499 151.216C35.9499 150.84 35.9908 150.532 36.0044 150.327C35.9929 150.229 35.9883 150.131 35.9908 150.033Z" fill="#455A64"/>
<path d="M56.7101 153.145C56.7515 153.236 56.7857 153.329 56.8124 153.426C56.8738 153.631 56.9624 153.904 57.0716 154.26C57.2898 154.992 57.6376 156.073 58.0195 157.482C58.8038 160.293 59.8609 164.376 61.0408 169.458C62.2207 174.541 63.5301 180.601 64.8941 187.359C66.2581 194.117 67.6971 201.559 68.9861 209.411C69.1498 210.396 69.2998 211.374 69.4294 212.352C69.4294 212.612 69.4771 212.879 69.4771 213.132L69.3544 213.857C69.2657 214.343 69.1975 214.828 69.0884 215.3C68.6997 217.202 68.2632 219.062 67.7926 220.882C66.8651 224.52 65.883 228.002 64.9146 231.313C62.9913 237.934 61.1363 243.857 59.5609 248.83C57.9854 253.803 56.6692 257.804 55.7417 260.567L54.6641 263.748L54.3708 264.576C54.3454 264.671 54.3088 264.763 54.2617 264.849C54.2795 264.752 54.3046 264.656 54.3367 264.562C54.4049 264.357 54.4868 264.083 54.5959 263.727L55.6121 260.526L59.3222 248.755C60.8635 243.775 62.6912 237.845 64.6008 231.224C65.5556 227.913 66.5309 224.425 67.4584 220.793C67.9222 218.98 68.3587 217.126 68.7474 215.232C68.8565 214.76 68.9179 214.281 68.9997 213.802L69.1225 213.084C69.1225 212.851 69.0884 212.626 69.0748 212.4C68.9452 211.436 68.802 210.457 68.6383 209.479C67.3425 201.634 65.9103 194.192 64.5463 187.434C63.1823 180.676 61.9479 174.568 60.8021 169.513C59.6563 164.458 58.6265 160.334 57.8831 157.516C57.5285 156.107 57.2011 155.019 57.0034 154.281L56.7783 153.439C56.7448 153.344 56.7219 153.245 56.7101 153.145Z" fill="#455A64"/>
<path d="M45.7366 246.614C45.7915 246.932 45.8121 247.255 45.7979 247.578C45.7979 248.262 45.798 249.158 45.8321 250.218C45.8321 252.51 45.9139 255.554 45.9616 258.912C46.0094 262.27 46.1389 265.314 46.2003 267.606C46.2003 268.666 46.2549 269.555 46.2753 270.246C46.3062 270.567 46.3062 270.89 46.2753 271.21C46.2001 270.897 46.1589 270.575 46.1526 270.253C46.098 269.63 46.0366 268.734 45.9684 267.619C45.832 265.396 45.7025 262.318 45.6274 258.919C45.5524 255.519 45.5661 252.441 45.6274 250.218C45.6274 249.103 45.6752 248.166 45.7025 247.578C45.6887 247.256 45.7001 246.934 45.7366 246.614Z" fill="#455A64"/>
<path d="M61.6751 151.743L46.5211 150.573L23.5649 148.706L26.1293 272.38L46.0641 272.12C46.0641 272.12 46.0641 270.752 46.0164 268.331L57.7059 271.539C57.7059 271.539 69.0953 232.947 72.9758 217.113C76.2153 203.918 61.6751 151.743 61.6751 151.743ZM45.7981 249.124C45.4981 220.574 45.1502 172.023 45.5663 166.086C45.5663 166.086 56.6692 208.83 56.7715 212.202C56.8397 214.24 50.654 233.967 45.7981 249.124Z" fill="#263238"/>
<path d="M46.1732 267.435C46.1732 267.544 41.7129 267.633 36.216 267.633C30.7191 267.633 26.252 267.544 26.252 267.435C26.252 267.325 30.7122 267.236 36.216 267.236C41.7197 267.236 46.1732 267.325 46.1732 267.435Z" fill="#455A64"/>
<path d="M45.9956 262.989C46.6192 263.137 47.2303 263.334 47.8234 263.577L52.386 265.171L56.9485 266.771C57.5938 266.956 58.2196 267.204 58.8172 267.51C58.151 267.417 57.4954 267.259 56.8599 267.038C55.6732 266.689 54.0432 266.169 52.2564 265.547C50.4695 264.924 48.8464 264.309 47.7279 263.837C47.1141 263.636 46.5311 263.35 45.9956 262.989Z" fill="#455A64"/>
<path d="M64.2597 211.819C63.0268 212.107 61.7675 212.267 60.5019 212.297C59.2467 212.458 57.9782 212.488 56.7168 212.386C57.949 212.093 59.2085 211.93 60.4746 211.901C61.7299 211.74 62.9987 211.713 64.2597 211.819Z" fill="#455A64"/>
<path d="M62.957 214.062C61.9767 213.979 61.0114 213.768 60.0858 213.433C59.1226 213.222 58.1915 212.884 57.3169 212.427C58.3001 212.502 59.2684 212.712 60.1949 213.05C61.7499 213.501 62.9911 213.953 62.957 214.062Z" fill="#455A64"/>
<path d="M47.4008 150.731C47.4924 151.511 47.5266 152.298 47.5031 153.083C47.5031 154.54 47.5031 156.551 47.5031 158.774C47.5031 159.876 47.5031 160.929 47.4622 161.9C47.4872 162.775 47.3244 163.645 46.9848 164.452C46.7429 165.001 46.3562 165.474 45.8663 165.82C45.6993 165.958 45.4998 166.053 45.2866 166.093C45.2866 166.093 45.4776 165.97 45.7845 165.71C46.2151 165.34 46.5498 164.871 46.7597 164.342C47.0441 163.559 47.1716 162.726 47.1348 161.893C47.1348 160.915 47.1348 159.841 47.1348 158.761C47.1348 156.538 47.1894 154.527 47.2303 153.077C47.2281 152.291 47.2851 151.507 47.4008 150.731Z" fill="#455A64"/>
<path d="M35.9908 150.033C35.9981 150.133 35.9981 150.234 35.9908 150.334C35.9908 150.553 35.9908 150.847 35.9908 151.223C35.9908 152.016 35.9294 153.166 35.8817 154.643C35.7862 157.618 35.6498 161.893 35.4793 167.167C35.1587 177.742 34.8314 192.359 34.7495 208.494C34.6677 224.63 34.8518 239.274 35.0633 249.842C35.1792 255.116 35.2679 259.418 35.3361 262.366C35.3361 263.837 35.3906 264.979 35.4111 265.786C35.4111 266.162 35.4111 266.47 35.4111 266.675C35.4184 266.776 35.4184 266.876 35.4111 266.976C35.4037 266.876 35.4037 266.776 35.4111 266.675C35.4111 266.463 35.4111 266.169 35.3633 265.793C35.3633 264.993 35.2883 263.851 35.2269 262.373C35.111 259.418 34.9746 255.136 34.8382 249.849C34.5586 239.268 34.3403 224.65 34.4222 208.494C34.504 192.338 34.8723 177.714 35.2542 167.16C35.4452 161.873 35.6225 157.584 35.7725 154.636C35.8476 153.172 35.9089 152.03 35.9499 151.216C35.9499 150.84 35.9908 150.532 36.0044 150.327C35.9929 150.229 35.9883 150.131 35.9908 150.033Z" fill="#455A64"/>
<path d="M56.7101 153.145C56.7515 153.236 56.7857 153.329 56.8124 153.426C56.8738 153.631 56.9624 153.904 57.0716 154.26C57.2898 154.992 57.6376 156.073 58.0195 157.482C58.8038 160.293 59.8609 164.376 61.0408 169.458C62.2207 174.541 63.5301 180.601 64.8941 187.359C66.2581 194.117 67.6971 201.559 68.9861 209.411C69.1498 210.396 69.2998 211.374 69.4294 212.352C69.4294 212.612 69.4771 212.879 69.4771 213.132L69.3544 213.857C69.2657 214.343 69.1975 214.828 69.0884 215.3C68.6997 217.202 68.2632 219.062 67.7926 220.882C66.8651 224.52 65.883 228.002 64.9146 231.313C62.9913 237.934 61.1363 243.857 59.5609 248.83C57.9854 253.803 56.6692 257.804 55.7417 260.567L54.6641 263.748L54.3708 264.576C54.3454 264.671 54.3088 264.763 54.2617 264.849C54.2795 264.752 54.3046 264.656 54.3367 264.562C54.4049 264.357 54.4868 264.083 54.5959 263.727L55.6121 260.526L59.3222 248.755C60.8635 243.775 62.6912 237.845 64.6008 231.224C65.5556 227.913 66.5309 224.425 67.4584 220.793C67.9222 218.98 68.3587 217.126 68.7474 215.232C68.8565 214.76 68.9179 214.281 68.9997 213.802L69.1225 213.084C69.1225 212.851 69.0884 212.626 69.0748 212.4C68.9452 211.436 68.802 210.457 68.6383 209.479C67.3425 201.634 65.9103 194.192 64.5463 187.434C63.1823 180.676 61.9479 174.568 60.8021 169.513C59.6563 164.458 58.6265 160.334 57.8831 157.516C57.5285 156.107 57.2011 155.019 57.0034 154.281L56.7783 153.439C56.7448 153.344 56.7219 153.245 56.7101 153.145Z" fill="#455A64"/>
<path d="M45.7366 246.614C45.7915 246.932 45.8121 247.255 45.7979 247.578C45.7979 248.262 45.798 249.158 45.8321 250.218C45.8321 252.51 45.9139 255.554 45.9616 258.912C46.0094 262.27 46.1389 265.314 46.2003 267.606C46.2003 268.666 46.2549 269.555 46.2753 270.246C46.3062 270.567 46.3062 270.89 46.2753 271.21C46.2001 270.897 46.1589 270.575 46.1526 270.253C46.098 269.63 46.0366 268.734 45.9684 267.619C45.832 265.396 45.7025 262.318 45.6274 258.919C45.5524 255.519 45.5661 252.441 45.6274 250.218C45.6274 249.103 45.6752 248.166 45.7025 247.578C45.6887 247.256 45.7001 246.934 45.7366 246.614Z" fill="#455A64"/>
<path d="M35.5678 92.3854L47.1618 93.2472C47.3187 91.8792 47.5437 86.674 47.5437 86.674C47.5437 86.674 52.3791 86.2294 52.7338 81.4277C53.0884 76.626 52.9384 65.5384 52.9384 65.5384C50.2877 64.1947 47.3272 63.5858 44.3631 63.7746C41.3991 63.9634 38.5392 64.9431 36.0793 66.6122L35.3359 67.1184L35.5678 92.3854Z" fill="#E5BAAB"/>
<path d="M51.2881 73.7259C51.1963 73.6289 51.1348 73.507 51.1113 73.3753C51.0878 73.2436 51.1033 73.1079 51.1559 72.985C51.2085 72.862 51.2959 72.7573 51.4073 72.6836C51.5187 72.61 51.6492 72.5708 51.7826 72.5708C51.916 72.5708 52.0465 72.61 52.1578 72.6836C52.2692 72.7573 52.3566 72.862 52.4093 72.985C52.4619 73.1079 52.4774 73.2436 52.4539 73.3753C52.4304 73.507 52.3689 73.6289 52.277 73.7259C52.2133 73.7932 52.1366 73.8467 52.0516 73.8833C51.9666 73.9199 51.8751 73.9388 51.7826 73.9388C51.6901 73.9388 51.5985 73.9199 51.5135 73.8833C51.4285 73.8467 51.3518 73.7932 51.2881 73.7259Z" fill="#263238"/>
<path d="M52.5158 72.6998C52.4339 72.7819 51.9906 72.392 51.3291 72.3442C50.6675 72.2963 50.1697 72.6109 50.1015 72.522C50.0333 72.4331 50.1492 72.3373 50.3743 72.1937C50.6645 72.0025 51.0107 71.9157 51.3564 71.9474C51.7047 71.9683 52.036 72.1055 52.2975 72.3373C52.4953 72.5083 52.5567 72.652 52.5158 72.6998Z" fill="#263238"/>
<path d="M44.8772 72.8093C44.9852 72.8884 45.0677 72.9976 45.1142 73.1233C45.1608 73.2491 45.1695 73.3858 45.1393 73.5164C45.109 73.6471 45.0411 73.7659 44.944 73.8582C44.8469 73.9504 44.7249 74.012 44.5932 74.0352C44.4615 74.0585 44.3259 74.0424 44.2032 73.989C44.0805 73.9355 43.9763 73.8471 43.9033 73.7347C43.8304 73.6222 43.792 73.4908 43.793 73.3566C43.794 73.2225 43.8342 73.0916 43.9088 72.9803C43.96 72.9038 44.026 72.8385 44.103 72.7883C44.18 72.7381 44.2663 72.7039 44.3567 72.688C44.4472 72.672 44.5399 72.6745 44.6293 72.6954C44.7188 72.7162 44.8031 72.7549 44.8772 72.8093Z" fill="#263238"/>
<path d="M45.3137 72.8435C45.2318 72.9188 44.7885 72.5289 44.127 72.481C43.4654 72.4331 42.9676 72.7546 42.8994 72.6657C42.8312 72.5768 42.9471 72.4742 43.1654 72.3305C43.461 72.1463 43.807 72.0602 44.1543 72.0843C44.5016 72.1096 44.8315 72.2463 45.0954 72.4742C45.2932 72.652 45.3546 72.8093 45.3137 72.8435Z" fill="#263238"/>
<path d="M47.6259 78.466C47.9748 78.3578 48.3383 78.3047 48.7034 78.3086C48.8808 78.3086 49.024 78.2744 49.0444 78.1787C49.0617 78.0021 49.0286 77.8242 48.949 77.6657L48.5125 76.2977C48.0925 75.1281 47.7842 73.9211 47.5918 72.693C48.1203 73.816 48.5427 74.9862 48.8535 76.1882L49.2627 77.5562C49.3612 77.7826 49.3804 78.0357 49.3173 78.2744C49.2886 78.3385 49.2452 78.3948 49.1907 78.4388C49.1362 78.4827 49.072 78.5132 49.0035 78.5275C48.9062 78.5402 48.8076 78.5402 48.7103 78.5275C48.3479 78.5652 47.9817 78.5444 47.6259 78.466Z" fill="#263238"/>
<path d="M45.4366 79.0611C44.7546 78.6096 47.2643 80.1897 48.6147 80.2102C48.3694 80.5435 48.0185 80.7833 47.6194 80.8902C47.2204 80.997 46.797 80.9647 46.4187 80.7984C45.0137 80.176 45.4366 79.0611 45.4366 79.0611Z" fill="white"/>
<path d="M47.5164 86.6055C45.3019 86.5117 43.1653 85.7593 41.3784 84.4441C41.3784 84.4441 42.6401 87.9941 47.4482 87.8641L47.5164 86.6055Z" fill="#D78776"/>
<path d="M36.2502 71.3798C36.1411 71.3387 32.6901 70.8873 33.0175 74.9776C33.3449 79.0679 37.355 77.3785 37.3482 77.2622C37.3414 77.1459 36.2502 71.3798 36.2502 71.3798Z" fill="#E5BAAB"/>
<path d="M35.9498 75.9283C35.9498 75.9283 35.8885 75.9831 35.7725 76.0515C35.6083 76.1359 35.4184 76.1554 35.2405 76.1062C34.9644 75.9584 34.732 75.7402 34.5668 75.4736C34.4015 75.207 34.3093 74.9014 34.2994 74.5877C34.2618 74.2385 34.3038 73.8854 34.4222 73.5549C34.4494 73.424 34.5077 73.3017 34.5919 73.1981C34.6762 73.0946 34.784 73.0128 34.9064 72.9598C34.9869 72.9337 35.0739 72.9358 35.1531 72.9656C35.2324 72.9954 35.2992 73.0512 35.3429 73.1239C35.4042 73.2334 35.3906 73.3155 35.411 73.3223C35.4315 73.3291 35.4929 73.2471 35.411 73.0829C35.3826 72.9825 35.3198 72.8953 35.2337 72.8367C35.1128 72.7645 34.9693 72.7401 34.8314 72.7683C34.6689 72.8144 34.5209 72.9015 34.4016 73.0212C34.2822 73.1409 34.1954 73.2893 34.1494 73.4523C34.0023 73.8186 33.9484 74.2158 33.9925 74.6082C34.0001 74.9736 34.1156 75.3286 34.3244 75.6281C34.5332 75.9276 34.8259 76.1583 35.1655 76.2909C35.2773 76.3144 35.3929 76.3125 35.5039 76.2852C35.6148 76.258 35.7183 76.2062 35.8066 76.1335C35.9498 76.0309 35.9703 75.9352 35.9498 75.9283Z" fill="#D78776"/>
<path d="M53.2456 63.8079C53.5216 63.8005 53.7923 63.7295 54.0366 63.6004C54.2809 63.4713 54.4923 63.2876 54.6545 63.0635C54.8167 62.8394 54.9254 62.5809 54.972 62.3079C55.0187 62.035 55.0022 61.7549 54.9237 61.4894C54.8452 61.2239 54.7068 60.98 54.5193 60.7767C54.3318 60.5734 54.1002 60.416 53.8424 60.3168C53.5846 60.2176 53.3075 60.1792 53.0326 60.2046C52.7576 60.2299 52.4921 60.3184 52.2567 60.4631C52.827 59.9883 53.2917 59.3987 53.6207 58.7326C53.7798 58.3966 53.8324 58.0198 53.7714 57.6529C53.7105 57.286 53.5388 56.9466 53.2797 56.6806C52.9796 56.4814 52.6324 56.3651 52.2732 56.3435C51.9139 56.3219 51.5554 56.3957 51.2337 56.5575C50.2175 56.9952 49.4128 57.8571 48.3693 58.2196C47.3258 58.5821 46.1596 58.4043 45.0411 58.4521C43.7861 58.4746 42.5706 58.8961 41.5697 59.656C40.7169 60.328 40.165 61.3121 40.0352 62.392C39.9012 62.2074 39.753 62.0336 39.5919 61.8721C39.0615 61.2372 38.346 60.7851 37.5459 60.5794C37.4982 60.6683 38.4325 61.1881 39.326 62.1184C39.5692 62.3518 39.797 62.6008 40.008 62.8639C38.453 62.6724 36.7412 62.6587 35.5136 63.63C35.0163 64.0746 34.6232 64.6241 34.3626 65.239C34.102 65.854 33.9804 66.5191 34.0064 67.1868C34.0064 68.5138 34.552 69.7792 34.9407 71.0514C35.0347 71.4118 35.1968 71.7508 35.4181 72.05L36.0046 75.4701L38.1393 75.429L38.0029 68.2539C38.0029 68.2539 37.7846 65.2306 40.3762 65.5179C42.9678 65.8051 46.5142 68.7121 51.5474 67.9734C52.3733 67.9272 53.1778 67.6933 53.9003 67.2894C54.25 67.0673 54.5342 66.7555 54.7237 66.3864C54.9131 66.0172 55.0009 65.6041 54.9779 65.1895C54.9282 64.7771 54.7186 64.4008 54.3944 64.1422C54.0702 63.8836 53.6575 63.7635 53.2456 63.8079Z" fill="#263238"/>
<path d="M96.6208 99.2185L96.9346 97.0434C97.2552 95.8535 97.4562 94.6345 97.5347 93.4045C97.5861 92.7931 97.5307 92.1774 97.371 91.585C97.2102 90.8395 96.9438 90.1208 96.5799 89.451C96.1844 88.8696 96.7027 88.083 97.2619 88.3224C97.8212 88.5618 98.9874 90.1076 99.3625 92.3375C99.7376 94.5673 101.49 91.4756 102.145 90.3607C102.8 89.2458 105.003 85.8873 105.507 85.8189C106.244 85.7163 106.489 86.5029 105.801 87.5905C105.112 88.678 103.298 92.1323 103.905 92.4469C104.359 92.3741 104.824 92.3974 105.269 92.5153C105.34 92.5364 105.404 92.5793 105.45 92.6381C105.497 92.6969 105.524 92.7687 105.528 92.8436C105.525 93.1887 105.562 93.5329 105.637 93.8696C105.637 93.8696 106.53 93.6644 106.714 94.0543C106.839 94.4547 106.897 94.873 106.885 95.2923C106.885 95.2923 107.567 95.0598 107.894 95.2923C108.576 95.8464 107.703 96.7971 107.703 96.7971C105.695 99.1996 103.538 101.473 101.245 103.603L96.5458 99.0612" fill="#E5BAAB"/>
<path d="M105.364 94.0201C105.163 94.4429 104.894 94.829 104.566 95.1624C104.293 95.4907 103.952 95.8464 103.55 96.2773C103.34 96.5012 103.112 96.7071 102.868 96.8929C102.718 97.0127 102.536 97.0867 102.345 97.1061C102.154 97.1255 101.962 97.0895 101.79 97.0023C101.697 96.9475 101.618 96.871 101.56 96.7795C101.502 96.6879 101.466 96.5838 101.456 96.4757C101.442 96.2829 101.485 96.0904 101.579 95.9216C101.747 95.6676 101.929 95.4233 102.124 95.1897C102.472 94.752 102.759 94.3416 102.997 93.9859C103.226 93.5837 103.489 93.2016 103.782 92.8436C103.668 93.2986 103.474 93.7295 103.209 94.1159C102.961 94.5556 102.688 94.9804 102.39 95.3881C102.209 95.6063 102.041 95.8347 101.886 96.0721C101.763 96.2978 101.77 96.5783 101.968 96.6809C102.079 96.728 102.201 96.7446 102.321 96.7289C102.44 96.7133 102.554 96.666 102.65 96.5919C102.876 96.4201 103.09 96.2327 103.291 96.0311C103.7 95.648 104.055 95.2855 104.348 94.9777C104.653 94.6248 104.994 94.3039 105.364 94.0201Z" fill="#D78776"/>
<path d="M106.557 95.4223C106.357 95.7874 106.099 96.1176 105.794 96.4005C105.486 96.7315 105.15 97.0358 104.791 97.3102C104.576 97.4737 104.347 97.6201 104.109 97.748C103.967 97.8192 103.816 97.8676 103.659 97.8916C103.564 97.9071 103.467 97.9023 103.374 97.8775C103.281 97.8528 103.195 97.8086 103.12 97.748C102.994 97.6173 102.915 97.4488 102.894 97.2683C102.873 97.0878 102.912 96.9054 103.004 96.7493C103.142 96.5056 103.305 96.2764 103.488 96.0653C103.789 95.7165 104.068 95.3813 104.348 95.0462C104.846 94.4716 105.173 94.1364 105.214 94.1638C105.034 94.5393 104.805 94.889 104.532 95.2035L103.768 96.291C103.607 96.4846 103.461 96.6904 103.332 96.9066C103.279 96.9939 103.255 97.0953 103.262 97.197C103.269 97.2987 103.308 97.3956 103.373 97.4743C103.495 97.5906 103.754 97.5427 103.98 97.4333C104.203 97.3171 104.42 97.1868 104.627 97.0434C104.982 96.7899 105.321 96.5158 105.644 96.2226C105.915 95.9196 106.222 95.6509 106.557 95.4223Z" fill="#D78776"/>
<path d="M106.837 97.3785C106.871 97.3785 106.837 97.6863 106.516 98.0625C106.419 98.179 106.3 98.2747 106.165 98.344C106.03 98.4133 105.883 98.4548 105.732 98.4661C105.537 98.4677 105.347 98.4026 105.193 98.2814C105.109 98.2103 105.041 98.1213 104.995 98.0208C104.949 97.9202 104.926 97.8106 104.927 97.7C104.981 97.3514 105.122 97.022 105.337 96.7424C105.48 96.5166 105.638 96.2997 105.807 96.0926C106.1 95.7369 106.312 95.5522 106.353 95.5864C106.394 95.6206 106.244 95.8532 106.012 96.2704C105.875 96.5098 105.739 96.7287 105.616 96.9544C105.452 97.1957 105.338 97.468 105.282 97.7547C105.287 97.8708 105.337 97.9805 105.421 98.0607C105.505 98.141 105.616 98.1858 105.732 98.1856C105.958 98.1784 106.174 98.0884 106.339 97.9326C106.646 97.6042 106.789 97.3511 106.837 97.3785Z" fill="#D78776"/>
<path d="M96.1093 96.3936C96.1093 96.3936 78.2204 114.048 75.7106 114.178C72.8462 114.314 64.0348 101.784 64.0348 101.784C58.3947 93.0557 50.954 91.6467 48.2397 91.4278V90.3471L34.9066 89.2527C34.9066 89.2527 34.9066 90.4018 34.9066 91.4073H29.0209C29.0209 91.4073 18.4499 90.9216 16.8677 105.163L24.4652 111.189L27.5819 122.817C28.6663 126.866 24.7925 133.316 22.9443 143.761C22.6593 145.502 22.949 147.289 23.7695 148.85L62.2684 153.289L60.2224 123.767L59.6018 116.927C62.7731 121.271 68.4678 127.413 75.4447 127.276C87.3456 127.051 103.877 101.968 103.877 101.968L96.1093 96.3936Z" fill="#E0E0E0"/>
<path d="M43.7519 90.1555C43.818 90.7625 43.818 91.3748 43.7519 91.9818C43.6525 93.5014 43.4474 95.0121 43.1381 96.503L43.0904 96.7288L42.8858 96.6193C42.422 96.3731 41.9378 96.1132 41.4467 95.8259C39.5371 94.6973 37.9072 93.5345 36.6728 92.7274C36.0064 92.3206 35.3642 91.8753 34.7495 91.3936C34.9536 91.4534 35.1487 91.5408 35.3292 91.6535C35.6839 91.8518 36.1953 92.1391 36.8091 92.5153C38.0504 93.2677 39.7008 94.4032 41.5832 95.5181C42.0606 95.7985 42.5379 96.0653 43.0017 96.3115L42.7494 96.4278C43.1449 94.6631 43.3359 93.083 43.4791 91.9613C43.5335 91.3544 43.6246 90.7513 43.7519 90.1555Z" fill="#FAFAFA"/>
<path d="M48.2804 91.503C48.1947 92.0905 48.0671 92.6712 47.8985 93.2404C47.7689 93.7807 47.6325 94.4237 47.4006 95.1214C47.2799 95.4902 47.1364 95.8511 46.971 96.2021C46.9233 96.3279 46.8374 96.4356 46.7254 96.5099C46.6478 96.5577 46.5562 96.5776 46.4658 96.5664C46.3753 96.5552 46.2914 96.5136 46.2276 96.4483C46.0998 96.2594 45.9967 96.0548 45.9207 95.8396C45.2387 94.2869 44.6999 92.8778 44.3043 91.845C44.0556 91.3039 43.8658 90.7375 43.7383 90.1555C44.0568 90.6586 44.3242 91.1925 44.5362 91.7492C44.9932 92.7547 45.6001 94.1501 46.248 95.7028C46.311 95.8755 46.3885 96.0426 46.4799 96.2021C46.514 96.2021 46.4799 96.2021 46.5413 96.2021C46.5927 96.1604 46.6326 96.1062 46.6572 96.0448C46.8204 95.7083 46.9661 95.3635 47.0937 95.0119C47.3324 94.3279 47.4961 93.6986 47.653 93.172C47.7886 92.5906 47.9995 92.0295 48.2804 91.503Z" fill="#FAFAFA"/>
<path d="M45.7979 139.274C45.7653 139.114 45.747 138.951 45.7433 138.788C45.7433 138.432 45.7161 137.976 45.6615 137.42C45.6069 136.161 45.5251 134.417 45.4296 132.276C45.2659 127.899 45.0341 121.914 44.7885 115.306C44.543 108.699 44.3862 102.714 44.2498 98.3362C44.202 96.1884 44.1611 94.4442 44.127 93.1857C44.127 92.6111 44.127 92.146 44.127 91.8177C44.1094 91.654 44.1094 91.4889 44.127 91.3252C44.1584 91.4852 44.1744 91.6478 44.1747 91.8108C44.1747 92.1665 44.2293 92.6316 44.2634 93.1788C44.318 94.4305 44.3998 96.1748 44.4953 98.3157C44.659 102.693 44.884 108.678 45.1364 115.286C45.3887 121.893 45.5319 127.878 45.6751 132.263C45.7229 134.404 45.7638 136.148 45.7979 137.406C45.7979 137.988 45.7979 138.453 45.7979 138.808C45.814 138.963 45.814 139.119 45.7979 139.274Z" fill="#F5F5F5"/>
<path d="M43.3701 94.4784L44.4886 97.5701L45.4502 94.2527L43.9566 90.9285L43.3701 94.4784Z" fill="#F6C647"/>
<path d="M44.6931 96.6467L43.9565 131.449L49.1943 142.434L51.2608 130.074L44.6931 96.6467Z" fill="#F6C647"/>
<path d="M75.9013 118.48C75.9013 118.48 75.9013 118.583 75.9013 118.754L75.8604 119.013L75.7445 118.754C75.4805 118.062 75.3286 117.332 75.2944 116.592C75.1815 115.767 75.2801 114.927 75.5808 114.15C75.6831 114.15 75.5808 115.245 75.649 116.572C75.7036 117.515 75.8536 118.323 75.9013 118.712H75.7445C75.8059 118.528 75.8741 118.48 75.9013 118.48Z" fill="#FAFAFA"/>
<path d="M77.4361 118.364C76.9274 117.828 76.5493 117.182 76.3313 116.476C76.0031 115.824 75.8237 115.106 75.8062 114.376C76.1533 115.012 76.4366 115.681 76.6518 116.373C76.9771 117.01 77.2398 117.676 77.4361 118.364Z" fill="#FAFAFA"/>
<path d="M102.758 103.63C101.283 102.848 99.8659 101.961 98.5164 100.976C97.1025 100.091 95.7533 99.106 94.479 98.0283C95.9534 98.8171 97.3709 99.7085 98.721 100.696C100.135 101.577 101.484 102.557 102.758 103.63Z" fill="#FAFAFA"/>
<path d="M28.4 109.219C28.4 109.219 25.5629 129.055 26.9064 130.163C34.3266 136.421 44.6384 139.704 48.3212 140.737C48.86 140.607 49.4875 140.436 50.2104 140.204C50.837 140.004 51.4252 139.699 51.9495 139.301C52.619 138.83 53.2203 138.268 53.7363 137.632C53.8142 137.495 53.9325 137.387 54.0748 137.32C54.2171 137.254 54.3764 137.234 54.5306 137.262C54.6849 137.291 54.8265 137.367 54.9359 137.48C55.0452 137.592 55.117 137.736 55.1412 137.892C55.1753 138.576 54.0841 140.334 52.0313 141.62C52.0313 141.62 56.7576 149.246 58.2648 149.937C59.772 150.628 64.0823 152.57 63.3525 152.94C62.6228 153.309 57.3782 151.784 57.3782 151.784L46.739 148.932C46.739 148.932 11.5478 143.398 13.8871 127.208C15.3261 117.283 16.8947 108.343 17.4607 106.079L28.4 109.219Z" fill="#E5BAAB"/>
<path d="M16.8676 105.156L13.744 126.777C13.0143 133.432 17.4609 138.72 23.442 141.695C32.5467 146.216 46.064 149.445 45.948 149.424C45.8321 149.404 46.8619 139.773 46.8619 139.773C46.8619 139.773 27.9091 131.565 27.3158 128.008C26.7225 124.451 29.7233 109.677 29.7233 109.677L16.8676 105.156Z" fill="#E0E0E0"/>
<path d="M45.9206 149.424C45.9134 149.367 45.9134 149.31 45.9206 149.253C45.9206 149.116 45.9206 148.952 45.9547 148.754C45.9888 148.282 46.0365 147.646 46.1047 146.832C46.2479 145.135 46.4594 142.728 46.7117 139.766L46.7867 139.889L37.2387 135.258L34.5107 133.89C33.59 133.398 32.6625 132.858 31.7418 132.263C30.8076 131.658 29.9104 130.998 29.0547 130.286C28.6251 129.923 28.1954 129.54 27.7862 129.137C27.5555 128.934 27.3696 128.684 27.2406 128.405C27.1683 128.269 27.1155 128.124 27.0837 127.974C27.039 127.831 27.007 127.685 26.9883 127.536C26.6814 125.169 27.3088 122.94 27.6703 120.812C28.0317 118.685 28.3932 116.613 28.7342 114.656C29.4162 110.73 30.0368 107.201 30.5551 104.219C30.835 102.897 30.9948 101.554 31.0325 100.203C31.0457 99.1876 30.8361 98.1812 30.4187 97.2554C30.151 96.6714 29.7709 96.146 29.3002 95.7096C28.9729 95.4155 28.7751 95.2992 28.7819 95.2787C28.9848 95.3811 29.1748 95.5074 29.348 95.6549C29.8487 96.0786 30.2553 96.6028 30.5415 97.1939C30.9891 98.1338 31.2221 99.1619 31.2235 100.203C31.2083 101.566 31.0644 102.924 30.7938 104.26C30.296 107.249 29.7026 110.785 29.0479 114.718C28.7137 116.681 28.3659 118.747 28.0044 120.874C27.9158 121.407 27.8203 121.948 27.7248 122.495C27.6293 123.042 27.527 123.576 27.452 124.123C27.2727 125.229 27.2429 126.354 27.3634 127.468C27.3849 127.604 27.4145 127.739 27.452 127.871C27.4788 128.003 27.5248 128.129 27.5884 128.247C27.7008 128.489 27.8636 128.704 28.0658 128.877C28.4682 129.273 28.8842 129.65 29.3071 130.005C30.1513 130.71 31.0372 131.364 31.96 131.962C32.8671 132.557 33.781 133.09 34.688 133.583L37.416 134.951L46.889 139.684L46.964 139.725V139.807C46.6571 142.769 46.4116 145.17 46.2411 146.866C46.1456 147.673 46.0774 148.316 46.0229 148.781C45.9956 148.982 45.9751 149.146 45.9615 149.274C45.9527 149.325 45.939 149.375 45.9206 149.424Z" fill="#FAFAFA"/>
<path d="M44.1611 138.453C44.1813 138.948 44.1423 139.444 44.0451 139.93C43.9292 140.833 43.7382 142.078 43.4859 143.446C43.2335 144.814 42.9471 146.045 42.7152 146.928C42.6216 147.414 42.4634 147.886 42.2446 148.33C42.2684 147.835 42.3438 147.345 42.4697 146.866C42.6697 145.835 42.8971 144.673 43.1517 143.378C43.3903 141.717 43.7274 140.073 44.1611 138.453Z" fill="#FAFAFA"/>
<path d="M45.9207 149.424C45.8072 149.424 45.6944 149.405 45.5866 149.369L44.6522 149.144L41.2422 148.241C38.3574 147.461 34.3472 146.435 30.0506 144.855C28.0287 144.113 26.0599 143.234 24.1581 142.222C22.6044 141.393 21.1217 140.436 19.7251 139.362C18.7828 138.639 17.8938 137.848 17.0653 136.996C16.7721 136.695 16.5606 136.455 16.3833 136.312C16.3021 136.231 16.2332 136.139 16.1787 136.038C16.1787 136.038 16.5197 136.36 17.1335 136.927C17.9982 137.735 18.9091 138.491 19.8615 139.191C21.2718 140.209 22.7533 141.123 24.2945 141.927C26.1915 142.916 28.1508 143.78 30.1597 144.513C34.429 146.086 38.4324 147.146 41.2968 147.995L44.7068 149L45.6275 149.294C45.7304 149.325 45.829 149.368 45.9207 149.424Z" fill="#FAFAFA"/>
<path d="M46.1526 140.765C46.1566 140.887 46.1243 141.008 46.0596 141.111C45.995 141.215 45.901 141.297 45.7897 141.347C45.6784 141.397 45.5547 141.413 45.4345 141.392C45.3144 141.371 45.2031 141.315 45.1149 141.23C45.0268 141.146 44.9657 141.037 44.9396 140.917C44.9134 140.798 44.9233 140.673 44.9681 140.559C45.0128 140.446 45.0904 140.348 45.1908 140.278C45.2912 140.209 45.41 140.171 45.5319 140.17C45.6924 140.168 45.8472 140.229 45.9632 140.34C46.0793 140.451 46.1472 140.604 46.1526 140.765Z" fill="#FAFAFA"/>
</svg>
